<svg xmlns="http://www.w3.org/2000/svg" xmlns:xlink="http://www.w3.org/1999/xlink" width="500" height="380" viewBox="0 0 674 515.431">
  <defs>
    <linearGradient id="linear-gradient" x1="0.5" y1="1" x2="0.5" gradientUnits="objectBoundingBox">
      <stop offset="0" stop-color="gray" stop-opacity="0.251"/>
      <stop offset="0.54" stop-color="gray" stop-opacity="0.122"/>
      <stop offset="1" stop-color="gray" stop-opacity="0.102"/>
    </linearGradient>
    <linearGradient id="linear-gradient-2" x1="0.5" x2="0.5" y2="0" xlink:href="#linear-gradient"/>
    <linearGradient id="linear-gradient-3" x1="0.5" x2="0.5" y2="0" xlink:href="#linear-gradient"/>
    <linearGradient id="linear-gradient-4" x1="1.096" x2="1.096" y2="0" xlink:href="#linear-gradient"/>
    <linearGradient id="linear-gradient-5" x1="0.5" x2="0.5" y2="0" xlink:href="#linear-gradient"/>
  </defs>
  <g id="undraw_team_spirit_hrr4_1_" data-name="undraw_team_spirit_hrr4 (1)" transform="translate(0.013 -0.004)">
    <path id="Path_3565" data-name="Path 3565" d="M43.44,426.65c10.664,42.058,33.241,78.414,68.923,96.035,74.184,36.626,241.384,17.734,366.191-3.945,64.574-11.218,121.293-42.148,162.52-85.735Z" transform="translate(-36.17 -182.928)" fill="#264653" opacity="0.1"/>
    <path id="Path_3566" data-name="Path 3566" d="M709.8,65.9H641.317a5.48,5.48,0,1,1,0-10.924h11.849a5.724,5.724,0,0,1-5.924-5.462,5.716,5.716,0,0,1,5.924-5.456h-8.454a5.724,5.724,0,0,1-5.924-5.462,5.72,5.72,0,0,1,5.924-5.462h35.741a100.288,100.288,0,0,0-27.88-7.087c-97.46-11.553-132.259-3.915-144.552,3.945a142.459,142.459,0,0,1-50.09,20.259C397.8,61.7,285.346,75.467,183.419,45.838,132.76,31.119,95.111,56.03,72.54,97.585H721.686c-.847-12.087-3.383-23.25-8.039-33.017A6.162,6.162,0,0,1,709.8,65.9Z" transform="translate(-48.031 -20.14)" fill="#264653" opacity="0.1"/>
    <path id="Path_3567" data-name="Path 3567" d="M32.618,280.23a257.18,257.18,0,0,0,2.66,73.378L636.52,373.9a259.634,259.634,0,0,0,41.772-58.755ZM270.4,332.576H258.552a5.477,5.477,0,1,1,0,10.918H190.1a5.477,5.477,0,1,1,0-10.918h11.848a5.48,5.48,0,1,1,0-10.924h-8.466a5.477,5.477,0,1,1,0-10.918h68.479a5.477,5.477,0,1,1,0,10.918H270.4a5.48,5.48,0,1,1,0,10.924Z" transform="translate(-31.16 -124.293)" fill="#264653" opacity="0.1"/>
    <path id="Path_3568" data-name="Path 3568" d="M705.918,149.94,49.509,164.671c-8,18.94-13.288,40.349-15.729,62.544H694.413a241.6,241.6,0,0,0,9.538-39.864A174.722,174.722,0,0,0,705.918,149.94Zm-538.86,48.269H155.21a5.48,5.48,0,1,1,0,10.924H86.737a5.48,5.48,0,1,1,0-10.924H98.586a5.477,5.477,0,1,1,0-10.918H90.12a5.48,5.48,0,1,1,0-10.924H158.6a5.48,5.48,0,1,1,0,10.924h8.46a5.477,5.477,0,1,1,0,10.918Z" transform="translate(-32.233 -72.118)" fill="#264653" opacity="0.1"/>
    <ellipse id="Ellipse_216" data-name="Ellipse 216" cx="44.568" cy="10.126" rx="44.568" ry="10.126" transform="translate(349 439.497)" fill="#264653" opacity="0.1"/>
    <ellipse id="Ellipse_217" data-name="Ellipse 217" cx="80.404" cy="6.679" rx="80.404" ry="6.679" transform="translate(416.726 475.104)" fill="#264653" opacity="0.1"/>
    <ellipse id="Ellipse_218" data-name="Ellipse 218" cx="80.404" cy="10.126" rx="80.404" ry="10.126" transform="translate(93.894 461.53)" fill="#264653" opacity="0.1"/>
    <ellipse id="Ellipse_219" data-name="Ellipse 219" cx="60.499" cy="10.126" rx="60.499" ry="10.126" transform="translate(236.391 410.839)" fill="#264653" opacity="0.1"/>
    <ellipse id="Ellipse_220" data-name="Ellipse 220" cx="48.431" cy="10.126" rx="48.431" ry="10.126" transform="translate(265.349 495.183)" fill="#264653" opacity="0.1"/>
    <path id="Path_3569" data-name="Path 3569" d="M528.3,247.925c-1.28-8.717-9.106-29.06-9.106-29.06h0q-.2-.9-.462-1.8c-5.551-19.305-13.235-20.984-13.235-20.984l-27.524-6a2.142,2.142,0,0,1,.592.558,3.784,3.784,0,0,0-.432.066,10.97,10.97,0,0,1-2.411-5.276c-.053-.288-.1-.6-.136-.893a19.747,19.747,0,0,0-1.576-29.456c-.29-.228-.592-.45-.883-.66,1.3-1.4,1.339-3.339.367-5.282-2.168-4.557-6.884-7.44-11.73-8.849a19.661,19.661,0,0,0-11.387-.246,40.916,40.916,0,0,0-5.96,2.8c-3.655,1.847-7.7,3.309-10.433,6.349a3.117,3.117,0,0,0-1.043,2.548,6.9,6.9,0,0,0,1.037,1.853,5.652,5.652,0,0,1,.053,4.641,45.324,45.324,0,0,0-1.7,4.461,4.706,4.706,0,0,0,.918,4.479,19.474,19.474,0,0,0,1.718,1.2,9.084,9.084,0,0,1,1.641,1.865q1.635,2.218,3.258,4.455a45.94,45.94,0,0,1,4.082,6.277,30.715,30.715,0,0,0,2.524,4.8,7.077,7.077,0,0,0,1.084,1.151l-.32-.126a4.9,4.9,0,0,0,3.62,1.493h.166a.989.989,0,0,0,.664-.276v.6c.065,2.14.053,4.419-.095,6.559l-.255-.132a2.2,2.2,0,0,0-2.37.252l-25.338,20.576s-5.51,7.626-4.739,20.792L414.448,256.4s-5.551,16.751-1.28,28.712,6.748,18.8,6.748,18.8,1.706,13.592,4.271,14.7,3.673,1.709,3.673,1.709l.509,3.25h0s.172.318.474.851c1.866,3.286,8.78,14.881,12.8,13.64a52.582,52.582,0,0,1,.652,9.527l3.975,27.009s2.772,7.344,2.6,11.193,3.235,9.335,3.235,9.335a18.025,18.025,0,0,0-1.706,12.561c1.623,7.195,3.673,40.337,3.673,40.337l2.962,8.034-.083,9.419a9.045,9.045,0,0,1-1.836,4.2c-1.919,2.11-1.777,4.551-6.4,7.434s-7.559,3.975-7.559,7.794a10.153,10.153,0,0,1-.142,1.589c-.427,2.806-1.256,4.329,7.251,5.144A22.287,22.287,0,0,0,464.917,486s1.469-2.7,8.389-3.789c0,0,2.37-.126,2.494-2.242.047-.731.036-2.128,0-3.669-.113-2.932-.391-6.355-.758-6.523-.462-.21-1.268-3.16-1.546-4.227h1.925s1.777-13.592,0-22.393a36.752,36.752,0,0,1-.172-15.043l-.344-23.244s-2.37-2.566-.509-7.1,0-26.919,0-26.919.687-8.034,2.648-9.916.095-11.769,0-12.285l3.5,11.865s1.534,23.586,4.787,27.855l.936,10.684s6.659,9.832,5.379,15.126,1.368,24.443,1.368,24.443V458.2s-2.992,7.86,1.185,10.684l1.777-.072c-.592.557-1.049,1.4-1.742,2.122-.8.833-1.256,4-1.511,6.733-.213,2.308-.284,4.293-.284,4.293a6.982,6.982,0,0,0,5.125,3.076c3.347.2,14.378,8.687,14.378,8.687s10.895,0,13.715-.6l.166-.042a3.712,3.712,0,0,0,2.127-1.757,4.543,4.543,0,0,0,.509-3.231c-.349-1.685-1.671-3.531-4.6-5.1-7.281-3.885-8.365-7.524-8.365-7.524l-4.781-7.26h.681a31.35,31.35,0,0,1,4.781-16.326l-.338-38.029s2.133-13.076-1.534-20.175c0,0-.3-7.518,2.151-9.826s-3.264-25.637-3.264-25.637-1.185-12.524-2.577-23.952h0c5.764,5.534,11.742-14.389,12.749-17.932h.148l-.065-.258c.042-.168.065-.252.065-.252h0s-1.28-4.6-.344-3.669,3.246-2.566,3.246-2.566-.344-19.059,3.673-28.664S528.3,247.925,528.3,247.925Zm-17.18,12.129.03-.054c.592,11.637-.112,36.47-.112,36.47s-.794,3.184-1.641,6.931l-.592-23.592h0l-.592-22.225Zm-73.526-8.022s2.9,36.746,0,42.046a28.014,28.014,0,0,0-2.091,7.26c-.96-2.548-2.992-8.532-2.263-11.7.942-4.1-1.878-14.875-1.878-15.127s-.255-6,1.777-10.384.7-6.289.7-6.289S435.545,250.641,437.594,252.032Z" transform="translate(-186.203 -67.863)" fill="url(#linear-gradient)"/>
    <path id="Path_3570" data-name="Path 3570" d="M456.894,453.162c-2.53,11.253-12.589-5.762-14.882-9.845-.3-.534-.462-.845-.462-.845l1.09-5.174,5.764-2.4a16.078,16.078,0,0,1,2.583,1.7A15.849,15.849,0,0,1,456.894,453.162Z" transform="translate(-198.429 -186.232)" fill="#d38884"/>
    <path id="Path_3571" data-name="Path 3571" d="M587.775,432.724a.8.8,0,0,1-.065.252,1.288,1.288,0,0,1-.077.27c-.989,3.513-6.854,23.292-12.518,17.8-6.2-6-3.188-19.857-3.188-19.857h.042L585,429.84l2.583,2.686h0Z" transform="translate(-251.269 -184.205)" fill="#d38884"/>
    <path id="Path_3572" data-name="Path 3572" d="M531.6,531.077l.332,37.771a31.271,31.271,0,0,0-4.692,16.188l-16.849.672c-4.111-2.8-1.185-10.6-1.185-10.6V555.658s-2.6-19-1.345-24.263-5.279-14.989-5.279-14.989l-.924-10.606c-3.187-4.239-4.7-27.651-4.7-27.651l-3.418-11.823c.095.51,1.872,10.378,0,12.195s-2.6,9.839-2.6,9.839,1.843,22.231,0,26.722.5,7.045.5,7.045l.338,23.076a36.509,36.509,0,0,0,.166,14.929c1.76,8.735,0,22.231,0,22.231H473.871l.083-9.419-2.927-7.974s-2.014-32.915-3.608-40.044a18.081,18.081,0,0,1,1.671-12.471s-3.347-5.426-3.181-9.245-2.583-11.1-2.583-11.1l-3.9-26.806a52.662,52.662,0,0,0-1.931-15.27c-2.263-7.638-5.616-17.651-5.616-17.651l3.786.342,19.1,1.721s46.44-3.16,48.52-.534a8.9,8.9,0,0,1,.877,2.74c2.085,9.479,4.84,39.174,4.84,39.174s5.616,23.16,3.205,25.451-2.115,9.749-2.115,9.749C533.706,518.067,531.6,531.077,531.6,531.077Z" transform="translate(-202.639 -185.223)" fill="#444053"/>
    <path id="Path_3573" data-name="Path 3573" d="M496.526,694.429c-.13,2.1-2.447,2.23-2.447,2.23-6.789,1.079-8.235,3.753-8.235,3.753a21.669,21.669,0,0,1-16.345,5.6c-8.353-.815-7.542-2.32-7.109-5.108a10.678,10.678,0,0,0,.136-1.571c0-3.819,2.891-4.9,7.417-7.794s4.4-5.282,6.286-7.38,2.079-6.169,2.079-6.169c2.133-3.759,7.542.6,7.542.6.255,1.331,8.294,1.145,8.294,1.145s1.066,4.329,1.617,4.581c.361.168.634,3.561.741,6.475C496.562,692.318,496.573,693.7,496.526,694.429Z" transform="translate(-206.822 -282.966)" fill="#b07473"/>
    <path id="Path_3574" data-name="Path 3574" d="M496.526,704.007c-.13,2.1-2.447,2.231-2.447,2.231-6.789,1.079-8.235,3.753-8.235,3.753a21.67,21.67,0,0,1-16.345,5.6c-8.353-.816-7.542-2.32-7.109-5.108,3.732.935,10.865,2.242,15.03-.048,5.788-3.178,9.941-5.4,9.941-5.4l9.147-4.658C496.562,701.9,496.573,703.282,496.526,704.007Z" transform="translate(-206.822 -292.545)" opacity="0.1"/>
    <path id="Path_3575" data-name="Path 3575" d="M582.6,707.375a3.625,3.625,0,0,1-2.085,1.745l-.16.042c-2.767.6-13.46.6-13.46.6s-10.812-8.46-14.082-8.651a6.876,6.876,0,0,1-5.03-3.058s.065-1.967.272-4.257c.255-2.71.7-5.858,1.487-6.685,1.445-1.529,1.777-3.6,5.03-2.29,0,0,4.645-8.286,10.119-1.883l5.664,8.693s1.066,3.6,8.241,7.5c2.867,1.559,4.147,3.393,4.508,5.066A4.515,4.515,0,0,1,582.6,707.375Z" transform="translate(-241.725 -284.588)" fill="#b07473"/>
    <path id="Path_3576" data-name="Path 3576" d="M582.6,716.25c-.64.546-1.345,1.133-2.085,1.745l-.16.042c-2.767.6-13.46.6-13.46.6s-10.812-8.459-14.082-8.651a6.876,6.876,0,0,1-5.03-3.058s.065-1.966.272-4.256c3.33,1.007,8.371,2.788,9.722,4.706,2.074,2.92,8.371,7,8.371,7s11.742-1.145,16.955-1.3A4.515,4.515,0,0,1,582.6,716.25Z" transform="translate(-241.725 -293.462)" opacity="0.1"/>
    <path id="Path_3577" data-name="Path 3577" d="M507.877,218.239,492.415,234.78s-18.739-1.4-15.468-7c1.665-2.854,1.925-8.825,1.777-14.017-.136-5.006-.646-9.269-.646-9.269s26.28-13.238,24.29-.893a20.559,20.559,0,0,0-.071,7.045C503.416,216.884,507.877,218.239,507.877,218.239Z" transform="translate(-212.7 -91.5)" fill="#d38884"/>
    <path id="Path_3578" data-name="Path 3578" d="M503.386,203.6a20.561,20.561,0,0,0-.071,7.045,19.175,19.175,0,0,1-13.756,5.81c-3.555,0-7.4-2.956-10.273-4.664-.136-5.012-.166-7.3-.166-7.3S505.4,191.259,503.386,203.6Z" transform="translate(-213.742 -91.5)" opacity="0.1"/>
    <path id="Path_3579" data-name="Path 3579" d="M502.772,181.084A19.55,19.55,0,0,1,487.718,200.2a19.3,19.3,0,0,1-21.761-10.6,19.754,19.754,0,0,1,5.376-23.829,19.187,19.187,0,0,1,24.152.006A19.687,19.687,0,0,1,502.772,181.084Z" transform="translate(-207.594 -76.744)" fill="#d38884"/>
    <path id="Path_3580" data-name="Path 3580" d="M526.18,436.869c-4.822,11.613-35.842,11.853-35.842,11.853V436.06l-1.878-.126c.812,3.627-1.137,12.471-1.137,12.471-24.515,3.5-30.492-10.636-30.492-10.636l.853-4.838,19.1,1.721s46.44-3.159,48.52-.534a8.892,8.892,0,0,1,.877,2.752Z" transform="translate(-204.657 -185.443)" opacity="0.1"/>
    <path id="Path_3581" data-name="Path 3581" d="M490.338,364.959V352.3l-1.878-.12c.812,3.6-1.137,12.47-1.137,12.47-18.448,2.632-26.4-4.718-29.2-8.52a11.618,11.618,0,0,1-1.292-2.11l7.488-42.628,1.777-62.736,2.684-11.008.622-5.282v-.06h.065l1.908.827,11.416,4.994,12.968-9.91.19-.138.646-.5,1.072.869,2.666,2.164,8.549,55.872s14.811,43.017,17.583,60.38c.113.7.2,1.343.272,1.949C528.567,364.666,490.338,364.959,490.338,364.959Z" transform="translate(-204.657 -103.209)" fill="#264653"/>
    <ellipse id="Ellipse_221" data-name="Ellipse 221" cx="1.102" cy="1.115" rx="1.102" ry="1.115" transform="translate(278.418 135.037)" fill="#67647e"/>
    <ellipse id="Ellipse_222" data-name="Ellipse 222" cx="1.102" cy="1.115" rx="1.102" ry="1.115" transform="translate(278.927 145.217)" fill="#67647e"/>
    <ellipse id="Ellipse_223" data-name="Ellipse 223" cx="1.102" cy="1.115" rx="1.102" ry="1.115" transform="translate(280.029 161.698)" fill="#67647e"/>
    <ellipse id="Ellipse_224" data-name="Ellipse 224" cx="1.102" cy="1.115" rx="1.102" ry="1.115" transform="translate(281.848 179.451)" fill="#67647e"/>
    <ellipse id="Ellipse_225" data-name="Ellipse 225" cx="1.102" cy="1.115" rx="1.102" ry="1.115" transform="translate(282.95 196.118)" fill="#67647e"/>
    <ellipse id="Ellipse_226" data-name="Ellipse 226" cx="1.102" cy="1.115" rx="1.102" ry="1.115" transform="translate(284.052 213.871)" fill="#67647e"/>
    <ellipse id="Ellipse_227" data-name="Ellipse 227" cx="1.102" cy="1.115" rx="1.102" ry="1.115" transform="translate(283.613 231.431)" fill="#67647e"/>
    <path id="Path_3582" data-name="Path 3582" d="M470.132,320.628s-1.232,16.326-3.5,21.074-3.27,18.07-3.27,18.07l-5.255-.6a11.634,11.634,0,0,1-1.292-2.11l7.488-42.628,1.777-62.736,2.69-11.014.622-5.282.071-.03a2.1,2.1,0,0,1,1.872.03l.249.132q-.113.324-.213.666c-2.05,6.493-2.814,18.46-2.814,18.46s2.962,21.889,3.27,32.07S470.132,320.628,470.132,320.628Z" transform="translate(-204.653 -106.247)" opacity="0.1"/>
    <path id="Path_3583" data-name="Path 3583" d="M450.987,436.621a3.084,3.084,0,0,1-.2.4c-2.038,3.483-7.2,5.7-8.774,6.3-.3-.534-.462-.845-.462-.845l1.09-5.174,5.764-2.4A16.083,16.083,0,0,1,450.987,436.621Z" transform="translate(-198.429 -186.232)" opacity="0.1"/>
    <path id="Path_3584" data-name="Path 3584" d="M425.668,298.81l-4.781,2.884-4.354,19.6s-5.45,16.625-1.262,28.5,6.623,18.676,6.623,18.676,1.677,13.49,4.194,14.593,3.6,1.7,3.6,1.7l.5,3.226s6.825-2.344,9.236-6.475-1.777-14.389-1.777-14.389-3.6-8.741-2.678-12.812-1.848-14.761-1.848-14.989-.249-5.941,1.777-10.312.675-6.235.675-6.235l-1.262-12.47Z" transform="translate(-187.073 -131.734)" fill="#67647e"/>
    <path id="Path_3585" data-name="Path 3585" d="M553.146,351.25s-12.66,4.832-16.683.6-3.608-24.1-3.608-24.1S529,291.1,526.57,285.085s-1.185-49.462-1.185-49.462-1.635-5.618-3.063-7.087a1.56,1.56,0,0,0-.3-.246l.492.108,1.718.372,2.666,2.164,8.549,55.871s14.811,43.017,17.583,60.38Z" transform="translate(-231.226 -103.493)" opacity="0.1"/>
    <path id="Path_3586" data-name="Path 3586" d="M588.269,433.225h-.142c-1.594.21-15.658,1.931-15.717-1.031a8.767,8.767,0,0,1,.053-1.025L585.5,429.82l2.583,2.686h0c.047.174.083.324.118.444Z" transform="translate(-251.764 -184.197)" opacity="0.1"/>
    <path id="Path_3587" data-name="Path 3587" d="M574.773,266.07l9.242,4.88s7.7,20.181,8.934,28.832c0,0,5.7,23.178,1.777,32.711s-3.6,28.454-3.6,28.454-2.263,3.477-3.187,2.548.338,3.645.338,3.645-15.8,2.122-15.865-1.019,3.626-18.154,3.626-18.154,1.007-35.715-.421-41.315S574.773,266.07,574.773,266.07Z" transform="translate(-251.763 -118.623)" fill="#67647e"/>
    <path id="Path_3588" data-name="Path 3588" d="M524.659,329.52s-5.2,12.89-6.878,13.742.338,4.239.338,4.239S527.592,334.1,524.659,329.52Z" transform="translate(-229.227 -144.032)" opacity="0.1"/>
    <path id="Path_3589" data-name="Path 3589" d="M519.028,254.1c.059-.246-6.2,6.217-7.879,7.195S517.268,261.23,519.028,254.1Z" transform="translate(-226.7 -113.825)" opacity="0.1"/>
    <path id="Path_3590" data-name="Path 3590" d="M489.395,327.82s-9.556,6.253-8.294,8.729S489.395,327.82,489.395,327.82Z" transform="translate(-214.502 -143.351)" opacity="0.1"/>
    <path id="Path_3591" data-name="Path 3591" d="M524.47,480.07a50.752,50.752,0,0,0,20.788,6.6Z" transform="translate(-232.225 -204.32)" opacity="0.1"/>
    <path id="Path_3592" data-name="Path 3592" d="M491.5,501.3s7.542,9.593,10.984,9.838S491.5,501.3,491.5,501.3Z" transform="translate(-218.787 -212.822)" opacity="0.1"/>
    <path id="Path_3593" data-name="Path 3593" d="M503.07,564c-.338.168-4.277,8.651-8.294,8.909S503.07,564,503.07,564Z" transform="translate(-219.794 -237.931)" opacity="0.1"/>
    <path id="Path_3594" data-name="Path 3594" d="M568.33,594.832s7.476-1.7,9.141,3.729C577.471,598.543,576.968,596.847,568.33,594.832Z" transform="translate(-250.101 -250.177)" opacity="0.1"/>
    <path id="Path_3595" data-name="Path 3595" d="M559.84,646.318s9.058-1.87,10.984.677S559.84,646.318,559.84,646.318Z" transform="translate(-246.641 -270.63)" opacity="0.1"/>
    <path id="Path_3596" data-name="Path 3596" d="M510.47,654c0,.084-9.218,1.871-8.886,3.058s9.834,1.019,10.172-.851a1.817,1.817,0,0,0-.187-1.375A1.78,1.78,0,0,0,510.47,654Z" transform="translate(-222.894 -273.972)" opacity="0.1"/>
    <path id="Path_3597" data-name="Path 3597" d="M554.75,667.06s15.148-1.87,14.218,1.355S554.75,667.06,554.75,667.06Z" transform="translate(-244.566 -278.986)" opacity="0.1"/>
    <path id="Path_3598" data-name="Path 3598" d="M420.89,352.44c.083.252,9.976,1.613,11.315,4.838,0,0-9.722-4.587-11.256-4.587" transform="translate(-190.009 -153.21)" opacity="0.1"/>
    <path id="Path_3599" data-name="Path 3599" d="M439.11,396.16s-8.217,2.632-7.63,6.595S430.644,400.92,439.11,396.16Z" transform="translate(-194.312 -170.718)" opacity="0.1"/>
    <path id="Path_3600" data-name="Path 3600" d="M437.92,427.511s2.992-4.155,5.841-3.393S437.92,427.511,437.92,427.511Z" transform="translate(-196.95 -181.877)" opacity="0.1"/>
    <path id="Path_3601" data-name="Path 3601" d="M495.5,165.769a4.667,4.667,0,0,1-.96.725c-2.37,1.4-3.021,3.549-4.147,6.031-1.049,2.272-2.2,4.676-4.319,5.965-2.731,1.667-6.327,1.055-9.165,2.506a7.215,7.215,0,0,0-3.792,7.093,20.67,20.67,0,0,0,.806,3.25,23.435,23.435,0,0,1,.865,7.057,1.2,1.2,0,0,1,0,.21,19.7,19.7,0,0,1,.346-35.225,19.174,19.174,0,0,1,20.389,2.388Z" transform="translate(-207.614 -76.741)" opacity="0.1"/>
    <path id="Path_3602" data-name="Path 3602" d="M488.349,152.275c-2.127-4.521-6.754-7.386-11.511-8.783a19.114,19.114,0,0,0-11.179-.24,40.791,40.791,0,0,0-5.847,2.776c-3.59,1.835-7.536,3.285-10.237,6.3a3.177,3.177,0,0,0-1.025,2.53,7.089,7.089,0,0,0,1.013,1.835,5.628,5.628,0,0,1,.053,4.611,42.64,42.64,0,0,0-1.671,4.431,4.7,4.7,0,0,0,.9,4.443,16.417,16.417,0,0,0,1.694,1.2,8.994,8.994,0,0,1,1.605,1.847l3.2,4.425a44.939,44.939,0,0,1,4,6.229,29.8,29.8,0,0,0,2.476,4.754,5.344,5.344,0,0,0,4.491,2.428.867.867,0,0,0,.711-.342.957.957,0,0,0,.089-.45,23.274,23.274,0,0,0-.847-7.033,20.493,20.493,0,0,1-.806-3.25,7.245,7.245,0,0,1,3.792-7.093c2.844-1.451,6.44-.839,9.165-2.5,2.121-1.3,3.276-3.7,4.319-6,1.143-2.482,1.777-4.634,4.147-6.031S489.528,154.655,488.349,152.275Z" transform="translate(-200.962 -69.147)" fill="#585268"/>
    <path id="Path_3603" data-name="Path 3603" d="M501.63,693.06s2.962,3.819,2.192,6S501.63,693.06,501.63,693.06Z" transform="translate(-222.916 -289.613)" opacity="0.1"/>
    <path id="Path_3604" data-name="Path 3604" d="M569.28,705.5s.658-5.12,3.294-5.168,2.767-.276,4.781.51,3.9,2,3.3,2.182-3.466-2.926-6.4-1.337A21.185,21.185,0,0,0,569.28,705.5Z" transform="translate(-250.488 -292.5)" opacity="0.1"/>
    <path id="Path_3605" data-name="Path 3605" d="M481.4,247.721l8.294-5.882s-12.133-7.254-13.578-6.235S473.67,245.8,473.67,245.8Z" transform="translate(-211.52 -106.383)" opacity="0.1"/>
    <path id="Path_3606" data-name="Path 3606" d="M481.335,247.015l8.294-6s-12.133-7.254-13.578-6.235-2.441,10.7-2.441,10.7Z" transform="translate(-211.496 -106.055)" fill="#e1e7ef"/>
    <path id="Path_3607" data-name="Path 3607" d="M481.335,247.015l8.294-6s-12.133-7.254-13.578-6.235-2.441,10.7-2.441,10.7Z" transform="translate(-211.496 -106.055)" fill="#264653"/>
    <path id="Path_3608" data-name="Path 3608" d="M457.906,234.687l-.249-.126a2.13,2.13,0,0,0-2.328.246l-24.882,20.426s-5.409,7.572-4.657,20.636l14.674,21.038s1.677-7.123,3.685-5.768c0,0,2.85,36.482,0,41.74s-4.105,24.941-4.105,24.941l9.639,1.1s1.007-13.322,3.27-18.07,3.5-21.074,3.5-21.074,2.038-23.718,1.7-33.9-3.27-32.07-3.27-32.07S455.7,240.982,457.906,234.687Z" transform="translate(-191.977 -105.91)" fill="#67647e"/>
    <path id="Path_3609" data-name="Path 3609" d="M514.778,241.119l-10.338-3.873s13.164-14.593,14.811-6.5Z" transform="translate(-224.061 -103.498)" opacity="0.1"/>
    <path id="Path_3610" data-name="Path 3610" d="M514.778,240.269,504.44,236.4s13.164-14.593,14.811-6.5Z" transform="translate(-224.061 -103.158)" fill="#e1e7ef"/>
    <path id="Path_3611" data-name="Path 3611" d="M514.778,240.269,504.44,236.4s13.164-14.593,14.811-6.5Z" transform="translate(-224.061 -103.158)" fill="#264653"/>
    <path id="Path_3612" data-name="Path 3612" d="M521.32,228.115a.586.586,0,0,1,.426.1Z" transform="translate(-230.941 -103.42)" opacity="0.1"/>
    <path id="Path_3613" data-name="Path 3613" d="M523,226.423l27.429,6s7.547,1.7,13,20.87-7.465,42.663-7.465,42.663l-2.85-2.452,1.428,55.991s-12.66,4.832-16.683.6-3.6-24.114-3.6-24.114-3.857-36.644-6.292-42.67-1.185-49.456-1.185-49.456S524.54,226.087,523,226.423Z" transform="translate(-231.626 -102.742)" fill="#67647e"/>
    <path id="Path_3614" data-name="Path 3614" d="M565.112,285.772c-.385.36-.835,17.3.841,30.2a166.3,166.3,0,0,0,4.74,23.244L568.2,287.553S566.286,284.669,565.112,285.772Z" transform="translate(-248.643 -126.412)" opacity="0.1"/>
    <path id="Path_3615" data-name="Path 3615" d="M559.7,261.6c.669.426,3.608,7.464,2.263,10.348S559.7,261.6,559.7,261.6Z" transform="translate(-246.584 -116.833)" opacity="0.1"/>
    <path id="Path_3616" data-name="Path 3616" d="M498.389,154.521a15.247,15.247,0,0,0-6.031-6.391,14.472,14.472,0,0,1,4.52,5.4c1.185,2.4.835,4.8-1.469,6.109s-3.021,3.549-4.147,6.031c-1.049,2.272-2.2,4.676-4.325,6-2.725,1.667-6.321,1.049-9.165,2.5a7.263,7.263,0,0,0-3.792,7.1,20.59,20.59,0,0,0,.812,3.244,23.451,23.451,0,0,1,.865,7.057.957.957,0,0,1-.095.45.844.844,0,0,1-.7.342,4.04,4.04,0,0,1-2.068-.39,4.78,4.78,0,0,0,3.554,1.409.694.694,0,0,0,.591-.2.713.713,0,0,0,.2-.6,23.265,23.265,0,0,0-.859-7.057,19.9,19.9,0,0,1-.812-3.25,7.245,7.245,0,0,1,3.792-7.093c2.844-1.451,6.44-.839,9.165-2.5,2.121-1.3,3.276-3.7,4.319-6,1.143-2.482,1.777-4.634,4.147-6.031S499.574,156.9,498.389,154.521Z" transform="translate(-211.162 -71.393)" opacity="0.1"/>
    <path id="Path_3617" data-name="Path 3617" d="M721.422,239.018c-8.164-.162-15.368-6-19.45-13.124a13.294,13.294,0,0,1-1.967-5.618,6.555,6.555,0,0,1,.225-1.343,14.081,14.081,0,0,0,.592-2.056,3.669,3.669,0,0,0,0-.839s0,0,0-.048a4.986,4.986,0,0,0-1.777-4.035c-1.09-1.037-2.459-1.8-3.6-2.83-3.507-3.118-4.574-8.118-4.639-12.878v-.252c.041-2.038.2-4.083.184-6.121a26.035,26.035,0,0,0-.148-3.465,11.5,11.5,0,0,0-3.661-7.662c-5.841-4.8-15.664.2-21.712-4.335-1.469-1.109-2.66-2.746-4.443-3.178a7.4,7.4,0,0,0-4.058.558c-4.455,1.487-9.425,3.441-11.167,7.794-1,2.5-.717,5.354-1.629,7.884a39.506,39.506,0,0,1-2.548,4.76,7.526,7.526,0,0,0-.948,3.975,4.534,4.534,0,0,0,.29,2.116,5.4,5.4,0,0,0,1.451,2.1,7,7,0,0,1-.865,1.4c-1.137,1.409-2.885,2.4-4.07,3.8-2.192,2.572-2.109,6.067-1.031,9.089s3.028,5.774,4.372,8.717a4.729,4.729,0,0,1,.444,3.975,11.37,11.37,0,0,1-1.967,2.314,7.313,7.313,0,0,0-1.777,4.017c-13.336,3.082-13.348,13.927-13.348,13.927h0L616.977,266s-1.155,3.088-2.512,7.165l-8.525-1.547,5.924,10.036c-1.12,4.089-1.914,7.878-1.653,9.785,0,0-2.648,12.59,2.062,14.791l10.391,4.73a6.123,6.123,0,0,0,1.44.654l.421.192a1.1,1.1,0,0,0,.971,0h.142a1.381,1.381,0,0,0,.592-.09,1.194,1.194,0,0,0,.521-.57.18.18,0,0,1,0-.06l3.11-.911,2.636,3.16c1.185.845,2.37,1.577,3.489,2.236l-4.082,41.021s-.658,54.559-2.648,66.993a35.239,35.239,0,0,0-.462,9.88l-.077.132c.492,3.507,1.777,4.2,1.777,4.2v-.048a.378.378,0,0,0,.077.048,35.5,35.5,0,0,1,2.133-4.628v.9c-.041,4.628-.184,11.11-.658,15.324-.806,7.195,2.062,30.906,2.062,30.906l.989,21.584A20.15,20.15,0,0,1,632.67,512.4c-2.37,4.311-5.4,10.378-5.616,13.07a2.7,2.7,0,0,0,0,.438h0l-5.083,6.187s-1.985,3.106,2.5,4.359c2.411.677,6.57,0,9.911-.8a6.686,6.686,0,0,0,5.136-6.523,23.178,23.178,0,0,1,4.194-8.148l.835,4.97,5.592,1.4.717-13.622a6.066,6.066,0,0,0,.385-2.4h0c1.1-9.689-2.595-8.819-2.595-8.819a.523.523,0,0,1,.178.336l-.178-.33h0c-2.269-4.533-1.185-11.991-1.185-11.991s2.962-21.583,3.975-27.285c.729-4.029.426-17.219.184-24.581a8.885,8.885,0,0,0-.03-.893c8.673-.114,19.3-.408,26.76-1.139v.887l-1.374,50.991A28.29,28.29,0,0,1,675.047,498a.522.522,0,0,1-.065.174,41.8,41.8,0,0,0-2.731,13.364l-.64,16.188v.45h0c-1.114.432-2.873,1.685-2.921,5.318-.077,5.324,9.195,3.549,9.195,3.549,9.266,0,9.343-9.761,9.343-9.761s.29-8.951.734-14.941-1.4-4.671-1.4-4.671l-.142,17.039V509.9l.142-2.164v-.06h0v-.462l1.167-17.573s8.537-29.282,9.858-34.9c.942-3.993.551-16.02.243-22.669a5.344,5.344,0,0,0-.047-.881c2.648-.24,4.988-.264,5.924-.264h.432s-.438-47.028-1.546-64.751-2.867-33.94-7.281-38.82c-2.666-2.95-6.38-12.057-8.886-18.8a92.168,92.168,0,0,0,16.333,5.4c13.975,2.962,12.062-9.317,12.062-9.317l-1.416-23.22h.095a119.805,119.805,0,0,0-1.54-18.154,53.907,53.907,0,0,0-3.6-13.19c1.517-.6,3.016-1.241,4.485-1.9,3.8-1.7,8.075-4.1,8.62-8.244h-.184a5.42,5.42,0,0,0,.142-.911Zm-86.631,33.574h0c.03,2.4-.059,6.559-.2,11.157l-4.437-6,4.449-7.3ZM694.247,284.769Zm1.848,9.071-7.394-2.4a33.508,33.508,0,0,1,4.568-5.72l.64-.6-.231.048.355-.33.213-.048-.338.33.4-.084a12.825,12.825,0,0,0,2.518,5.126c2.654,2.932-.729,3.675-.729,3.675Z" transform="translate(-265.43 -80.599)" fill="url(#linear-gradient-2)"/>
    <path id="Path_3618" data-name="Path 3618" d="M645.962,715.66l-.865,16.6-5.516-1.4-1.161-6.9Z" transform="translate(-260.208 -286.589)" fill="#a27772"/>
    <path id="Path_3619" data-name="Path 3619" d="M645.962,715.66l-.865,16.6-5.516-1.4-1.161-6.9Z" transform="translate(-260.208 -286.589)" opacity="0.1"/>
    <path id="Path_3620" data-name="Path 3620" d="M716.48,696.43l8.413,1.763,6.238-5.576V676.9l.142-2.146v-.066h0v-.456l1.161-17.465s8.419-29.072,9.728-34.654c.924-3.957.539-15.9.231-22.5-.124-2.7-.231-4.515-.231-4.515l-18.573-4.55L723.2,605l-1.356,50.626a28.349,28.349,0,0,1-1.9,9.419l-.065.174a41.617,41.617,0,0,0-2.7,13.262l-.628,16.1v.444Z" transform="translate(-310.483 -248.563)" fill="#cc818c"/>
    <path id="Path_3621" data-name="Path 3621" d="M741.45,730.142v.444h0v-.456Z" transform="translate(-320.66 -304.458)" opacity="0.1"/>
    <path id="Path_3622" data-name="Path 3622" d="M716.48,763.71l8.413,1.763,6.238-5.576V758.56a1.8,1.8,0,0,1-.895,1.439l-.089.054a16.6,16.6,0,0,1-9.443,1.888l-3.282-.282a3.04,3.04,0,0,0-.871.216v.443Z" transform="translate(-310.483 -315.844)" opacity="0.1"/>
    <path id="Path_3623" data-name="Path 3623" d="M728.2,749.328l.089-.048a1.8,1.8,0,0,0,.906-1.559l.136-16.913s1.813-1.313,1.374,4.634-.723,14.833-.723,14.833-.071,9.689-9.212,9.689c0,0-9.141,1.762-9.07-3.526s3.774-5.5,3.774-5.5l3.282.288A16.556,16.556,0,0,0,728.2,749.328Z" transform="translate(-308.535 -304.68)" fill="#b07473"/>
    <path id="Path_3624" data-name="Path 3624" d="M642.52,696.532c.213,3.819,11.315,1.613,11.315,1.613l7.47-14.677s6.238-4.85,3.116-9.107a6.816,6.816,0,0,1-.456-.725l-.03-.036h0c-.065-.108-.124-.222-.184-.342h0c-2.239-4.5-1.137-11.871-1.137-11.871s2.9-21.44,3.916-27.093c.717-3.993.421-17.093.184-24.419-.095-3.046-.184-5.09-.184-5.09L648.1,599.79v5.564c-.042,4.6-.184,11.032-.652,15.216-.794,7.117,2.032,30.685,2.032,30.685l.978,21.446a20.06,20.06,0,0,1-2.37,10.438c-2.31,4.281-5.332,10.312-5.539,12.98A2.648,2.648,0,0,0,642.52,696.532Z" transform="translate(-280.339 -252.263)" fill="#cc818c"/>
    <path id="Path_3625" data-name="Path 3625" d="M642.517,745.856c.213,3.819,11.315,1.613,11.315,1.613l7.471-14.677s6.238-4.85,3.116-9.107a6.8,6.8,0,0,1-.456-.725c-.1,2.224-2.512,7.794-2.512,7.794s-6.167,12.488-8.128,15.348-10.48-.534-10.8-.654a2.651,2.651,0,0,0-.006.408Z" transform="translate(-280.335 -301.587)" opacity="0.1"/>
    <path id="Path_3626" data-name="Path 3626" d="M659.962,722.287s3.649-.858,2.559,8.759h0a6.213,6.213,0,0,1-2.885,5.5,20.97,20.97,0,0,0-8.679,12.183h0a6.627,6.627,0,0,1-5.065,6.475c-3.294.779-7.4,1.463-9.775.792-4.425-1.247-2.464-4.329-2.464-4.329l5.077-6.1s8.851,3.525,10.806.659,8.128-15.342,8.128-15.342S661.046,723.1,659.962,722.287Z" transform="translate(-276.548 -301.31)" fill="#b07473"/>
    <path id="Path_3627" data-name="Path 3627" d="M728.211,593.52l-.391,14.449c4.947-.486,8.49-1.163,9.094-2.116,1.309-2.05,6.061-2.914,10.1-3.268-.124-2.7-.231-4.515-.231-4.515Z" transform="translate(-315.105 -249.752)" opacity="0.1"/>
    <path id="Path_3628" data-name="Path 3628" d="M651.94,608.284a6.842,6.842,0,0,1,2.032-2.482c1.955-1.1,1.742,7.051,1.742,7.051s6.517.06,14.84-.048c-.095-3.046-.184-5.1-.184-5.1l-18.43-4.988S651.976,605.034,651.94,608.284Z" transform="translate(-284.178 -253.436)" opacity="0.1"/>
    <path id="Path_3629" data-name="Path 3629" d="M647.069,524.3s2.18-6,4.147-7.063,1.742,7.045,1.742,7.045,47.88.444,50.273-3.3,16.321-3.525,16.321-3.525-.432-46.693-1.522-64.307-2.826-33.7-7.18-38.545c-2.814-3.136-6.819-13.28-9.3-20.043-1.345-3.693-2.239-6.385-2.239-6.385l-45.7,2.638-.373,3.747L648.39,443.67s-.652,54.181-2.613,66.513S647.069,524.3,647.069,524.3Z" transform="translate(-281.41 -167.518)" fill="#444053"/>
    <g id="Group_403" data-name="Group 403" transform="translate(363.792 220.652)" opacity="0.1">
      <path id="Path_3630" data-name="Path 3630" d="M706.725,520.975c2.37-3.741,16.321-3.525,16.321-3.525s-.432-46.692-1.523-64.307-2.826-33.7-7.18-38.545c-2.826-3.148-6.819-13.28-9.3-20.043-1.132-3.106-1.943-5.5-2.168-6.181l3.555-.2s.895,2.692,2.245,6.385c2.476,6.763,6.475,16.907,9.289,20.043,4.354,4.844,6.1,20.924,7.18,38.545s1.528,64.307,1.528,64.307-13.928-.216-16.327,3.525c-2.044,3.2-37.275,3.346-47.5,3.316C675.972,524.26,704.877,523.865,706.725,520.975Z" transform="translate(-652.417 -388.17)"/>
      <path id="Path_3631" data-name="Path 3631" d="M647.533,603.371c.883-.5,1.321.881,1.54,2.554a34.8,34.8,0,0,0-2.056,4.509s-1.262-.689-1.777-4.2A8.142,8.142,0,0,1,647.533,603.371Z" transform="translate(-645.24 -474.307)"/>
    </g>
    <path id="Path_3632" data-name="Path 3632" d="M665.96,195.315c-3.164,4.365.036,10.57-3.359,14.815-1.12,1.4-2.844,2.4-4.011,3.777-2.162,2.554-2.079,6.025-1.019,9.023s2.962,5.732,4.313,8.657a4.68,4.68,0,0,1,.438,3.945,11.139,11.139,0,0,1-1.943,2.3c-2.18,2.464-2.239,5.887-1.066,8.789s3.412,5.4,5.622,7.854c.871.965,1.973,2.032,3.424,2a4.7,4.7,0,0,0,2.151-.713,22.306,22.306,0,0,0,9.976-28.952c-1.836-4.455-4.9-8.723-4.929-13.43,0-3.735,1.9-7.3,2.233-11.02.409-4.521-2.233-11.7-7.625-13.67C670.522,191.592,667.565,193.073,665.96,195.315Z" transform="translate(-286.178 -87.635)" fill="#585268"/>
    <path id="Path_3633" data-name="Path 3633" d="M665.96,195.315c-3.164,4.365.036,10.57-3.359,14.815-1.12,1.4-2.844,2.4-4.011,3.777-2.162,2.554-2.079,6.025-1.019,9.023s2.962,5.732,4.313,8.657a4.68,4.68,0,0,1,.438,3.945,11.139,11.139,0,0,1-1.943,2.3c-2.18,2.464-2.239,5.887-1.066,8.789s3.412,5.4,5.622,7.854c.871.965,1.973,2.032,3.424,2a4.7,4.7,0,0,0,2.151-.713,22.306,22.306,0,0,0,9.976-28.952c-1.836-4.455-4.9-8.723-4.929-13.43,0-3.735,1.9-7.3,2.233-11.02.409-4.521-2.233-11.7-7.625-13.67C670.522,191.592,667.565,193.073,665.96,195.315Z" transform="translate(-286.178 -87.635)" opacity="0.1"/>
    <path id="Path_3634" data-name="Path 3634" d="M707.566,464.55c-6.333.336-12.293,3.094-17.838,6.211s-10.913,6.649-16.878,8.861" transform="translate(-292.701 -198.105)" opacity="0.1"/>
    <path id="Path_3635" data-name="Path 3635" d="M704.358,489.74a25.991,25.991,0,0,0-16.44,8.094c-1.54,1.649-2.867,3.5-4.473,5.078a19.812,19.812,0,0,1-8.815,5.054" transform="translate(-293.426 -208.193)" opacity="0.1"/>
    <path id="Path_3636" data-name="Path 3636" d="M702.338,508.91a28.683,28.683,0,0,0-13.223,8.07c-.972,1.061-1.854,2.194-2.826,3.256-5.243,5.7-12.648,8.717-19.8,11.577" transform="translate(-290.108 -215.869)" opacity="0.1"/>
    <path id="Path_3637" data-name="Path 3637" d="M708.8,242.853a133.111,133.111,0,0,0,1.3,15.3c.592,3.6,1.422,6.835,2.612,8.268,3.484,4.2-16.973,9.8-16.973,9.8l-12.08-9.473s9.574-8.921,5.113-17.621S708.8,242.853,708.8,242.853Z" transform="translate(-297.106 -109.201)" fill="#cc818c"/>
    <path id="Path_3638" data-name="Path 3638" d="M658.79,394.555H707.1c-1.345-3.693-2.239-6.385-2.239-6.385l-45.7,2.638Z" transform="translate(-286.97 -167.518)" opacity="0.1"/>
    <path id="Path_3639" data-name="Path 3639" d="M647.051,347.249h51.654a18.324,18.324,0,0,1,2.068-13.861,30.594,30.594,0,0,1,5.409-7.1l.355-.33,18.033-4.041.972-.216s.148-33.185-11.464-37.741a67.728,67.728,0,0,1-18.573-10.714l-15.954,4.988-11.754-6c-3.774,4.107-13.786,2.494-13.786,2.494-16.393,1.907-16.393,14.389-16.393,14.389s9.574,22.609,10.3,22.609S647.051,347.249,647.051,347.249Z" transform="translate(-278.342 -121.094)" fill="#264653"/>
    <path id="Path_3640" data-name="Path 3640" d="M673.927,357.823s-10.533-2.362-14.117-6.493" transform="translate(-287.386 -152.766)" opacity="0.1"/>
    <path id="Path_3641" data-name="Path 3641" d="M764.886,341.51,752.67,351.642a21.293,21.293,0,0,0,.4,2.4l.355-.33,18.033-4.041Z" transform="translate(-325.233 -148.833)" opacity="0.1"/>
    <path id="Path_3642" data-name="Path 3642" d="M717.46,381.859s2.672,1.523,6.766,3.525h7.02a18.325,18.325,0,0,1,2.068-13.861l-12.376-4.053C725.15,371.433,717.46,381.859,717.46,381.859Z" transform="translate(-310.882 -159.229)" opacity="0.1"/>
    <path id="Path_3643" data-name="Path 3643" d="M634.885,293.76l-7.251,3.963-7.109,18.208s-7.4,19.965-6.677,25.253c0,0-2.607,12.482,2.032,14.683l12.086,5.54a1.116,1.116,0,0,0,1.276-.264,1.149,1.149,0,0,0,.175-1.307c-1.724-3.3-3.62-8.472-.592-11.313l-3.484-7.338,12.589-20.852,4.206-7.195Z" transform="translate(-268.355 -129.711)" fill="#264653"/>
    <path id="Path_3644" data-name="Path 3644" d="M677.025,351.831c.628,2.59,2.749,6.595,9.769,8.088l7.7,6.385,8.193,3.759,3.341,1.529,1.416-10.354-3.217-1.8-3.75-2.074s-8.46-15.51-21.855-8.993A3.009,3.009,0,0,0,677.025,351.831Z" transform="translate(-294.364 -150.941)" opacity="0.1"/>
    <path id="Path_3645" data-name="Path 3645" d="M677.773,350.385c.628,2.6,2.743,6.6,9.763,8.088l7.7,6.385,8.2,3.759,3.335,1.529,1.416-10.354-3.217-1.8-3.72-2.056s-8.466-15.51-21.861-8.963a3.009,3.009,0,0,0-1.617,3.411Z" transform="translate(-294.674 -150.375)" fill="#cc818c"/>
    <ellipse id="Ellipse_228" data-name="Ellipse 228" cx="18.715" cy="18.94" rx="18.715" ry="18.94" transform="translate(379.48 109.202)" opacity="0.1"/>
    <ellipse id="Ellipse_229" data-name="Ellipse 229" cx="18.715" cy="18.94" rx="18.715" ry="18.94" transform="translate(379.48 108.765)" fill="#cc818c"/>
    <path id="Path_3646" data-name="Path 3646" d="M719.008,287.716l-5.628-11.068s8.235-3.369,8.833-7.272,7.891,4.574,6.315,7.386S719.008,287.716,719.008,287.716Z" transform="translate(-309.22 -119.542)" opacity="0.1"/>
    <path id="Path_3647" data-name="Path 3647" d="M719.008,286.246l-5.628-11.068s8.235-3.369,8.833-7.273,7.891,4.581,6.315,7.386S719.008,286.246,719.008,286.246Z" transform="translate(-309.22 -118.954)" fill="#264653"/>
    <path id="Path_3648" data-name="Path 3648" d="M629.691,344.113l31.1,42.31s-11.464,6.313-27.252-4.988l-6.819-8.226L607.25,340Z" transform="translate(-265.964 -148.228)" fill="#f6f8fb"/>
    <path id="Path_3649" data-name="Path 3649" d="M634.3,377.949l2.832-.078s17.3-16.991,21.547-8.394S647.9,386.109,647.9,386.109l-4.568,2.494-5.954,1.8-3.809-5.174Z" transform="translate(-276.691 -159.06)" fill="#cc818c"/>
    <path id="Path_3650" data-name="Path 3650" d="M635.78,393.205a4.326,4.326,0,0,1,.071,2.962,1.2,1.2,0,0,1-.515.57,1.306,1.306,0,0,1-.592.084,5.928,5.928,0,0,1-3.9-1.954,18.059,18.059,0,0,1-2.53-3.705c-.77-1.361-1.57-2.866-1.3-4.413.308-1.685,1.777-2.854,3.217-3.8,2.867-1.918,2.962.318,3.59,2.788S635.123,390.711,635.78,393.205Z" transform="translate(-273.996 -165.137)" opacity="0.1"/>
    <path id="Path_3651" data-name="Path 3651" d="M635.049,393.205a4.359,4.359,0,0,1,.071,2.962,1.194,1.194,0,0,1-.515.57,1.32,1.32,0,0,1-.593.084,5.9,5.9,0,0,1-3.9-1.954,17.848,17.848,0,0,1-2.536-3.705c-.77-1.361-1.57-2.866-1.292-4.413.3-1.685,1.777-2.854,3.211-3.8,2.873-1.918,2.962.318,3.6,2.788S634.385,390.711,635.049,393.205Z" transform="translate(-273.697 -165.137)" fill="#264653"/>
    <path id="Path_3652" data-name="Path 3652" d="M623.85,316.286l1.446-2.476-1.262,4.6Z" transform="translate(-254.269 -125.666)" opacity="0.1"/>
    <path id="Path_3653" data-name="Path 3653" d="M721.19,377.054l3.335,1.529,1.416-10.354-3.217-1.8C724.946,369.008,723,373.774,721.19,377.054Z" transform="translate(-312.403 -158.812)" opacity="0.1"/>
    <path id="Path_3654" data-name="Path 3654" d="M733.234,362.558s-10.77.665-15.344-2.308" transform="translate(-311.058 -156.338)" opacity="0.1"/>
    <g id="Group_404" data-name="Group 404" transform="translate(374.983 152.01)" opacity="0.1">
      <path id="Path_3655" data-name="Path 3655" d="M738.229,335.53a30.649,30.649,0,0,1,5.409-7.1,14.383,14.383,0,0,1,1.594-.875l16.789-3.489.972-.216s.148-33.185-11.458-37.741a69.521,69.521,0,0,1-18.1-10.318l1.274-.4A67.549,67.549,0,0,0,753.276,286.1c11.612,4.55,11.458,37.741,11.458,37.741h-1.742l-17.18,3.327s-.74.726-.966.935a33.654,33.654,0,0,0-5.492,7.35,18.628,18.628,0,0,0-1.44,13.933h-1.777C734.7,344.134,736.185,339.271,738.229,335.53Z" transform="translate(-692.375 -274.365)"/>
      <path id="Path_3656" data-name="Path 3656" d="M664.13,277.924c.278-.042.545-.084.835-.114a29.68,29.68,0,0,0,3.555.294A31.936,31.936,0,0,1,664.13,277.924Z" transform="translate(-664.13 -275.334)"/>
      <path id="Path_3657" data-name="Path 3657" d="M698.388,279.693l-10.628-5.444a5.645,5.645,0,0,0,.592-.569l11.09,5.678Z" transform="translate(-673.761 -273.68)"/>
    </g>
    <path id="Path_3658" data-name="Path 3658" d="M751.253,340l7.109,8.813,1.452,23.934s1.884,12.183-11.9,9.245-29.728-12.015-29.728-12.015,7.7-10.426,3.483-14.389l19.734,6.463s3.335-.737.723-3.669-3.075-8.226-3.075-8.226Z" transform="translate(-311.18 -148.228)" fill="#264653"/>
    <path id="Path_3659" data-name="Path 3659" d="M779.42,382.17l3.916,4.551A5.693,5.693,0,0,1,779.42,382.17Z" transform="translate(-336.136 -165.116)" opacity="0.1"/>
    <path id="Path_3660" data-name="Path 3660" d="M736.99,360.8l6.1,7.926-3.045.737Z" transform="translate(-300.382 -144.483)" opacity="0.1"/>
    <path id="Path_3661" data-name="Path 3661" d="M665.368,201.177a6.391,6.391,0,0,1,.652-5.162,40.946,40.946,0,0,0,2.518-4.73c.894-2.506.622-5.342,1.6-7.794,1.724-4.347,6.623-6.289,11.013-7.794a7.324,7.324,0,0,1,4-.552c1.777.426,2.932,2.056,4.384,3.154,5.96,4.5,15.652-.456,21.416,4.3,2.2,1.8,3.276,4.742,3.608,7.6a67.906,67.906,0,0,1-.036,8.645c-.095,5.048.841,10.57,4.574,13.915,1.125,1.007,2.453,1.763,3.555,2.806a4.938,4.938,0,0,1,1.777,4.011,14.049,14.049,0,0,1-.592,2.038c-.741,2.632.367,5.4,1.718,7.794,4.029,7.057,11.132,12.872,19.183,13.034-.539,4.113-4.74,6.5-8.5,8.184-4.739,2.152-9.787,4.263-15.006,3.993s-10.664-3.651-11.576-8.855c-.314-1.8-.272-3.963-1.777-4.9-.924-.57-2.121-.426-3.116-.851-1.44-.6-2.151-2.236-2.624-3.741a34.037,34.037,0,0,1-1.546-9.593c-.065-3.861.438-8.076-1.724-11.253-2-2.944-5.557-4.437-7.868-7.141-2.133-2.506-4.449-5.528-7.944-6C678.224,201.609,668.223,208.258,665.368,201.177Z" transform="translate(-289.526 -82.166)" opacity="0.1"/>
    <path id="Path_3662" data-name="Path 3662" d="M665.368,199.707a6.391,6.391,0,0,1,.652-5.162,40.946,40.946,0,0,0,2.518-4.73c.894-2.506.622-5.342,1.6-7.794,1.724-4.353,6.623-6.3,11.013-7.794a7.324,7.324,0,0,1,4-.552c1.777.426,2.932,2.056,4.384,3.154,5.96,4.5,15.652-.456,21.416,4.3,2.2,1.8,3.276,4.742,3.608,7.608a67.808,67.808,0,0,1-.036,8.639c-.095,5.048.841,10.57,4.574,13.915,1.125,1.007,2.453,1.763,3.555,2.806a4.938,4.938,0,0,1,1.777,4.011,14.05,14.05,0,0,1-.592,2.038c-.741,2.632.367,5.4,1.718,7.794,4.04,7.033,11.114,12.866,19.165,13.028-.539,4.113-4.74,6.5-8.5,8.19-4.739,2.146-9.787,4.257-15.006,3.987S710.552,249.5,709.64,244.3c-.314-1.8-.273-3.963-1.777-4.9-.924-.57-2.121-.426-3.116-.851-1.44-.6-2.151-2.236-2.625-3.741a34,34,0,0,1-1.546-9.593c-.065-3.861.438-8.076-1.724-11.253-2-2.944-5.557-4.437-7.867-7.141-2.133-2.506-4.449-5.528-7.945-6C678.224,200.139,668.223,206.8,665.368,199.707Z" transform="translate(-289.526 -81.578)" fill="#585268"/>
    <path id="Path_3663" data-name="Path 3663" d="M685.46,286.71l10.729-8.813s-7.346-4.029-8.223-7.464-6.754,1.631-6.155,4.712S685.46,286.71,685.46,286.71Z" transform="translate(-296.335 -119.909)" opacity="0.1"/>
    <path id="Path_3664" data-name="Path 3664" d="M686.194,284.5l10.729-8.807s-7.346-4.029-8.187-7.464-6.754,1.631-6.155,4.712S686.194,284.5,686.194,284.5Z" transform="translate(-296.649 -119.028)" fill="#264653"/>
    <ellipse id="Ellipse_230" data-name="Ellipse 230" cx="0.853" cy="0.863" rx="0.853" ry="0.863" transform="translate(399.842 163.179)" opacity="0.1"/>
    <ellipse id="Ellipse_231" data-name="Ellipse 231" cx="0.853" cy="0.863" rx="0.853" ry="0.863" transform="translate(399.842 167.976)" opacity="0.1"/>
    <ellipse id="Ellipse_232" data-name="Ellipse 232" cx="0.853" cy="0.863" rx="0.853" ry="0.863" transform="translate(399.842 172.766)" opacity="0.1"/>
    <g id="Group_405" data-name="Group 405" transform="translate(375.669 98.513)" opacity="0.1">
      <path id="Path_3665" data-name="Path 3665" d="M672.124,191.824c.847-2.356.663-5,1.457-7.374a8.086,8.086,0,0,0-.906,1.691c-.983,2.476-.7,5.312-1.606,7.794l-.059.144A13.774,13.774,0,0,0,672.124,191.824Z" transform="translate(-667.62 -184.45)"/>
      <path id="Path_3666" data-name="Path 3666" d="M737.476,259.987c-4.74,2.146-9.787,4.257-15.006,3.987s-10.664-3.651-11.576-8.849c-.314-1.8-.273-3.969-1.777-4.9-.924-.57-2.121-.426-3.116-.851-1.44-.6-2.151-2.236-2.625-3.741a34.011,34.011,0,0,1-1.546-9.593c-.065-3.855.444-8.07-1.718-11.253-2.008-2.944-5.563-4.431-7.873-7.141-2.133-2.5-4.449-5.528-7.945-6-4.793-.66-14.811,6-17.643-1.091a5.639,5.639,0,0,1,.184-4.095c-.207.354-.409.708-.592,1.067a6.417,6.417,0,0,0-.646,5.168c2.85,7.075,12.85.426,17.642,1.091,3.5.48,5.812,3.507,7.945,6,2.31,2.71,5.865,4.2,7.867,7.147,2.168,3.178,1.659,7.392,1.724,11.247a34,34,0,0,0,1.546,9.593c.474,1.511,1.185,3.13,2.624,3.741,1,.426,2.192.288,3.116.851,1.529.935,1.487,3.124,1.777,4.9.924,5.2,6.363,8.579,11.576,8.849s10.237-1.835,15.006-3.987c3.436-1.547,7.263-3.687,8.294-7.195C743.069,257.211,740.154,258.782,737.476,259.987Z" transform="translate(-665.288 -193.264)"/>
    </g>
    <path id="Path_3667" data-name="Path 3667" d="M885.756,307.192c-12.542-7.3-17.281-9.1-17.3-9.1l-.261-.186a10.542,10.542,0,0,1-3.158-4.041,8.567,8.567,0,0,1,0-.869.4.4,0,0,0,0,.084c.2-3.867,2.915-7.386,5.492-10.456l6.594-7.848a7.744,7.744,0,0,0,1.7-2.722A6.345,6.345,0,0,0,879,270.38V269.7c-.036-1.948-.089-3.9-.16-5.851-.059-1.7-.492-3.849-2.174-4.2-.877-.18-2.038.138-2.5-.6a1.473,1.473,0,0,1-.113-1.013.339.339,0,0,0,0,.084v-.1a22.824,22.824,0,0,0,.622-4.011,5.528,5.528,0,0,0-.273-2.032c-.972-2.824-4.331-3.987-7.3-4.521s-6.3-.989-8.158-3.339a24.4,24.4,0,0,0-1.623-2.26,6.374,6.374,0,0,0-3.033-1.517,16.993,16.993,0,0,0-11.037.971c-1.434.648-2.873,1.523-4.449,1.427s-3.033-1.247-4.645-1.523c-2.607-.45-5.1,1.487-6.386,3.783a9.338,9.338,0,0,0-1.185,4.461v.264h0a6.569,6.569,0,0,0,1.694,4.557c1.125,1.2,2.8,1.99,3.264,3.543.19.629.142,1.313.314,1.955a1.756,1.756,0,0,0,.071.234l-.083.114a19.939,19.939,0,0,0-4.147,12.195,20.214,20.214,0,0,0,14.052,19.185c0,.2,0,.4,0,.6a8.678,8.678,0,0,1-2.725,6.715L821.258,306s-10.711-1.289-14.574,14.551a27.325,27.325,0,0,0-.664,8.034c.142,2.4-.184,6.595-2.962,12.033-4.39,8.705-3.389,28.688,5.593,30.667,8.478,1.871,11.8,1.091,12.145,1v.348c-.142,3.753-1.487,36.092-6.374,40-1.351,1.085-1.1,1.8,0,2.308,0,0,0,.21-.03.6-.148,2.4-.9,11.391-4.147,16.5-3.8,5.935-3.4,40.169-3.4,40.169L804.256,492.4s1.594,12.465,0,14.641c-1.428,1.936-3.324,48.047-3.721,58.048h-.166a4.8,4.8,0,0,0-3.839,2.4c-2.1,3.447-9.443,9.821-9.443,9.821-1.594,2.29-7.488,4.485-10.6,5.516a6.568,6.568,0,0,0-1.185.528,6.366,6.366,0,0,0-2.678,2.854,3.1,3.1,0,0,0-.284,2.4c.794,1.972,17.364,3.363,21.559,1.379,3.294-1.553,16.351-3.6,21.772-4.4a4.494,4.494,0,0,0,3.874-3.921,2.607,2.607,0,0,0-.5-1.961h0c-1.037-1.3-1.564-4.856-1.777-7.195a4.8,4.8,0,0,0,1.22-.731,53.255,53.255,0,0,1,2.962-21.17c3.993-10.684,5.19-30.469,4.194-43.329,0,0,12.174-53.024,21.76-57.97h0c.148.192,4.8,6.229,5.391,24.929.593,18.994,7.382,31.458,7.382,31.458s-3,32.249,0,44.318l-3.916,19.036c-.29-.246-.474-.438-.474-.438s.118.527.278,1.373l-.083.408.172.036c.444,2.4,1.1,6.529.83,8.993-.154,1.385-.539,3.286-.8,5.15-.415,2.932-.527,5.774,1,6.4,2.5,1.019,17.18,2.4,19.669-.863a4.716,4.716,0,0,0,.723-4.887,4.967,4.967,0,0,0-.723-1.247s-3.9-6.445-2.8-10.99a3.378,3.378,0,0,0-.468-2.608,135.567,135.567,0,0,1,3.359-21.32c2.5-9.521,7.767-30.4,3.892-44.12h0q-.219-.809-.5-1.583a59.932,59.932,0,0,1-2.2-23.149,47.729,47.729,0,0,1,0-20.181c2.4-11.08,4.076-21.961,4.076-21.961s1.321-14.641.166-23.616a5.941,5.941,0,0,0-.077-.6l.628-.144s-3.395-15.234-4.591-24.929c-.284-2.29-.652-5.186-1.055-8.28a20.677,20.677,0,0,0,3.252-.821c10.776-3.759,14.171-37.771,14.171-37.771V331.1S898.333,314.512,885.756,307.192ZM805.446,569.936c-.332-.168-.527-.282-.527-.282h0Z" transform="translate(-333.198 -108.118)" fill="url(#linear-gradient-3)"/>
    <path id="Path_3668" data-name="Path 3668" d="M899.258,615.128c4.674,13.6-.782,35.685-3.318,45.565a139.311,139.311,0,0,0-3.312,21.692,44.616,44.616,0,0,1-17.145-.4l4.094-20.307c-2.927-12.027,0-44.168,0-44.168s-6.623-12.423-7.21-31.35c-.593-18.628-5.113-24.653-5.255-24.839h0c-9.349,4.928-21.233,57.772-21.233,57.772.972,12.812-.2,32.531-4.094,43.167a53.957,53.957,0,0,0-2.921,21.092c-1.362,1.2-3.258,1.367-5.332,1.031-5.563-.911-12.234-5.761-12.234-5.761s2.139-57.556,3.7-59.739,0-14.593,0-14.593l2.53-20.109s-.391-34.114,3.312-40.025c3.2-5.108,3.934-14.089,4.076-16.445v-.6l5.64-6.835s54.551-4.143,58.65,0c1,1.013,1.623,3.327,1.991,6.235,1.125,8.945-.166,23.532-.166,23.532s-1.635,10.846-3.975,21.883a48.6,48.6,0,0,0,0,20.115A60.9,60.9,0,0,0,899.258,615.128Z" transform="translate(-353.205 -219.685)" fill="#65617d"/>
    <path id="Path_3669" data-name="Path 3669" d="M932.979,807.625c-2.435,3.255-16.754,1.877-19.195.863-1.487-.6-1.375-3.459-.972-6.379.255-1.853.628-3.747.782-5.126.385-3.549-1.185-10.75-1.185-10.75s3.211,3.453,3.987,0a3.734,3.734,0,0,1,2.784-2.674,7.2,7.2,0,0,1,5.059.318c2.53,1.115,6.748,3.483,6,6.685-1.072,4.527,2.725,10.954,2.725,10.954a5,5,0,0,1,.711,1.235A4.775,4.775,0,0,1,932.979,807.625Z" transform="translate(-390.339 -325.728)" fill="#a27772"/>
    <path id="Path_3670" data-name="Path 3670" d="M933.076,820.226c-2.435,3.256-16.754,1.877-19.195.863-1.487-.6-1.374-3.459-.972-6.379,1.54.731,4.147,1.337,8.513.929a23.73,23.73,0,0,1,3.063-.1,70.39,70.39,0,0,0,9.3-.192A4.776,4.776,0,0,1,933.076,820.226Z" transform="translate(-390.436 -338.329)" opacity="0.1"/>
    <path id="Path_3671" data-name="Path 3671" d="M854.286,645.159c.972,12.812-.2,32.531-4.094,43.167a53.952,53.952,0,0,0-2.921,21.092c-1.362,1.2-3.258,1.367-5.332,1.031,1.185-8.316,6.185-44.144,9.39-72.455,3.655-32.237,20.735-54.415,20.735-54.415l3.407,3.8C866.17,592.315,854.286,645.159,854.286,645.159Z" transform="translate(-361.617 -245.772)" opacity="0.1"/>
    <path id="Path_3672" data-name="Path 3672" d="M909.944,324.848l-2.37,11.829-11.653,19.815-14.366-6.211s-19.55-20.7-7.257-23.658a10.815,10.815,0,0,0,4.076-1.835,8.573,8.573,0,0,0,3.181-7.135,22.09,22.09,0,0,0-1.978-8.478l25.131-7.986a41.264,41.264,0,0,0-1.777,10.3c-.2,6.931,2.37,10.342,4.437,11.991A7.515,7.515,0,0,0,909.944,324.848Z" transform="translate(-373.151 -132.687)" fill="#fbbebe"/>
    <path id="Path_3673" data-name="Path 3673" d="M911.107,301.19a41.261,41.261,0,0,0-1.777,10.3,19.3,19.3,0,0,1-1.463,1.577A19.712,19.712,0,0,1,888,317.654a22.085,22.085,0,0,0-2-8.478Z" transform="translate(-379.575 -132.687)" opacity="0.1"/>
    <path id="Path_3674" data-name="Path 3674" d="M905.9,282.329a19.877,19.877,0,1,1-19.874-20.109,19.661,19.661,0,0,1,14.079,5.862A20.143,20.143,0,0,1,905.9,282.329Z" transform="translate(-371.484 -117.081)" fill="#fbbebe"/>
    <path id="Path_3675" data-name="Path 3675" d="M909.944,339.725l-2.37,11.829-11.653,19.815-14.366-6.211S862,344.455,874.3,341.5a10.815,10.815,0,0,0,4.076-1.835c-2.216,6.163,6.931,18.988,6.931,18.988,1.066,1.589,3.507.6,3.507.6,5.895-.905,16.742-18.058,18.513-20.912A7.514,7.514,0,0,0,909.944,339.725Z" transform="translate(-373.151 -147.564)" opacity="0.1"/>
    <path id="Path_3676" data-name="Path 3676" d="M910.634,526.519c-3.46.8-22.6,5.084-29.858,4.011-7.986-1.2-23.513-1.966-23.513-1.966s-9.888.54-12.933-.869v-.6l5.64-6.835s54.551-4.143,58.65,0C909.645,521.3,910.267,523.612,910.634,526.519Z" transform="translate(-362.591 -219.677)" opacity="0.1"/>
    <path id="Path_3677" data-name="Path 3677" d="M865.416,359.37s-10.279-14.389-6.4-20.025l-17.364,7.195s-10.45-1.283-14.218,14.5a27.784,27.784,0,0,0-.646,8.01,23.935,23.935,0,0,1-2.862,11.991c-4.283,8.675-3.312,28.592,5.456,30.577s11.878.983,11.878.983-1.185,36.081-6.232,40.223,12.915,3.154,12.915,3.154,15.527.791,23.519,1.973,30.392-4.143,30.392-4.143-3.312-15.18-4.485-24.839-3.9-30.235-3.9-30.235l19.87-27.243s3.507-16.463-8.768-23.76-16.89-9.083-16.89-9.083-12.334,20.325-18.762,21.308C868.923,359.958,866.482,360.953,865.416,359.37Z" transform="translate(-353.268 -147.688)" fill="#264653"/>
    <path id="Path_3678" data-name="Path 3678" d="M854.9,382.74s-.19,6.511.977,9.071,5.456,16.787,5.456,16.787H851.59s5.261-5.72,4.875-8.484S854.9,382.74,854.9,382.74Z" transform="translate(-365.55 -165.344)" opacity="0.1"/>
    <path id="Path_3679" data-name="Path 3679" d="M884.5,446.173s-21.517-5.324-23.519-9.856-7.53-14.683-7.53-14.683l2.269-3.094,10.462,8.31S878.622,436.9,884.5,437.893,884.5,446.173,884.5,446.173Z" transform="translate(-366.308 -179.68)" fill="#fbbebe"/>
    <path id="Path_3680" data-name="Path 3680" d="M884.5,446.173s-21.517-5.324-23.519-9.856-7.53-14.683-7.53-14.683l2.269-3.094,10.462,8.31S878.622,436.9,884.5,437.893,884.5,446.173,884.5,446.173Z" transform="translate(-366.308 -179.68)" opacity="0.05"/>
    <path id="Path_3681" data-name="Path 3681" d="M910.519,421.792V433.6h-1.872a54.051,54.051,0,0,0-26.5,6.948l-3.509,1.967-.942.534-6.043-13.79,5.652-5.126h.29c1.38.138,7.358.642,9.893-.222,2.405-.827,5.391-3.447,12.477-1.619,3.49.905,6.475,4.862,9.858,3.627Z" transform="translate(-373.726 -180.93)" fill="#fbbebe"/>
    <path id="Path_3682" data-name="Path 3682" d="M939.814,377.048l3.892,4.437v10.75s-3.312,33.91-13.827,37.657-29.3-2.17-29.3-2.17-4.852-13.01-2.583-13.79,20.054-5.54,20.054-5.54-.249-19.893,3.643-25.81c0,0-2.53-18.532,6.238-18.928S939.814,377.048,939.814,377.048Z" transform="translate(-384.217 -157.698)" opacity="0.1"/>
    <path id="Path_3683" data-name="Path 3683" d="M940.816,377.048l3.9,4.437v10.75s-3.312,33.91-13.833,37.657-29.3-2.17-29.3-2.17-4.852-13.01-2.577-13.79,20.054-5.54,20.054-5.54-.255-19.893,3.643-25.81c0,0-2.535-18.532,6.232-18.928S940.816,377.048,940.816,377.048Z" transform="translate(-384.627 -157.698)" fill="#264653"/>
    <path id="Path_3684" data-name="Path 3684" d="M903.247,290.818a8.016,8.016,0,0,0-.444-3.843,2.886,2.886,0,0,0-3.092-1.8c-1.665.4-2.37,2.59-4.017,3.118a3.2,3.2,0,0,1-3.555-1.847,9.3,9.3,0,0,1-.675-4.293v-4.94c0-1.8-.06-3.729-1.149-5.138-1.357-1.751-4.55-2.518-6.683-2.446a5.634,5.634,0,0,0-3.815,1.553,4.877,4.877,0,0,1-4.011,1.445,3.467,3.467,0,0,1-2.8-2.446v-.06a19.755,19.755,0,0,1,19.384-7.706,19.954,19.954,0,0,1,15.534,14.037,20.272,20.272,0,0,1-5.379,20.361,54.878,54.878,0,0,0,.7-6Z" transform="translate(-374.28 -117.033)" opacity="0.1"/>
    <path id="Path_3685" data-name="Path 3685" d="M872.262,263.9a3.5,3.5,0,0,1-2.8-2.452c-.16-.635-.119-1.313-.3-1.943-.456-1.553-2.091-2.356-3.187-3.537-2.192-2.356-2.05-6.229-.5-9.065,1.256-2.284,3.685-4.2,6.232-3.765,1.576.276,2.962,1.409,4.538,1.517s2.962-.773,4.343-1.421a16.184,16.184,0,0,1,10.794-.971,6.194,6.194,0,0,1,2.962,1.517,26.221,26.221,0,0,1,1.582,2.248c1.813,2.338,5.065,2.8,7.962,3.327s6.173,1.691,7.109,4.509c.634,1.871,0,3.9-.344,5.84a1.782,1.782,0,0,0,.077,1.2c.456.755,1.587.438,2.441.6,1.641.354,2.062,2.494,2.127,4.2q.1,2.914.154,5.834a7.516,7.516,0,0,1-.172,2.158,7.635,7.635,0,0,1-1.653,2.716l-6.434,7.824c-2.855,3.465-5.883,7.506-5.332,11.991-1.351.6-2.962-.57-3.4-2a9.063,9.063,0,0,1,.213-4.443,55.111,55.111,0,0,0,1.031-7.7,7.987,7.987,0,0,0-.444-3.837,2.886,2.886,0,0,0-3.093-1.8c-1.671.4-2.37,2.59-4.017,3.118A3.2,3.2,0,0,1,888.6,277.7a9.274,9.274,0,0,1-.675-4.287v-4.946c0-1.8-.059-3.729-1.149-5.138-1.357-1.751-4.55-2.518-6.683-2.446a5.634,5.634,0,0,0-3.809,1.553A4.885,4.885,0,0,1,872.262,263.9Z" transform="translate(-370.736 -108.883)" fill="#7c5c5c"/>
    <path id="Path_3686" data-name="Path 3686" d="M885.3,381.92l6.1,25.367S896.212,407.257,885.3,381.92Z" transform="translate(-379.289 -165.016)" opacity="0.1"/>
    <path id="Path_3687" data-name="Path 3687" d="M916.643,374.85s-7.986,13.238-4.87,26.931l1.487.108S910.607,395.552,916.643,374.85Z" transform="translate(-389.785 -162.184)" opacity="0.1"/>
    <path id="Path_3688" data-name="Path 3688" d="M929,499.349s9.81-3.285,10.521,4.335C939.545,503.684,937.7,498.462,929,499.349Z" transform="translate(-397.1 -211.759)" opacity="0.1"/>
    <path id="Path_3689" data-name="Path 3689" d="M869.651,426.81s-1.949,13.79,1.558,19.323a42.274,42.274,0,0,1-17.145,2.368L852.88,426.81Z" transform="translate(-366.076 -182.992)" opacity="0.1"/>
    <path id="Path_3690" data-name="Path 3690" d="M878.635,444.172l-.942.534-6.043-13.79,5.652-5.126h.29C877.5,426.474,875.927,438.326,878.635,444.172Z" transform="translate(-373.726 -182.584)" opacity="0.1"/>
    <path id="Path_3691" data-name="Path 3691" d="M865.776,425.83s-1.949,13.79,1.558,19.317a42.15,42.15,0,0,1-17.145,2.368L843.37,425.83Z" transform="translate(-362.2 -182.6)" fill="#264653"/>
    <path id="Path_3692" data-name="Path 3692" d="M820.967,798.894a4.442,4.442,0,0,1-3.786,3.909c-5.29.8-18.033,2.836-21.25,4.389-4.094,1.972-20.261.6-21.043-1.379a3.163,3.163,0,0,1,.278-2.4,6.29,6.29,0,0,1,2.613-2.842,6.878,6.878,0,0,1,1.185-.528c3.045-1.025,8.8-3.207,10.35-5.5,0,0,7.174-6.349,9.218-9.779a4.674,4.674,0,0,1,3.744-2.362c1.706-.078,3.608.791,4.39,4.574,0,0,9.343,5.4,11.849.665,0,0,.391,7.267,1.943,9.257h0A2.661,2.661,0,0,1,820.967,798.894Z" transform="translate(-334.24 -325.391)" fill="#a27772"/>
    <path id="Path_3693" data-name="Path 3693" d="M820.967,808.58a4.442,4.442,0,0,1-3.786,3.909c-5.29.8-18.033,2.836-21.25,4.389-4.094,1.972-20.261.6-21.043-1.379a3.163,3.163,0,0,1,.278-2.4,6.291,6.291,0,0,1,2.613-2.842c2.636,1.8,8.489,3.5,21.363,1.469,12.281-1.942,18.365-3.843,21.327-5.138h0a2.662,2.662,0,0,1,.5,1.99Z" transform="translate(-334.24 -335.077)" opacity="0.1"/>
    <g id="Group_406" data-name="Group 406" transform="translate(493.561 142.189)" opacity="0.1">
      <path id="Path_3694" data-name="Path 3694" d="M942.442,269.094V269a17.858,17.858,0,0,0,.592-4.479,29.914,29.914,0,0,1-.592,3.6A2.2,2.2,0,0,0,942.442,269.094Z" transform="translate(-896.117 -260.191)"/>
      <path id="Path_3695" data-name="Path 3695" d="M899.241,284.657a5.759,5.759,0,0,1,.48,2.254,6.869,6.869,0,0,0-.48-3.142,2.875,2.875,0,0,0-3.087-1.8c-1.671.4-2.37,2.59-4.022,3.118a3.208,3.208,0,0,1-3.555-1.847,9.222,9.222,0,0,1-.675-4.293v-4.94c0-1.8-.059-3.729-1.149-5.138-1.363-1.757-4.55-2.518-6.683-2.452a5.641,5.641,0,0,0-3.815,1.559,4.887,4.887,0,0,1-4.017,1.445,3.484,3.484,0,0,1-2.8-2.446c-.16-.636-.119-1.319-.3-1.949-.456-1.547-2.091-2.356-3.187-3.531a6.5,6.5,0,0,1-1.641-4.2,6.773,6.773,0,0,0,1.641,5.054c1.1,1.2,2.731,1.984,3.187,3.531.184.6.142,1.313.3,1.948a3.484,3.484,0,0,0,2.8,2.446,4.888,4.888,0,0,0,4.017-1.445,5.64,5.64,0,0,1,3.815-1.559c2.133-.066,5.332.7,6.683,2.452,1.09,1.409,1.143,3.345,1.149,5.138v4.94a9.173,9.173,0,0,0,.675,4.287,3.216,3.216,0,0,0,3.555,1.853c1.635-.528,2.37-2.722,4.022-3.118A2.987,2.987,0,0,1,899.241,284.657Z" transform="translate(-864.285 -257.3)"/>
      <path id="Path_3696" data-name="Path 3696" d="M941.075,293.027a7.6,7.6,0,0,1-1.659,2.71l-6.434,7.824c-2.707,3.291-5.569,7.1-5.332,11.307.2-3.855,2.85-7.362,5.332-10.42l6.434-7.824a5.748,5.748,0,0,0,1.831-4.874A5.762,5.762,0,0,1,941.075,293.027Z" transform="translate(-890.106 -271.096)"/>
      <path id="Path_3697" data-name="Path 3697" d="M921.853,327.405a4.666,4.666,0,0,1-.2-1.055,5.386,5.386,0,0,0,.2,1.943c.438,1.427,2.044,2.608,3.4,2a8.529,8.529,0,0,1-.071-.863C923.832,329.971,922.268,328.808,921.853,327.405Z" transform="translate(-887.661 -284.952)"/>
    </g>
    <path id="Path_3698" data-name="Path 3698" d="M812.69,789.36s2.038,3.6,9.42.432" transform="translate(-349.696 -328.177)" opacity="0.1"/>
    <path id="Path_3699" data-name="Path 3699" d="M918,790.82s6.362,7.584,14.384,2.488" transform="translate(-392.617 -328.762)" opacity="0.1"/>
    <path id="Path_3700" data-name="Path 3700" d="M946.065,641.23s-4.5,2.842-4.639,4.467,2.322-1.2,2.322-1.2Z" transform="translate(-402.162 -268.858)" opacity="0.1"/>
    <path id="Path_3701" data-name="Path 3701" d="M946.706,677.59a9.339,9.339,0,0,1-5.539,2.188c-3.365.15-3.08,4.587-.883,3.256A55.316,55.316,0,0,0,946.706,677.59Z" transform="translate(-401.027 -283.418)" opacity="0.1"/>
    <path id="Path_3702" data-name="Path 3702" d="M951.01,682.34s-2.156,10.726-3.91,8.657" transform="translate(-404.477 -285.321)" opacity="0.1"/>
    <path id="Path_3703" data-name="Path 3703" d="M246.015,581.542s13.537,3.759,20.054-1.241,9.343-3.393,9.343-3.393,15.539-.869,16.819-4.586-5.96-17.219-5.96-17.219c-.515-1.2-1.268-2.722-1.605-2.722l.071-5.7h0l2.251-23.832c5.2-13.484.095-30.906.095-30.906l-.93-4.323a11.054,11.054,0,0,1,.883-7.195l9.437-19.185a28.844,28.844,0,0,1,1.777-3.681c.592-1.1,1.38-2.452,2.37-4.077.29-.468.592-.953.924-1.463,1.143-1.8,2.53-3.837,4.206-6.187,4.177-5.858,6.375-13.19,7.512-18.586l.5,1.691h.113l.136.03h.225l.243.042h.089l2.9,37.388c.178,14.581,5.468,22.651,5.468,22.651l-.729,32.189c1,7.752-1.185,18.088-2.186,22.213l-2.287,5.222a6.273,6.273,0,0,0-3.371,4.748c-.45,3.855-4.461,12.165-4.461,12.165-1.552,1.99-4.923,7.368-4.923,7.368s-1.588,5.192-.6,7.135,9.206,1.745,9.206,1.745c9.39,2.1,16.588-3,16.132-6.511s1.463-4.407,1.463-4.407c3.732-1.2,3.371-3.759,3.371-3.759a23.766,23.766,0,0,0-2.826-15.312l-.592,1.385a21.321,21.321,0,0,1,1.126-8.172l-.344.24-.107.066h-.036c.592-5.258,6.049-14.989,6.049-14.989,10.024-17.794,6.38-41.908,6.38-41.908l-1.552-7.518-.089-2.836a95.763,95.763,0,0,1,1.511-20.2c.539-2.95,1.1-6.511,1.523-10.438a93.15,93.15,0,0,1,5.142-20.486l.4-.072h.047c.545-.1,1.1-.192,1.653-.3h.107s.32-1.751.592-4.73c.16-1.9.29-4.311.29-7.081a80.544,80.544,0,0,0-3.738-24.647l.3-.438s.717-.983,2.026-2.686h0c2.405-3.094,6.149-7.794,10.764-13.094,8.264-9.539,5.835-19.185,5.835-19.185s-5.984-22.189-8.649-35.511a40.63,40.63,0,0,0-6.564-15.8,31.8,31.8,0,0,0,.83-6.4c.178-3.945.041-8.058-1.712-11.6s-5.486-6.343-9.384-5.87a3.548,3.548,0,0,1-1.682,0,2.569,2.569,0,0,1-1.108-.977c-2.281-3.184-2.429-7.464-1.718-11.325s2.168-7.554,2.82-11.427.355-8.172-2.079-11.241c-2.861-3.6-7.85-4.61-11.57-7.314-2.613-1.9-4.573-4.629-7.328-6.313s-5.332-1.043-8.324-.408c-5.03,1.073-9.811,1.565-14.568,3.753a38.823,38.823,0,0,0-12.7,9.347,12.215,12.215,0,0,0-2.832,4.521c-1.185,3.963,1.132,8.184.646,12.285-.344,2.908-2.038,5.438-3.383,8.034s-2.37,5.678-1.315,8.394c1.659,4.245,7.068,5.144,11,7.4a3.372,3.372,0,0,1,1.3,1.145c.972,1.715-1.013,3.5-2.263,5.018a7.6,7.6,0,0,0-1.481,3.046,10.833,10.833,0,0,0-6.44,7.866c-1.333,6.037.717,13.658,2.524,18.694-1.973,11.217.592,15.642,2.482,17.339a9.662,9.662,0,0,1,3.294,6.559v.21c.124,2.038.338,4.071.622,6.1h0c-.065-.474-.13-.977-.166-1.2-1.546,2.9-4.491,10.294-6.149,22.741a69.066,69.066,0,0,1-1.5,7.92A43.809,43.809,0,0,0,280.37,393.9l.3,4.035a1.246,1.246,0,0,1-.806-.27l2.079,3.855v6.505a24.237,24.237,0,0,1-1.576,8.579c-.148.4-.308.791-.48,1.2a7.05,7.05,0,0,0-.7,3.531c-4.473,6.937-14.728,45.811-14.728,45.811-5.563,12.746.456,20.984.456,20.984s2.915,35.487,3.46,37.322,1.754,23.466,1.754,23.466h0v1.721a3.946,3.946,0,0,0-1.013-.294c-4.876-.276-6.2,7.518-6.2,7.518L252.94,567.5s-4.556-.779-11.256,4.311S246.015,581.542,246.015,581.542Zm99.617-205.1-.03-.108-.272.162h0l-.113.066-.053.036h0l-4.6-16.422a27.583,27.583,0,0,1-.338-13.508l3.555-15.756h0v-3.789l11.3,30.469C355.8,361.7,349.091,371.648,345.632,376.444Z" transform="translate(-116.089 -104.136)" fill="url(#linear-gradient-4)"/>
    <path id="Path_3704" data-name="Path 3704" d="M402,557s-4.562,11.23-5.723,22c-.421,3.885-.966,7.4-1.5,10.312a95.343,95.343,0,0,0-1.457,19.947l.089,2.8,1.481,7.417s3.554,23.82-6.262,41.368c0,0-5.818,10.51-6,15.486l-3.94,1.541-7.962-2.26s3.845-13.951,2.595-23.73l.717-31.776s-5.172-7.95-5.35-22.339l-3.039-39.486Z" transform="translate(-167.494 -235.127)" fill="#fdc2cc"/>
    <path id="Path_3705" data-name="Path 3705" d="M330.314,547.62s-.978,15.4-8.5,26.008-9.123,15.216-9.123,15.216L303.424,607.8a10.976,10.976,0,0,0-.871,7.093l.912,4.269s5.012,17.207-.089,30.523l-2.417,25.72H286.824s-1.185-21.374-1.7-23.185-3.4-36.86-3.4-36.86-5.924-8.154-.45-20.738c0,0,12.352-47.094,15.658-46.279S330.314,547.62,330.314,547.62Z" transform="translate(-132.158 -231.371)" fill="#fdc2cc"/>
    <g id="Group_407" data-name="Group 407" transform="translate(167.367 316.249)" opacity="0.1">
      <path id="Path_3706" data-name="Path 3706" d="M316.186,619.193l-.906-4.269a10.908,10.908,0,0,1,.865-7.123l9.266-18.976s1.605-4.617,9.123-15.216c7.222-10.192,8.413-24.8,8.5-25.918l1.44-.072s-.978,15.4-8.5,26.008-9.123,15.216-9.123,15.216L317.578,607.8a10.975,10.975,0,0,0-.871,7.093l.912,4.269s5.012,17.207-.089,30.523l-2.417,25.72H313.68l2.417-25.72C321.2,636.37,316.186,619.193,316.186,619.193Z" transform="translate(-313.68 -547.62)"/>
    </g>
    <path id="Path_3707" data-name="Path 3707" d="M389.619,676.351c.178-4.976,6-15.486,6-15.486,9.846-17.566,6.262-41.369,6.262-41.369l-1.517-7.422-.089-2.8a95.348,95.348,0,0,1,1.457-19.947c.527-2.914,1.072-6.427,1.493-10.312,1.12-10.372,5.391-21.164,5.705-21.955L410.4,557s-4.562,11.23-5.723,22c-.421,3.885-.966,7.4-1.5,10.312a95.346,95.346,0,0,0-1.457,19.947l.089,2.8,1.481,7.417s3.555,23.82-6.262,41.368c0,0-5.818,10.51-6,15.486l-3.94,1.541-.829-.234Z" transform="translate(-175.894 -235.127)" opacity="0.1"/>
    <path id="Path_3708" data-name="Path 3708" d="M378,754.212a6.781,6.781,0,0,0,6.517-.816,21.529,21.529,0,0,0-.533,11.955c1.611,6.523-15.036-5.252-15.036-5.252l3.555-8.22S373.885,754.482,378,754.212Z" transform="translate(-168.839 -313.168)" fill="#d39999"/>
    <path id="Path_3709" data-name="Path 3709" d="M379.249,754.566a6.591,6.591,0,0,0,5.29-1.2,21.528,21.528,0,0,0-.533,11.955c1.611,6.523-15.036-5.252-15.036-5.252l3.555-8.22a5.076,5.076,0,0,0,4.058,2.314C377.5,754.272,378.378,754.4,379.249,754.566Z" transform="translate(-168.847 -313.156)" opacity="0.1"/>
    <path id="Path_3710" data-name="Path 3710" d="M289.32,454.193h6.955V414.257l-5.219-.947Z" transform="translate(-117.924 -165.511)" fill="#fdc2cc"/>
    <path id="Path_3711" data-name="Path 3711" d="M289.32,454.193h6.955V414.257l-5.219-.947Z" transform="translate(-117.924 -165.511)" opacity="0.05"/>
    <path id="Path_3712" data-name="Path 3712" d="M365.713,760.432a6.909,6.909,0,0,1,6.351,3.711l2.417,1.9,1.185-2.806a23.622,23.622,0,0,1,2.737,15.126s.355,2.53-3.312,3.711c0,0-1.878.905-1.434,4.347s-6.617,8.514-15.836,6.427c0,0-8.057.186-9.041-1.721s.628-6.973.628-6.973,3.312-5.312,4.828-7.273c0,0,3.94-8.214,4.39-11.991S363.385,758.345,365.713,760.432Z" transform="translate(-160.489 -316.306)" fill="#7e5659"/>
    <path id="Path_3713" data-name="Path 3713" d="M306.076,762.535l.071-5.63s-8,2.332-14.485-.306c0,0,.545,5.66-.355,6.433s3,8.058,3,8.058l4.354,4.617,7.488-2.758,2.032-6.475S306.61,762.535,306.076,762.535Z" transform="translate(-137.139 -315.059)" fill="#d39999"/>
    <path id="Path_3714" data-name="Path 3714" d="M306.076,762.535l.071-5.63s-8,2.332-14.485-.306c0,0,.545,5.66-.355,6.433s3,8.058,3,8.058l4.354,4.617,7.488-2.758,2.032-6.475S306.61,762.535,306.076,762.535Z" transform="translate(-137.139 -315.059)" opacity="0.1"/>
    <path id="Path_3715" data-name="Path 3715" d="M270.582,763.1s4.254.5,3.715,6,.225,0,.225,0,4.52,1.852,6.132,4.437,4.52-2.308,4.739-3.711,2.032-1.985,2.032-1.985,7.109,13.34,5.853,17.009-16.517,4.515-16.517,4.515-2.779-1.583-9.177,3.351-19.686,1.2-19.686,1.2-10.83-4.575-4.248-9.593,11.049-4.257,11.049-4.257l9.8-9.557S265.795,762.819,270.582,763.1Z" transform="translate(-116.905 -317.657)" fill="#7e5659"/>
    <path id="Path_3716" data-name="Path 3716" d="M347.342,236.37c2.707,1.661,4.633,4.359,7.2,6.235,3.649,2.668,8.549,3.663,11.357,7.225,2.37,3.034,2.678,7.273,2.038,11.1s-2.074,7.476-2.767,11.289-.551,8.04,1.689,11.182a2.515,2.515,0,0,0,1.084.965,3.515,3.515,0,0,0,1.653,0c3.827-.468,7.5,2.3,9.218,5.8s1.854,7.56,1.677,11.457a23.925,23.925,0,0,1-1.89,9.335c-2.37,4.892-7.3,7.914-12.163,10.228a93.567,93.567,0,0,1-9.71,3.969c-2.275.779-4.674,1.481-7.038,1.073-4.046-.707-6.914-4.431-10.753-5.888-3.146-1.2-6.635-.767-9.982-.468-2.855.252-6.12.246-8.087-1.865-2.524-2.71-1.386-7.081-.095-10.57a7.439,7.439,0,0,1-6.353-4.521,7.6,7.6,0,0,1,1.092-7.782c1.22-1.5,3.17-3.262,2.216-4.958a3.258,3.258,0,0,0-1.28-1.127c-3.857-2.23-9.171-3.124-10.794-7.308-1.043-2.692-.036-5.738,1.286-8.3s2.962-5.066,3.323-7.932c.474-4.053-1.777-8.22-.634-12.129a12.182,12.182,0,0,1,2.779-4.473,38.156,38.156,0,0,1,12.441-9.227c4.674-2.164,9.36-2.65,14.3-3.705C342.111,235.339,344.563,234.667,347.342,236.37Z" transform="translate(-142.865 -106.298)" fill="#865a61"/>
    <path id="Path_3717" data-name="Path 3717" d="M322.65,337.755s-11.333-.6-13.478,9.179,4.651,23.784,4.651,23.784Z" transform="translate(-144.305 -147.327)" fill="#fdc2cc"/>
    <path id="Path_3718" data-name="Path 3718" d="M322.65,337.755s-11.333-.6-13.478,9.179,4.651,23.784,4.651,23.784Z" transform="translate(-144.305 -147.327)" opacity="0.05"/>
    <path id="Path_3719" data-name="Path 3719" d="M320,351.022l4.3,3.441,20.042.905,12.512-8.693,12.725-22.1c-7.779-2.008-10.924-7.446-12.1-12.53a27.759,27.759,0,0,1-.249-10.468s-20.4-10.69-17.9,6a22.933,22.933,0,0,1,.19,6.2c-1.185,9.773-10.557,7.932-10.557,7.932l-3.6,5.612-4.117,13.79Z" transform="translate(-148.889 -131.491)" fill="#fdc2cc"/>
    <path id="Path_3720" data-name="Path 3720" d="M352.513,307.546a22.929,22.929,0,0,1,.19,6.2,17.906,17.906,0,0,0,17.956-1.7,27.756,27.756,0,0,1-.249-10.468S350.007,290.885,352.513,307.546Z" transform="translate(-162.053 -131.489)" opacity="0.1"/>
    <ellipse id="Ellipse_233" data-name="Ellipse 233" cx="18.075" cy="18.292" rx="18.075" ry="18.292" transform="translate(180.093 146.602)" fill="#fdc2cc"/>
    <path id="Path_3721" data-name="Path 3721" d="M331.218,363c.438,0,.871.066,1.3.108,2.37.24,12.269.779,17.909-6.037,6.309-7.626,14.71-17.045,15.054-17.429l8.549,2.614s-6.766-2.434-11.256,10.3a13.284,13.284,0,0,0,4.4,15.174,13.459,13.459,0,0,0,5.592,2.4.03.03,0,0,1,0,.03v5.588h0l-3.5,15.588a27.337,27.337,0,0,0,.332,13.34l5.332,19.071c-.806.564-33.887,23.334-55.984,7.608h0c.083-.683,2.814-23.065.918-34.018a76.509,76.509,0,0,1-.989-8.466v-.21a9.584,9.584,0,0,0-3.241-6.475c-1.991-1.8-4.686-6.6-2.02-19.269a46.952,46.952,0,0,1,2.962-9.131L324,336.84h0l6.831.138v.048c-.592.743-8.513,10.756-9.372,17.207C320.613,360.366,319.576,362.249,331.218,363Z" transform="translate(-145.835 -146.963)" fill="#264653"/>
    <path id="Path_3722" data-name="Path 3722" d="M403.254,348.673s6.683,5.8,9.307,18.958,8.472,35.019,8.472,35.019,2.37,9.539-5.729,18.957S401.82,438.4,401.82,438.4l-5.332,7.95a6.691,6.691,0,0,1-3.839,2.746c-2.429.647-6.161,1.115-9.4-.678a5.572,5.572,0,0,1-2.37-7l1.185-2.776s-10.978,7-11.931,3.136,12.767-7.728,12.767-7.728,11.333-1.931,13.626-7.362c0,0,12.168-15.822,11.215-21.254l-11.754-31.878s-14.7-1.967-9.686-18.676S403.254,348.673,403.254,348.673Z" transform="translate(-169.304 -150.397)" fill="#fdc2cc"/>
    <path id="Path_3723" data-name="Path 3723" d="M307.371,521.448s26.849,5.432,33.176,4.706l.681,2.3s10.19,2.308,33.229-1.391q2.257-.36,4.686-.809l.539-.1s.314-1.727.563-4.67c.551-6.685.746-19.629-3.9-32.879l-3.875-12.075s-23.946,14.527-39.8,13.19c-1.416-.12-2.82-.234-4.236-.282-3.252-.126-8.294,0-11.57-2.656l-6.872,1.2v19.785a23.957,23.957,0,0,1-1.552,8.465c-.148.4-.3.785-.474,1.2A6.363,6.363,0,0,0,307.371,521.448Z" transform="translate(-143.7 -202.903)" fill="#65617d"/>
    <path id="Path_3724" data-name="Path 3724" d="M364.58,552.319v6.157s11.73,2.656,38.454-2.3c0,0,.314-1.727.563-4.67C395.4,552.841,372.785,556.043,364.58,552.319Z" transform="translate(-167.058 -232.929)" opacity="0.1"/>
    <path id="Path_3725" data-name="Path 3725" d="M307.373,547.982s26.849,5.432,33.176,4.706l.681,2.3v-6.157c-3.057,1.283-24.882-4.041-32.791-6.037-.148.4-.3.785-.474,1.2A6.362,6.362,0,0,0,307.373,547.982Z" transform="translate(-143.702 -229.437)" opacity="0.1"/>
    <path id="Path_3726" data-name="Path 3726" d="M417.31,537.421l1.991,12.495q2.257-.36,4.686-.809c-.622-3.651-1.979-11.991-1.606-13.376l-2.506-2.17Z" transform="translate(-188.549 -225.741)" fill="#65617d"/>
    <path id="Path_3727" data-name="Path 3727" d="M417.78,536.971l1.991,12.5q2.257-.366,4.686-.809c-.622-3.651-1.979-11.991-1.605-13.376l-2.506-2.176Z" transform="translate(-188.741 -225.561)" opacity="0.1"/>
    <g id="Group_408" data-name="Group 408" transform="translate(172.006 273.609)" opacity="0.05">
      <path id="Path_3728" data-name="Path 3728" d="M337.032,496.558c-1.41-.12-2.82-.234-4.236-.282-3.163-.12-7.992,0-11.286-2.452l1.149-.2c3.294,2.644,8.294,2.53,11.57,2.656,1.416.048,2.82.162,4.236.282.462.042.936.066,1.416.078A26.287,26.287,0,0,1,337.032,496.558Z" transform="translate(-321.51 -483.356)"/>
      <path id="Path_3729" data-name="Path 3729" d="M402.611,527.048q2.257-.36,4.686-.8l.545-.1s.314-1.727.557-4.671c.557-6.685.752-19.629-3.9-32.879L400.846,477.2c.776-.444,1.185-.7,1.185-.7l3.874,12.075c4.651,13.25,4.455,26.194,3.9,32.879-.249,2.944-.563,4.67-.563,4.67l-.539.1q-2.423.444-4.686.8a145.856,145.856,0,0,1-24.141,2.1A150.491,150.491,0,0,0,402.611,527.048Z" transform="translate(-345.3 -476.5)"/>
      <path id="Path_3730" data-name="Path 3730" d="M360.47,559.3v.066h-.77Q360.138,559.336,360.47,559.3Z" transform="translate(-337.075 -509.658)"/>
    </g>
    <ellipse id="Ellipse_234" data-name="Ellipse 234" cx="1.013" cy="2.11" rx="1.013" ry="2.11" transform="translate(231.083 309.792)" fill="#d39999"/>
    <path id="Path_3731" data-name="Path 3731" d="M311.86,454.093c1.635-12.291,4.52-19.593,6.043-22.453.059.39.213,1.655.284,2.044.308,1.8.036,4.065.13,6.349L316.8,467.828l2.032,8.693c1.908,6.883-5.16,1.445-5.16,1.445-1.463,3.261-4.147,2.9-4.147,2.9l-.367-4.988a43.579,43.579,0,0,1,1.232-13.987,67.361,67.361,0,0,0,1.469-7.8Z" transform="translate(-144.421 -184.926)" fill="#fdc2cc"/>
    <path id="Path_3732" data-name="Path 3732" d="M311.86,454.093c1.635-12.291,4.52-19.593,6.043-22.453.059.39.213,1.655.284,2.044.308,1.8.036,4.065.13,6.349L316.8,467.828l2.032,8.693c1.908,6.883-5.16,1.445-5.16,1.445-1.463,3.261-4.147,2.9-4.147,2.9l-.367-4.988a43.579,43.579,0,0,1,1.232-13.987,67.361,67.361,0,0,0,1.469-7.8Z" transform="translate(-144.421 -184.926)" opacity="0.05"/>
    <path id="Path_3733" data-name="Path 3733" d="M405.381,485.875c-1.286,1.685-1.991,2.65-1.991,2.65l-5.332,7.944a6.662,6.662,0,0,1-3.839,2.746c-2.429.648-6.161,1.121-9.4-.677a5.56,5.56,0,0,1-2.37-6.991l1.185-2.782s-10.978,7-11.931,3.142,12.767-7.728,12.767-7.728,11.333-1.931,13.626-7.368c0,0,.989-1.283,2.37-3.25" transform="translate(-169.944 -201.713)" fill="#fdc2cc"/>
    <path id="Path_3734" data-name="Path 3734" d="M404.255,510.439s-12.98-1.277-17.092-8.789l-1.884,6.205s13.626,9.521,16.736,8.286Z" transform="translate(-175.495 -212.962)" fill="#65617d"/>
    <path id="Path_3735" data-name="Path 3735" d="M403.479,510.335s-12.974-1.277-17.091-8.8l-1.878,6.187s13.626,9.521,16.73,8.286Z" transform="translate(-175.181 -212.918)" opacity="0.1"/>
    <path id="Path_3736" data-name="Path 3736" d="M313.838,510.46s-4.544,1.631-5.438.725l2.044,3.807,3.863-3Z" transform="translate(-144.161 -216.49)" fill="#65617d"/>
    <path id="Path_3737" data-name="Path 3737" d="M313.838,510.46s-4.544,1.631-5.438.725l2.044,3.807,3.863-3Z" transform="translate(-144.161 -216.49)" opacity="0.1"/>
    <path id="Path_3738" data-name="Path 3738" d="M332.136,527.414V519.47l-1.866,8.136Z" transform="translate(-134.614 -208.024)" opacity="0.1"/>
    <path id="Path_3739" data-name="Path 3739" d="M367.44,267.57a6.947,6.947,0,0,1-4.87,2.6,37.923,37.923,0,0,1-5.658,0c-2.962-.048-6.114.414-8.537,2.176a21.867,21.867,0,0,0-3.916,4.2c-3.661,4.527-8.744,8.765-14.515,8.292a3.74,3.74,0,0,1-2.7-1.151,4.415,4.415,0,0,1-.687-2.482,57.418,57.418,0,0,1,.35-11.187,23.817,23.817,0,0,1,1.671-6.673,22.785,22.785,0,0,1,4.017-5.8,24.621,24.621,0,0,1,7.008-5.684,12.439,12.439,0,0,1,8.768-1.145c3.454.953,6.143,3.687,9.437,5.1C361.575,257.4,371.564,261.676,367.44,267.57Z" transform="translate(-151.512 -112.334)" opacity="0.1"/>
    <path id="Path_3740" data-name="Path 3740" d="M367.44,266.355a6.946,6.946,0,0,1-4.87,2.6,37.9,37.9,0,0,1-5.658,0c-2.962-.054-6.114.408-8.537,2.17a21.86,21.86,0,0,0-3.916,4.2c-3.661,4.527-8.744,8.765-14.514,8.292a3.716,3.716,0,0,1-2.7-1.151,4.4,4.4,0,0,1-.687-2.482,57.414,57.414,0,0,1,.35-11.188,23.812,23.812,0,0,1,1.671-6.673,22.632,22.632,0,0,1,4.017-5.8,24.541,24.541,0,0,1,7.008-5.69,12.439,12.439,0,0,1,8.768-1.145c3.454.953,6.143,3.687,9.437,5.1C361.575,256.187,371.564,260.45,367.44,266.355Z" transform="translate(-151.512 -111.846)" fill="#865a61"/>
    <path id="Path_3741" data-name="Path 3741" d="M291.933,473.47l-.047,2.188-.486-2.092Z" transform="translate(-118.772 -189.603)" fill="#fdc2cc"/>
    <path id="Path_3742" data-name="Path 3742" d="M291.933,473.47l-.047,2.188-.486-2.092Z" transform="translate(-118.772 -189.603)" opacity="0.05"/>
    <g id="Group_409" data-name="Group 409" transform="translate(215.652 195.531)" opacity="0.05">
      <path id="Path_3743" data-name="Path 3743" d="M398.381,354.076c-5.018,16.709,9.609,18.67,9.609,18.67l11.754,31.878c.954,5.432-11.221,21.254-11.221,21.254-.847,2.027-2.962,3.567-5.273,4.706a8.322,8.322,0,0,0,3.128-3.477s12.168-15.816,11.215-21.248l-11.754-31.884s-14.621-1.96-9.609-18.67c1.677-5.582,4.147-8.124,6.647-9.035C401.153,347.673,399.571,350.1,398.381,354.076Z" transform="translate(-395.184 -346.27)"/>
    </g>
    <g id="Group_410" data-name="Group 410" transform="translate(166.714 189.871)" opacity="0.1">
      <path id="Path_3744" data-name="Path 3744" d="M401,384.61a12.4,12.4,0,0,0,2.37,2.272,13.382,13.382,0,0,0,5.592,2.4v.63a13.348,13.348,0,0,1-5.071-2.272A12.376,12.376,0,0,1,401,384.61Z" transform="translate(-348.616 -355.964)"/>
      <path id="Path_3745" data-name="Path 3745" d="M322.825,420.968v.21a78.335,78.335,0,0,0,1.019,8.5c1.777,10.336-.551,30.859-.883,33.694-.19-.126-.379-.246-.592-.384.089-.683,2.82-23.064.924-34.012a76.888,76.888,0,0,1-.989-8.465v-.21a9.322,9.322,0,0,0-1.594-4.586A9.384,9.384,0,0,1,322.825,420.968Z" transform="translate(-315.892 -368.418)"/>
      <path id="Path_3746" data-name="Path 3746" d="M330.417,337.651l-5.794-.114a.029.029,0,0,0-.03,0l-7.405,16.943a47.1,47.1,0,0,0-2.962,9.131c-2.156,10.252-.8,15.36.847,17.884-1.854-2.212-3.768-7.254-1.38-18.586a46.619,46.619,0,0,1,2.933-9.137l7.459-16.943h0l6.831.138v.042C330.861,337.082,330.678,337.31,330.417,337.651Z" transform="translate(-312.577 -336.83)"/>
      <path id="Path_3747" data-name="Path 3747" d="M416.39,345.87l.1.03Z" transform="translate(-354.889 -340.45)"/>
      <path id="Path_3748" data-name="Path 3748" d="M378.421,344.044l-5.806-1.769h-.03c-.344.384-8.738,9.8-15.048,17.429-5.64,6.817-15.527,6.283-17.909,6.043-.433-.048-.871-.084-1.3-.114-6.475-.42-9.023-1.2-9.876-2.854,1.214,1.2,3.886,1.8,9.337,2.134.438,0,.871.066,1.3.108,2.37.24,12.269.773,17.909-6.037,6.309-7.632,14.71-17.051,15.054-17.435h0l8.448,2.59A5.217,5.217,0,0,0,378.421,344.044Z" transform="translate(-319.047 -338.72)"/>
    </g>
    <path id="Path_3749" data-name="Path 3749" d="M290.057,776.769s-8.175,2.26-9.757-1.289" transform="translate(-132.708 -322.619)" opacity="0.1"/>
    <path id="Path_3750" data-name="Path 3750" d="M376.351,773.895s-9.479,2.476-11.671-1.355" transform="translate(-167.099 -321.442)" opacity="0.1"/>
    <path id="Path_3751" data-name="Path 3751" d="M571.017,754.614c.136-1.2.332-2.4.545-3.6a25.353,25.353,0,0,0-1.185-12.159h0c-.219-.63-.379-.983-.379-.983-3.774-1.043-18.65,10.636-24.07,15.037-1.878,0-3.916.084-6.144.234-.971.072-1.943.1-2.915.078h-3.555c-5.03-4.1-20.6-16.434-24.473-15.366,0,0-.16.354-.379.983h0A24.912,24.912,0,0,0,507.248,751c.213,1.2.409,2.4.545,3.6.29,2.632,1.38,7.686,5.332,11.1.847,6.235,4.017,14.431,6.458,19.407a14.007,14.007,0,0,0,.829,2.74c-1.007,3.933-2.168,9.065-1.837,10.792,0,0-5.261-1.289-5.794,5.12v.2c-1.9.881-4.277,2.9-1.605,7.135a2.751,2.751,0,0,0,1.374,1.133c.474.168.936.168.889-.5l3.288,3.747s5.96.7,6.031-2.806l.349.054c.8.12,1.635.222,2.494.312l.415,1.385s-4.473-.1-3.252,2.692c0,0,1.126,1.055,1.511.671,0,0-.592,1.829,1.742,1.829,0,0,2.506,1.343,3.484.384s3-2.4,3.193-3c.053-.162.077-1.583.089-3.549h.385c4.994.12,10.3-.042,15.119-.306h.391c0,2.129.03,3.7.083,3.867.2.6,2.227,2.021,3.2,3s3.477-.384,3.477-.384c2.322,0,1.742-1.829,1.742-1.829.391.384,1.517-.672,1.517-.672,1.22-2.788-3.258-2.692-3.258-2.692l.533-1.8,2.47-.21.391-.036c-.237,3.807,6.025,3.076,6.025,3.076l3.294-3.747c-.053.672.409.672.883.5a2.727,2.727,0,0,0,1.333-1.145c4.034-6.385-3.418-7.74-3.418-7.74a3.627,3.627,0,0,0-.705-.114,1.241,1.241,0,0,1,.03-.33h0a13.3,13.3,0,0,0,.047-2.53c-.278-1.157-2.115-3-4.437-3.267-1.517-.192-1.546-7.243-1.392-12.129a14.137,14.137,0,0,0,.237-2.782,14.834,14.834,0,0,0-.592-4.455c2.962-5.084,5.332-10.414,5.6-11.991C569.637,762.282,570.727,757.246,571.017,754.614Z" transform="translate(-225.08 -307.526)" fill="url(#linear-gradient-5)"/>
    <path id="Path_3752" data-name="Path 3752" d="M569.9,832.207h0c-.237,3.321-.871,8.651-.871,8.651s-2.636.324-6.712.7l-2.766.24c-2.121.174-4.5.342-7.02.486-4.65.258-9.757.42-14.574.3-2.405-.054-4.739-.18-6.9-.4-.966-.1-1.9-.21-2.79-.342-5.521-.833-9.479-2.428-9.817-5.228a16.393,16.393,0,0,1-.125-3.6c.516-6.3,5.581-5.024,5.581-5.024-.326-1.739.9-7.14,1.9-11.05.628-2.464,1.185-4.335,1.185-4.335l35.617-2.4h.119a1.733,1.733,0,0,1,1.264.548,1.776,1.776,0,0,1,.478,1.305c-.213,4.323-.516,14.221,1.232,14.443a5.38,5.38,0,0,1,4.283,3.208A13.612,13.612,0,0,1,569.9,832.207Z" transform="translate(-229.703 -336.527)" fill="#264653"/>
    <path id="Path_3753" data-name="Path 3753" d="M535.813,756.788s-13.43,16.362-19.9,11.829c-.154-.108-.3-.216-.444-.33-4.348-3.333-5.492-8.705-5.794-11.433-.13-1.2-.32-2.356-.527-3.525a24.753,24.753,0,0,1,1.185-11.937h0c.213-.6.361-.965.361-.965C515.167,739.168,535.813,756.788,535.813,756.788Z" transform="translate(-225.86 -308.556)" fill="#264653"/>
    <path id="Path_3754" data-name="Path 3754" d="M528.577,758.987s-4.23,3-10.2,7.926a21.56,21.56,0,0,1-2.962,2.063c-4.348-3.333-5.492-8.705-5.794-11.433-.13-1.2-.32-2.356-.527-3.525a24.755,24.755,0,0,1,1.185-11.937h0C518.648,742.668,528.577,758.987,528.577,758.987Z" transform="translate(-225.84 -309.244)" fill="#264653"/>
    <path id="Path_3755" data-name="Path 3755" d="M528.577,758.987s-4.23,3-10.2,7.926a21.56,21.56,0,0,1-2.962,2.063c-4.348-3.333-5.492-8.705-5.794-11.433-.13-1.2-.32-2.356-.527-3.525a24.755,24.755,0,0,1,1.185-11.937h0C518.648,742.668,528.577,758.987,528.577,758.987Z" transform="translate(-225.84 -309.244)" fill="#fff" opacity="0.5"/>
    <path id="Path_3756" data-name="Path 3756" d="M527.179,761.563s-2.257,1.613-5.444,4.233a11.461,11.461,0,0,1-1.564,1.1,8.866,8.866,0,0,1-3.093-6.1c-.065-.636-.166-1.259-.278-1.888a13.255,13.255,0,0,1,.658-6.367h0C521.883,752.852,527.179,761.563,527.179,761.563Z" transform="translate(-229.045 -313.433)" opacity="0.1"/>
    <path id="Path_3757" data-name="Path 3757" d="M569.05,756.788s13.43,16.362,19.9,11.829c.148-.108.3-.216.444-.33,4.349-3.333,5.492-8.705,5.794-11.433.13-1.2.32-2.356.521-3.525a24.679,24.679,0,0,0-1.185-11.937h0c-.213-.6-.367-.965-.367-.965C589.7,739.168,569.05,756.788,569.05,756.788Z" transform="translate(-250.394 -308.556)" fill="#264653"/>
    <path id="Path_3758" data-name="Path 3758" d="M581.22,758.987s4.236,3,10.2,7.926a21.557,21.557,0,0,0,2.933,2.063c4.348-3.333,5.492-8.705,5.794-11.433.13-1.2.32-2.356.521-3.525a24.68,24.68,0,0,0-1.185-11.937h0C591.161,742.668,581.22,758.987,581.22,758.987Z" transform="translate(-255.355 -309.244)" fill="#264653"/>
    <path id="Path_3759" data-name="Path 3759" d="M581.22,758.987s4.236,3,10.2,7.926a21.557,21.557,0,0,0,2.933,2.063c4.348-3.333,5.492-8.705,5.794-11.433.13-1.2.32-2.356.521-3.525a24.68,24.68,0,0,0-1.185-11.937h0C591.161,742.668,581.22,758.987,581.22,758.987Z" transform="translate(-255.355 -309.244)" fill="#fff" opacity="0.5"/>
    <path id="Path_3760" data-name="Path 3760" d="M589.05,761.571s2.245,1.607,5.409,4.2a10.862,10.862,0,0,0,1.558,1.091,8.894,8.894,0,0,0,3.075-6.061c.065-.6.166-1.253.278-1.877a13.28,13.28,0,0,0-.622-6.331h0C594.317,752.914,589.05,761.571,589.05,761.571Z" transform="translate(-258.546 -313.453)" opacity="0.1"/>
    <path id="Path_3761" data-name="Path 3761" d="M567.766,810.23a32.506,32.506,0,0,1-5.142,6.631c-5.332,4.8-28.354,2.89-29.846,2.644-.314-.054-.966-1-1.777-2.524.628-2.464,1.185-4.335,1.185-4.335Z" transform="translate(-234.887 -336.535)" opacity="0.1"/>
    <path id="Path_3762" data-name="Path 3762" d="M544.478,765.312c-.936.066-1.872.09-2.814.072-4.8-.084-20.99.132-22.785,6.745-2.115,7.794,7.34,28.664,8.827,28.916s24.5,2.141,29.852-2.644,12.311-19.785,11.937-21.146C569.5,777.255,576.131,763.094,544.478,765.312Z" transform="translate(-229.821 -318.453)" fill="#264653"/>
    <path id="Path_3763" data-name="Path 3763" d="M548.463,786.48a16.93,16.93,0,0,0-17.406,9.952,14.536,14.536,0,0,0,1.049,14.5c1.848,2.632,4.562,4.592,8.335,3C548.83,810.438,548.463,786.48,548.463,786.48Z" transform="translate(-234.316 -326.982)" opacity="0.1"/>
    <path id="Path_3764" data-name="Path 3764" d="M547.833,785.22a16.93,16.93,0,0,0-17.405,9.952,14.536,14.536,0,0,0,1.048,14.5c1.849,2.632,4.562,4.593,8.336,3C548.2,809.177,547.833,785.22,547.833,785.22Z" transform="translate(-234.059 -326.478)" opacity="0.1"/>
    <path id="Path_3765" data-name="Path 3765" d="M547.833,785.85a16.93,16.93,0,0,0-17.405,9.952,14.536,14.536,0,0,0,1.048,14.5c1.849,2.632,4.562,4.592,8.336,3C548.2,809.808,547.833,785.85,547.833,785.85Z" transform="translate(-234.059 -326.73)" fill="#264653"/>
    <path id="Path_3766" data-name="Path 3766" d="M547.833,785.85a16.93,16.93,0,0,0-17.405,9.952,14.536,14.536,0,0,0,1.048,14.5c1.849,2.632,4.562,4.592,8.336,3C548.2,809.808,547.833,785.85,547.833,785.85Z" transform="translate(-234.059 -326.73)" fill="#fff" opacity="0.5"/>
    <path id="Path_3767" data-name="Path 3767" d="M538.457,803.13s-1.617,1.511-1,1.889S538.457,803.13,538.457,803.13Z" transform="translate(-237.462 -333.692)" fill="#3f2b3b"/>
    <path id="Path_3768" data-name="Path 3768" d="M541.849,806.35s-.883,1.972-.255,2.188,1-1.415,1-1.415Z" transform="translate(-239.113 -334.981)" fill="#3f2b3b"/>
    <path id="Path_3769" data-name="Path 3769" d="M535.325,811.32s-.865,2.326,0,2.326S535.325,811.32,535.325,811.32Z" transform="translate(-236.493 -336.971)" fill="#3f2b3b"/>
    <path id="Path_3770" data-name="Path 3770" d="M533.78,821.71s1.73,4.472,6.232,4.155" transform="translate(-236.019 -341.132)" fill="none" stroke="#3f2b3b" stroke-miterlimit="10" stroke-width="1"/>
    <path id="Path_3771" data-name="Path 3771" d="M540.61,823.91a3.092,3.092,0,0,0,3.726.5" transform="translate(-238.803 -342.013)" fill="none" stroke="#3f2b3b" stroke-miterlimit="10" stroke-width="1"/>
    <path id="Path_3772" data-name="Path 3772" d="M564,786.48a16.93,16.93,0,0,1,17.405,9.952,14.536,14.536,0,0,1-1.049,14.5c-1.842,2.632-4.562,4.592-8.335,3C563.607,810.438,564,786.48,564,786.48Z" transform="translate(-248.335 -326.982)" opacity="0.1"/>
    <path id="Path_3773" data-name="Path 3773" d="M564.589,785.22a16.93,16.93,0,0,1,17.406,9.952,14.536,14.536,0,0,1-1.049,14.5c-1.842,2.632-4.562,4.593-8.335,3C564.239,809.177,564.589,785.22,564.589,785.22Z" transform="translate(-248.575 -326.478)" opacity="0.1"/>
    <path id="Path_3774" data-name="Path 3774" d="M564.589,785.85a16.93,16.93,0,0,1,17.406,9.952,14.536,14.536,0,0,1-1.049,14.5c-1.842,2.632-4.562,4.592-8.335,3C564.239,809.808,564.589,785.85,564.589,785.85Z" transform="translate(-248.575 -326.73)" fill="#264653"/>
    <path id="Path_3775" data-name="Path 3775" d="M564.589,785.85a16.93,16.93,0,0,1,17.406,9.952,14.536,14.536,0,0,1-1.049,14.5c-1.842,2.632-4.562,4.592-8.335,3C564.239,809.808,564.589,785.85,564.589,785.85Z" transform="translate(-248.575 -326.73)" fill="#fff" opacity="0.5"/>
    <path id="Path_3776" data-name="Path 3776" d="M586.16,803.13s1.617,1.511,1,1.889S586.16,803.13,586.16,803.13Z" transform="translate(-257.368 -333.692)" fill="#3f2b3b"/>
    <path id="Path_3777" data-name="Path 3777" d="M582.706,806.35s.883,1.972.255,2.188-1-1.415-1-1.415Z" transform="translate(-255.656 -334.981)" fill="#3f2b3b"/>
    <path id="Path_3778" data-name="Path 3778" d="M589.557,811.32s.859,2.326,0,2.326S589.557,811.32,589.557,811.32Z" transform="translate(-258.597 -336.971)" fill="#3f2b3b"/>
    <path id="Path_3779" data-name="Path 3779" d="M587.333,821.71s-1.73,4.472-6.232,4.155" transform="translate(-255.306 -341.132)" fill="none" stroke="#3f2b3b" stroke-miterlimit="10" stroke-width="1"/>
    <path id="Path_3780" data-name="Path 3780" d="M582.232,823.91a3.1,3.1,0,0,1-3.732.5" transform="translate(-254.246 -342.013)" fill="none" stroke="#3f2b3b" stroke-miterlimit="10" stroke-width="1"/>
    <path id="Path_3781" data-name="Path 3781" d="M553.2,842.116c.314-.06,6.221-2.644,12.311,0Z" transform="translate(-243.934 -348.828)" fill="#3f2b3b"/>
    <path id="Path_3782" data-name="Path 3782" d="M528.269,856.5c-5.521-.834-9.479-2.428-9.817-5.228a16.394,16.394,0,0,1-.125-3.6,7.922,7.922,0,0,1,2.109-.78c1-.282,2.239-.09,4.852.666s2.423,3.867,2.962,7.926a3.4,3.4,0,0,1,.018,1.013Z" transform="translate(-229.703 -351.169)" opacity="0.1"/>
    <path id="Path_3783" data-name="Path 3783" d="M518.23,847.55s-7.18,1.331-3.294,7.6a2.656,2.656,0,0,0,1.327,1.109c.456.162.895.162.847-.5l3.175,3.681s6.339.755,5.782-3.3-.373-7.195-2.962-7.926S519.243,847.268,518.23,847.55Z" transform="translate(-227.869 -351.432)" fill="#264653"/>
    <path id="Path_3784" data-name="Path 3784" d="M524.18,854.67s1.522,3.519,3.638.564" transform="translate(-232.107 -354.331)" fill="none" stroke="#3f2b3b" stroke-miterlimit="10" stroke-width="1"/>
    <path id="Path_3785" data-name="Path 3785" d="M518.28,857s.788,3.333,3.774.852" transform="translate(-229.702 -355.264)" fill="none" stroke="#3f2b3b" stroke-miterlimit="10" stroke-width="1"/>
    <path id="Path_3786" data-name="Path 3786" d="M600.191,846.86h0c-.237,3.322-.871,8.651-.871,8.651s-2.636.324-6.712.7a3.53,3.53,0,0,1,0-.7c.557-4.059.373-7.195,2.962-7.926C598,846.92,599.237,846.674,600.191,846.86Z" transform="translate(-259.989 -351.18)" opacity="0.1"/>
    <path id="Path_3787" data-name="Path 3787" d="M601.108,847.55s7.186,1.331,3.3,7.6a2.68,2.68,0,0,1-1.327,1.109c-.456.162-.9.162-.853-.5l-3.169,3.681s-6.345.755-5.782-3.3.373-7.195,2.962-7.926S600.112,847.268,601.108,847.55Z" transform="translate(-260.254 -351.432)" fill="#264653"/>
    <path id="Path_3788" data-name="Path 3788" d="M601.138,854.67s-1.529,3.519-3.638.564" transform="translate(-261.99 -354.331)" fill="none" stroke="#3f2b3b" stroke-miterlimit="10" stroke-width="1"/>
    <path id="Path_3789" data-name="Path 3789" d="M606.94,857s-.794,3.333-3.78.852" transform="translate(-264.297 -355.264)" fill="none" stroke="#3f2b3b" stroke-miterlimit="10" stroke-width="1"/>
    <path id="Path_3790" data-name="Path 3790" d="M545.138,855.135c-2.405-.054-4.739-.18-6.9-.4l-2.151-7.326a4.811,4.811,0,0,1-.2-1.337,4.607,4.607,0,0,1,9.212-.03C545.126,848.9,545.15,852.514,545.138,855.135Z" transform="translate(-236.879 -349.082)" opacity="0.1"/>
    <path id="Path_3791" data-name="Path 3791" d="M535.038,847.307l2.536,8.645s-4.313-.1-3.134,2.644c0,0,1.084,1.037,1.457.66,0,0-.563,1.8,1.677,1.8,0,0,2.417,1.325,3.353.378s2.9-2.362,3.087-2.926c.118-.372.083-7.6.041-12.59a4.624,4.624,0,0,0-4.6-4.617h0a4.585,4.585,0,0,0-3.7,1.879,4.7,4.7,0,0,0-.712,4.129Z" transform="translate(-236.205 -348.977)" fill="#264653"/>
    <path id="Path_3792" data-name="Path 3792" d="M540.559,869.47s-1.884,1.8-.889,2.86" transform="translate(-238.302 -360.258)" fill="none" stroke="#3f2b3b" stroke-miterlimit="10" stroke-width="1"/>
    <path id="Path_3793" data-name="Path 3793" d="M538.8,867.56a2.579,2.579,0,0,0-1.742,2.212" transform="translate(-237.356 -359.493)" fill="none" stroke="#3f2b3b" stroke-miterlimit="10" stroke-width="1"/>
    <path id="Path_3794" data-name="Path 3794" d="M585.368,845.968a4.8,4.8,0,0,1-.189,1.337l-2.008,6.937c-2.121.174-4.5.342-7.02.485,0-2.59,0-6.037.041-8.789a4.6,4.6,0,1,1,9.206.03Z" transform="translate(-253.288 -348.975)" opacity="0.1"/>
    <path id="Path_3795" data-name="Path 3795" d="M585.774,847.307l-2.536,8.645s4.319-.1,3.14,2.644c0,0-1.084,1.037-1.457.66,0,0,.557,1.8-1.683,1.8,0,0-2.417,1.325-3.353.378s-2.891-2.362-3.081-2.926c-.119-.372-.083-7.6-.041-12.59a4.625,4.625,0,0,1,4.6-4.617h0a4.585,4.585,0,0,1,3.7,1.881A4.7,4.7,0,0,1,585.774,847.307Z" transform="translate(-253.522 -348.977)" fill="#264653"/>
    <path id="Path_3796" data-name="Path 3796" d="M586.23,869.47s1.884,1.8.889,2.86" transform="translate(-257.397 -360.258)" fill="none" stroke="#3f2b3b" stroke-miterlimit="10" stroke-width="1"/>
    <path id="Path_3797" data-name="Path 3797" d="M587.63,867.56a2.579,2.579,0,0,1,1.742,2.212" transform="translate(-257.967 -359.493)" fill="none" stroke="#3f2b3b" stroke-miterlimit="10" stroke-width="1"/>
    <path id="Path_3798" data-name="Path 3798" d="M554.589,782.769s-8.774-.282-9.052,6.595,13.709,3.963,13.709,3.963,5.877-.8,4.852-4.976S560.934,783.147,554.589,782.769Z" transform="translate(-240.81 -325.537)" opacity="0.1"/>
    <path id="Path_3799" data-name="Path 3799" d="M554.589,781.509s-8.774-.282-9.052,6.595,13.709,3.963,13.709,3.963,5.877-.8,4.852-4.976S560.934,781.886,554.589,781.509Z" transform="translate(-240.81 -325.033)" opacity="0.1"/>
    <path id="Path_3800" data-name="Path 3800" d="M554.589,782.139s-8.774-.282-9.052,6.595,13.709,3.963,13.709,3.963,5.877-.8,4.852-4.976S560.934,782.517,554.589,782.139Z" transform="translate(-240.81 -325.285)" fill="#3f2b3b"/>
    <path id="Path_3801" data-name="Path 3801" d="M527.78,839.92s2.962,1.067,3.555,3.112" transform="translate(-233.574 -348.424)" opacity="0.1"/>
    <path id="Path_3802" data-name="Path 3802" d="M596.93,837.4s-2.1.893-1.955,4.622" transform="translate(-260.958 -347.415)" opacity="0.1"/>
    <path id="Path_3915" data-name="Path 3915" d="M1.389,0C2.15,0,2.761,1.021,2.755,2.29s-.628,2.3-1.389,2.3S-.006,3.573,0,2.3.629,0,1.389,0Z" transform="translate(293.113 505.776) rotate(-29.887)" fill="#264653"/>
    <path id="Path_3916" data-name="Path 3916" d="M2.3,0C3.561-.006,4.583.6,4.579,1.361s-1.032,1.378-2.3,1.384S0,2.143,0,1.384,1.032.007,2.3,0Z" transform="translate(334.81 506.318) rotate(-60)" fill="#264653"/>
    <path id="Path_3917" data-name="Path 3917" d="M1.389,0C2.15,0,2.761,1.021,2.755,2.29s-.628,2.3-1.389,2.3S-.006,3.573,0,2.3.629,0,1.389,0Z" transform="translate(293.113 505.776) rotate(-29.887)" fill="#fff" opacity="0.5"/>
    <path id="Path_3918" data-name="Path 3918" d="M2.3,0C3.561-.006,4.583.6,4.579,1.361s-1.032,1.378-2.3,1.384S0,2.143,0,1.384,1.032.007,2.3,0Z" transform="translate(334.81 506.318) rotate(-60)" fill="#fff" opacity="0.5"/>
    <ellipse id="Ellipse_239" data-name="Ellipse 239" cx="15.954" cy="2.728" rx="15.954" ry="2.728" transform="translate(98.142 426.583)" fill="#264653" opacity="0.1"/>
    <ellipse id="Ellipse_240" data-name="Ellipse 240" cx="15.954" cy="2.728" rx="15.954" ry="2.728" transform="translate(35.292 465.271)" fill="#264653" opacity="0.1"/>
    <ellipse id="Ellipse_241" data-name="Ellipse 241" cx="23.821" cy="4.077" rx="23.821" ry="4.077" transform="translate(10.812 429.311)" fill="#264653"/>
    <path id="Path_3803" data-name="Path 3803" d="M71.384,724.459a6.978,6.978,0,0,1-2.275-3.465,3.1,3.1,0,0,1,1.588-3.531c1.457-.564,3.015.456,4.194,1.487s2.536,2.212,4.082,2a6.335,6.335,0,0,1-1.919-5.888,2.412,2.412,0,0,1,.533-1.2c.806-.875,2.275-.5,3.247.192,3.075,2.194,3.94,6.427,3.951,10.24a19.111,19.111,0,0,0,.059-4.2c.006-1.391.391-3,1.564-3.729a4.694,4.694,0,0,1,2.37-.6c1.386-.048,2.927.09,3.874,1.115,1.185,1.271.871,3.411-.154,4.8a15.526,15.526,0,0,1-4,3.249,8.884,8.884,0,0,0-2.867,2.764,2.848,2.848,0,0,0-.213.492H76.758a23.947,23.947,0,0,1-5.373-3.723Z" transform="translate(-46.603 -297.739)" fill="#264653"/>
    <ellipse id="Ellipse_242" data-name="Ellipse 242" cx="15.954" cy="2.728" rx="15.954" ry="2.728" transform="translate(594.14 449.402)" fill="#264653" opacity="0.1"/>
    <path id="Path_3804" data-name="Path 3804" d="M1042.91,749.787s9.1-.282,11.849-2.26,13.993-4.335,14.675-1.163,13.679,15.762,3.4,15.846-23.869-1.619-26.606-3.309S1042.91,749.787,1042.91,749.787Z" transform="translate(-443.527 -310.338)" fill="#a8a8a8"/>
    <path id="Path_3805" data-name="Path 3805" d="M1073.011,764.431c-10.273.084-23.869-1.619-26.606-3.31-2.085-1.283-2.915-5.894-3.193-8.022h-.3s.593,7.428,3.312,9.113,16.333,3.393,26.606,3.309c2.962,0,3.993-1.091,3.934-2.674C1076.352,763.832,1075.221,764.431,1073.011,764.431Z" transform="translate(-443.527 -313.657)" opacity="0.2"/>
  </g>
</svg>
