<svg xmlns="http://www.w3.org/2000/svg" width="500" height="500" viewBox="0 0 674 366.625">
  <g id="undraw_project_team_lc5a" transform="translate(0 0)">
    <path id="Path_3806" data-name="Path 3806" d="M359.049,596.347a342.914,342.914,0,0,1-3.233,44.063c-.071.513-.148,1.026-.219,1.539l-138.057-.772c-.405-.509-.8-1.025-1.191-1.546-1.289-1.726-2.5-3.5-3.606-5.338-5.33-8.847-7.77-19.206-5.325-26.352l.044-.111a12.538,12.538,0,0,1,2.448-4.253c5.575-6.276,16.848-5.23,27.078-.164-9.175-10.044-16.481-22.717-17.037-34.029-.544-11.034,5.225-18.917,11.483-25.615.205-.221.411-.437.616-.652.1-.111.205-.215.3-.326,4.883-5.1,10.575-10.137,18.814-9.529,9.036.669,19.054,8.238,26.079,17.057s11.692,18.826,16.424,28.6,9.863,19.78,17.465,28.127c-10.3-13.024-18.6-27.842-21.665-42.254s-.368-28.254,8.809-35.041a21.462,21.462,0,0,1,9.4-3.794c.4-.066.8-.119,1.207-.166,8.5-.967,18.638,1.972,27.268,8.995,9.5,7.733,16.093,19.2,19.371,30.079S359.156,586.219,359.049,596.347Z" transform="translate(-206.467 -277.549)" fill="#f2f2f2"/>
    <path id="Path_3807" data-name="Path 3807" d="M269.009,655.262l-2.64-.015q-1.257-.786-2.527-1.554c-.524-.331-1.054-.649-1.584-.974q-13.135-8.022-26.434-15.39t-26.708-14.068a1.106,1.106,0,0,1-.636-1.265.32.32,0,0,1,.044-.092c.125-.234.4-.332.811-.132,1.1.55,2.2,1.1,3.3,1.663q13.457,6.809,26.8,14.3t26.513,15.631c.185.112.37.231.554.343Z" transform="translate(-206.752 -291.348)" fill="#fff"/>
    <path id="Path_3808" data-name="Path 3808" d="M306.947,644.589l-1.632-.009c-.368-.515-.73-1.03-1.1-1.546q-12.976-18.2-25.946-36.392-21.24-29.79-42.468-59.579a1.05,1.05,0,0,1-.184-.36c-.121-.44.2-.7.616-.652a1.241,1.241,0,0,1,.863.549q11.908,16.706,23.811,33.4l42.254,59.275c.9,1.254,1.792,2.514,2.687,3.768Q306.4,643.817,306.947,644.589Z" transform="translate(-210.651 -280.485)" fill="#fff"/>
    <path id="Path_3809" data-name="Path 3809" d="M356.109,632.155c-.083,2.751-.265,5.458-.5,8.141q-.069.77-.138,1.539l-1.713-.01c.052-.513.1-1.026.151-1.539.362-3.875.619-7.794.654-11.819a164.879,164.879,0,0,0-3.246-33.235A206.927,206.927,0,0,0,341.26,560.7a237.129,237.129,0,0,0-16.448-34.162.912.912,0,0,1-.151-.607c.071-.488.721-.633,1.207-.166a1.418,1.418,0,0,1,.246.31q1.185,2.038,2.327,4.088a236.957,236.957,0,0,1,15.743,34.282,205.941,205.941,0,0,1,9.372,34.58,162.66,162.66,0,0,1,2.554,33.126Z" transform="translate(-223.445 -277.531)" fill="#fff"/>
    <path id="Path_3810" data-name="Path 3810" d="M901.19,565.536c0-6.621-24.921-11.989-55.662-11.989s-55.662,5.368-55.662,11.989c0,4.244,10.245,7.969,25.69,10.1v65.686a5.566,5.566,0,1,0,11.133,0v-64.5c5.885.456,12.226.706,18.84.706s12.955-.25,18.84-.706v64.5a5.566,5.566,0,0,0,11.133,0V575.636C890.944,573.5,901.19,569.779,901.19,565.536Z" transform="translate(-290.275 -281.563)" fill="#ccc"/>
    <circle id="Ellipse_243" data-name="Ellipse 243" cx="23.978" cy="23.978" r="23.978" transform="translate(537.43 126.283)" fill="#2f2e41"/>
    <path id="Path_3811" data-name="Path 3811" d="M583.306,408.241h-10.5l-4.994-40.495h15.495Z" transform="translate(-81.57 -52.829)" fill="#a0616a"/>
    <path id="Path_3812" data-name="Path 3812" d="M562.749,411.531H583v12.748H550A12.748,12.748,0,0,1,562.749,411.531Z" transform="translate(-79.011 -59.119)" fill="#2f2e41"/>
    <path id="Path_3813" data-name="Path 3813" d="M565.087,400.932l-10.017-3.144,7.358-40.133,14.784,4.639Z" transform="translate(-79.739 -51.379)" fill="#a0616a"/>
    <path id="Path_3814" data-name="Path 3814" d="M12.748,0H33V12.748H0A12.748,12.748,0,0,1,12.748,0Z" transform="translate(456.908 337.485) rotate(17.423)" fill="#2f2e41"/>
    <path id="Path_3815" data-name="Path 3815" d="M775.282,611.057a3.817,3.817,0,0,1-1.346-.245l-7.724-2.9a3.867,3.867,0,0,1-2.41-4.439c1.944-8.743,8.572-38.51,12.2-54.477,4.3-18.938,67.088-22.457,69.759-22.6l.22-.012,7.063,8.875c2.552,8.2,1.743,14.6-2.4,19.018-12.1,12.885-48.236,4.89-52.544,3.878L778.89,608.576a3.865,3.865,0,0,1-3.608,2.481Z" transform="translate(-286.519 -277.662)" fill="#2f2e41"/>
    <path id="Path_3816" data-name="Path 3816" d="M788.282,618.057a3.82,3.82,0,0,1-1.346-.245l-7.724-2.9a3.867,3.867,0,0,1-2.41-4.439c1.945-8.743,8.572-38.51,12.2-54.476,4.3-18.938,67.088-22.457,69.759-22.6l.219-.012,7.063,8.875c2.552,8.2,1.743,14.6-2.4,19.018-12.1,12.884-48.235,4.89-52.544,3.878L791.89,615.576A3.864,3.864,0,0,1,788.282,618.057Z" transform="translate(-288.386 -278.667)" fill="#2f2e41"/>
    <path id="Path_3817" data-name="Path 3817" d="M761.419,487.643a9.018,9.018,0,0,1,.758,1.2l42.235,4.45,6.08-8.336,13.779,7.531-11.941,20.228-51.8-13.207a8.988,8.988,0,1,1,.888-11.866Z" transform="translate(-283.869 -271.584)" fill="#a0616a"/>
    <path id="Path_3818" data-name="Path 3818" d="M871.138,533.7a3.853,3.853,0,0,1-1.755-.429c-8.446-4.294-24.891-11.731-40.141-13.288a3.761,3.761,0,0,1-2.651-1.5,3.87,3.87,0,0,1-.714-3.007c1.376-7.618,4.533-27.015,4.126-42.561a21.063,21.063,0,0,1,15.913-20.953h0a68.372,68.372,0,0,1,8.489-1.673,21.234,21.234,0,0,1,23.6,24.63c-2.719,16.111-5.461,38.613-3.078,54.32a3.86,3.86,0,0,1-1.557,3.724A3.793,3.793,0,0,1,871.138,533.7Z" transform="translate(-295.44 -266.705)" fill="#264653"/>
    <path id="Path_3819" data-name="Path 3819" d="M829.127,493.876a3.85,3.85,0,0,1-1.53-.319l-11-4.763a3.858,3.858,0,0,1-2.005-5.067l8.5-19.647a9.848,9.848,0,0,1,18.075,7.823l-8.5,19.646a3.863,3.863,0,0,1-3.537,2.326Z" transform="translate(-293.782 -267.857)" fill="#264653"/>
    <circle id="Ellipse_244" data-name="Ellipse 244" cx="21.033" cy="21.033" r="21.033" transform="translate(539.498 134.838)" fill="#a0616a"/>
    <path id="Path_3820" data-name="Path 3820" d="M836.026,403.451a75.864,75.864,0,0,0,32.82,10.814l-3.46-4.145a25.425,25.425,0,0,0,7.853,1.559,8.6,8.6,0,0,0,7.01-3.281,8,8,0,0,0,.536-7.39,15.155,15.155,0,0,0-4.767-5.96,28.379,28.379,0,0,0-26.413-4.721,16.961,16.961,0,0,0-7.889,5.061c-1.994,2.46-5.833,4.651-4.812,7.649Z" transform="translate(-296.907 -257.914)" fill="#2f2e41"/>
    <path id="Path_3821" data-name="Path 3821" d="M852.349,383.068a64.642,64.642,0,0,0-23.518-15.208c-5.685-2.106-11.873-3.407-17.816-2.211s-11.564,5.308-13.222,11.139c-1.356,4.768.044,9.9,2.148,14.391s4.913,8.651,6.615,13.307a30.373,30.373,0,0,1-30.562,40.73c5.84.783,11.223,3.527,16.931,4.988s12.445,1.362,16.687-2.728c4.488-4.327,4.578-11.361,4.361-17.591q-.484-13.892-.968-27.784c-.165-4.723-.305-9.6,1.4-14.006s5.752-8.269,10.477-8.228c3.582.03,6.752,2.2,9.624,4.34s5.913,4.423,9.48,4.741,7.641-2.322,7.374-5.894" transform="translate(-288.283 -254.505)" fill="#2f2e41"/>
    <path id="Path_3822" data-name="Path 3822" d="M818.157,533.765a9.424,9.424,0,1,1,3.632-18.123h0a9.03,9.03,0,0,1,1.123.569l38.314-17.2,1.076-10.391,16.515-.442-.109,17.3a9.317,9.317,0,0,1-6.732,8.857l-44.806,12.754a8.766,8.766,0,0,1-.308.872A9.458,9.458,0,0,1,818.157,533.765Z" transform="translate(-292.987 -272.172)" fill="#a0616a"/>
    <path id="Path_3823" data-name="Path 3823" d="M885.77,492.328a3.851,3.851,0,0,1-1.509.408l-11.966.736a3.858,3.858,0,0,1-4.083-3.61L866.9,468.494a9.848,9.848,0,0,1,19.658-1.209l1.313,21.368A3.863,3.863,0,0,1,885.77,492.328Z" transform="translate(-301.339 -267.843)" fill="#264653"/>
    <path id="Path_3824" data-name="Path 3824" d="M3,0H70.648a3,3,0,0,1,3,3h0a3,3,0,0,1-3,3H3A3,3,0,0,1,0,3H0A3,3,0,0,1,3,0Z" transform="translate(561.421 263.754) rotate(180)" fill="#3f3d56"/>
    <path id="Path_3825" data-name="Path 3825" d="M745.07,529.463V487.5a5.573,5.573,0,0,1,5.566-5.566h76.215a5.573,5.573,0,0,1,5.566,5.566v41.961a5.573,5.573,0,0,1-5.566,5.566H750.636a5.573,5.573,0,0,1-5.566-5.566Z" transform="translate(-283.84 -271.275)" fill="#3f3d56"/>
    <circle id="Ellipse_245" data-name="Ellipse 245" cx="5.138" cy="5.138" r="5.138" transform="translate(499.765 232.069)" fill="#fff"/>
    <path id="Path_3826" data-name="Path 3826" d="M476.484,452.668a8.611,8.611,0,0,0-13.12-1.494l-27.193-14.036,1.69,15.812,25.564,10.9a8.658,8.658,0,0,0,13.058-11.187Z" transform="translate(-239.465 -264.84)" fill="#ffb8b8"/>
    <path id="Path_3827" data-name="Path 3827" d="M444.081,449.4a3.858,3.858,0,0,1-3.142.034l-25.829-11.2a39.712,39.712,0,0,1-20.092-19.437l-13.579-28.663a12.414,12.414,0,1,1,19.611-15.226l23.869,44.285,22.04,16.649a3.866,3.866,0,0,1,1.359,4.214l-2.163,6.987a3.858,3.858,0,0,1-1.3,1.894,3.81,3.81,0,0,1-.768.469Z" transform="translate(-231.228 -255.21)" fill="#ccc"/>
    <circle id="Ellipse_246" data-name="Ellipse 246" cx="21.033" cy="21.033" r="21.033" transform="translate(128.581 59.148)" fill="#ffb8b8"/>
    <path id="Path_3828" data-name="Path 3828" d="M184.661,409.034h10.5l5-40.495h-15.5Z" transform="translate(-26.527 -52.943)" fill="#ffb8b8"/>
    <path id="Path_3829" data-name="Path 3829" d="M0,0H33V12.748H12.748A12.748,12.748,0,0,1,0,0H0Z" transform="translate(188.877 365.84) rotate(179.997)" fill="#2f2e41"/>
    <path id="Path_3830" data-name="Path 3830" d="M144.661,409.034h10.5l5-40.495h-15.5Z" transform="translate(-20.781 -52.943)" fill="#ffb8b8"/>
    <path id="Path_3831" data-name="Path 3831" d="M0,0H33V12.748H12.748A12.748,12.748,0,0,1,0,0H0Z" transform="translate(154.624 365.84) rotate(179.997)" fill="#2f2e41"/>
    <path id="Path_3832" data-name="Path 3832" d="M346.687,614.59a3.852,3.852,0,0,1-.921-3.047l18.381-137.858,45.668,7.756,4.874-2.924-12.6,130.8a3.864,3.864,0,0,1-3.508,3.395l-13.828,1.152a3.853,3.853,0,0,1-4.167-4.061l3.58-62.292a.428.428,0,0,0-.841-.137L365.61,613.055a3.86,3.86,0,0,1-3.721,2.851h-12.3a3.852,3.852,0,0,1-2.9-1.316Z" transform="translate(-226.473 -270.09)" fill="#2f2e41"/>
    <path id="Path_3833" data-name="Path 3833" d="M378.481,467.378a3.025,3.025,0,0,0-3.867-.161l-9.13,7.1a3.85,3.85,0,0,1-6.069-1.975c-4.478-15.684-14.625-55.164-12.125-82.951,1.417-15.75,15.018-27.721,30.319-26.716,10.461.7,17.343,6.732,20.455,17.936,7.641,27.508,16.038,77.965,17.644,87.8a3.837,3.837,0,0,1-1.83,3.93,28.207,28.207,0,0,1-14.294,4.023C393.486,476.365,386.176,474.242,378.481,467.378Z" transform="translate(-226.641 -254.135)" fill="#ccc"/>
    <path id="Path_3834" data-name="Path 3834" d="M382.675,490.156a8.611,8.611,0,0,0-9.4-9.272l-12.735-27.825-8.428,13.485L365.5,490.9a8.658,8.658,0,0,0,17.179-.744Z" transform="translate(-227.389 -267.127)" fill="#ffb8b8"/>
    <path id="Path_3835" data-name="Path 3835" d="M357.538,468.431a3.858,3.858,0,0,1-2.493-1.913l-13.41-24.756a39.711,39.711,0,0,1-3.814-27.693l7-30.934a12.414,12.414,0,1,1,24.828.121L361.1,432.832l7.068,26.7a3.866,3.866,0,0,1-1.532,4.155l-6.014,4.163a3.858,3.858,0,0,1-2.2.685A3.813,3.813,0,0,1,357.538,468.431Z" transform="translate(-225.195 -255.307)" fill="#ccc"/>
    <path id="Path_3836" data-name="Path 3836" d="M165.4,173.828,157.7,206.369l11.132,27.4-7.707-26.547Z" transform="translate(-22.654 -24.971)" opacity="0.2"/>
    <path id="Path_3837" data-name="Path 3837" d="M363.95,342.15a14.163,14.163,0,0,1-5.47-.99c-.766-.3-1.56-.538-2.325-.833-6.749-2.608-11.2-9.8-11.355-17.03s3.587-14.255,9.15-18.882,12.768-7,19.983-7.552c7.771-.592,16.522,1.379,20.865,7.851,1.156,1.723,1.964,3.813,1.279,5.893a3.771,3.771,0,0,1-1.063,1.632c-1.939,1.725-3.873.428-5.85.313-2.717-.158-5.158,2.042-6.035,4.619a13.918,13.918,0,0,0,.217,8.042,20.093,20.093,0,0,1,1.013,4.89,4.916,4.916,0,0,1-2.037,4.329c-1.7,1.026-3.928.432-5.627-.592s-3.167-2.45-5-3.2-4.3-.587-5.369,1.085a5.939,5.939,0,0,0-.679,1.96c-.958,4.363-.738,4.106-1.7,8.469Z" transform="translate(-226.338 -244.674)" fill="#2f2e41"/>
    <path id="Path_3838" data-name="Path 3838" d="M579.981,424.99a3.7,3.7,0,0,1-.691-3.173,87.627,87.627,0,0,0,0-40.7,3.7,3.7,0,0,1,.692-3.173,3.637,3.637,0,0,1,2.873-1.392H617a3.684,3.684,0,0,1,3.628,3.088,143.424,143.424,0,0,1,0,43.652A3.684,3.684,0,0,1,617,426.382H582.854A3.637,3.637,0,0,1,579.981,424.99Z" transform="translate(-260.01 -256.137)" fill="#e6e6e6"/>
    <path id="Path_3839" data-name="Path 3839" d="M518.3,284.372a3.7,3.7,0,0,1-.691-3.172,87.631,87.631,0,0,0,0-40.7,3.7,3.7,0,0,1,.691-3.172,3.637,3.637,0,0,1,2.873-1.393h34.145a3.685,3.685,0,0,1,3.629,3.088,143.431,143.431,0,0,1,0,43.652,3.684,3.684,0,0,1-3.628,3.088H521.173A3.636,3.636,0,0,1,518.3,284.372Z" transform="translate(-251.149 -235.936)" fill="#e6e6e6"/>
    <path id="Path_3840" data-name="Path 3840" d="M616.265,331.694a143.425,143.425,0,0,1,0-43.652,3.684,3.684,0,0,1,3.628-3.088h34.145a3.637,3.637,0,0,1,2.873,1.393,3.7,3.7,0,0,1,.691,3.172,87.626,87.626,0,0,0,0,40.7,3.7,3.7,0,0,1-.691,3.172,3.637,3.637,0,0,1-2.873,1.393H619.893a3.684,3.684,0,0,1-3.628-3.088Z" transform="translate(-265.097 -242.978)" fill="#264653"/>
    <path id="Path_3841" data-name="Path 3841" d="M449.342,329.914a143.445,143.445,0,0,1,0-43.652,3.684,3.684,0,0,1,3.628-3.088h34.145a3.636,3.636,0,0,1,2.873,1.393,3.7,3.7,0,0,1,.691,3.172,87.628,87.628,0,0,0,0,40.7,3.7,3.7,0,0,1-.691,3.172A3.636,3.636,0,0,1,487.115,333H452.971A3.684,3.684,0,0,1,449.342,329.914Z" transform="translate(-241.117 -242.722)" fill="#ff6584"/>
    <path id="Path_3842" data-name="Path 3842" d="M459.348,447.167a3.76,3.76,0,0,1-.7-3.225,89.06,89.06,0,0,0,0-41.367,3.761,3.761,0,0,1,.7-3.225,3.7,3.7,0,0,1,2.92-1.415h34.706a3.744,3.744,0,0,1,3.688,3.139,145.779,145.779,0,0,1,0,44.37,3.744,3.744,0,0,1-3.688,3.139H462.269a3.7,3.7,0,0,1-2.921-1.415Z" transform="translate(-242.678 -259.208)" fill="#264653"/>
    <path id="Path_3843" data-name="Path 3843" d="M218.878,663.722H881.084a1.02,1.02,0,0,0,0-2.039H218.878a1.02,1.02,0,0,0,0,2.039Z" transform="translate(-208.103 -297.097)" fill="#3f3d56"/>
    <path id="Path_3844" data-name="Path 3844" d="M492.1,418.713H473.821a2.572,2.572,0,0,1-2.569-2.569v-1.091a2.572,2.572,0,0,1,2.569-2.569H492.1a2.572,2.572,0,0,1,2.569,2.569v1.091a2.572,2.572,0,0,1-2.569,2.569Z" transform="translate(-244.505 -261.298)" fill="#fff"/>
    <path id="Path_3845" data-name="Path 3845" d="M492.1,431.26H473.821a2.572,2.572,0,0,1-2.569-2.569V427.6a2.572,2.572,0,0,1,2.569-2.569H492.1a2.572,2.572,0,0,1,2.569,2.569v1.091a2.572,2.572,0,0,1-2.569,2.569Z" transform="translate(-244.505 -263.101)" fill="#fff"/>
    <path id="Path_3846" data-name="Path 3846" d="M478.025,306.82H460.107a2.572,2.572,0,0,1-2.569-2.569v-1a2.572,2.572,0,0,1,2.569-2.569h17.918a2.572,2.572,0,0,1,2.569,2.569v1A2.572,2.572,0,0,1,478.025,306.82Z" transform="translate(-242.535 -245.237)" fill="#fff"/>
    <path id="Path_3847" data-name="Path 3847" d="M611.7,394.95H593.787a2.572,2.572,0,0,1-2.569-2.569v-1a2.572,2.572,0,0,1,2.569-2.569H611.7a2.572,2.572,0,0,1,2.569,2.569v1a2.572,2.572,0,0,1-2.569,2.569Z" transform="translate(-261.739 -257.897)" fill="#fff"/>
    <path id="Path_3848" data-name="Path 3848" d="M611.7,409.763H593.787a2.572,2.572,0,0,1-2.569-2.569v-1a2.572,2.572,0,0,1,2.569-2.569H611.7a2.572,2.572,0,0,1,2.569,2.569v1A2.572,2.572,0,0,1,611.7,409.763Z" transform="translate(-261.739 -260.025)" fill="#fff"/>
    <path id="Path_3849" data-name="Path 3849" d="M611.7,424.577H593.787a2.572,2.572,0,0,1-2.569-2.569v-1a2.572,2.572,0,0,1,2.569-2.569H611.7A2.572,2.572,0,0,1,614.274,421v1A2.572,2.572,0,0,1,611.7,424.577Z" transform="translate(-261.739 -262.153)" fill="#fff"/>
    <path id="Path_3850" data-name="Path 3850" d="M478.025,319.165H460.107a2.572,2.572,0,0,1-2.569-2.569v-1a2.572,2.572,0,0,1,2.569-2.569h17.918a2.572,2.572,0,0,1,2.569,2.569v1a2.572,2.572,0,0,1-2.569,2.569Z" transform="translate(-242.535 -247.01)" fill="#fff"/>
    <path id="Path_3851" data-name="Path 3851" d="M550.2,256.8H532.285a2.572,2.572,0,0,1-2.569-2.569v-1a2.572,2.572,0,0,1,2.569-2.569H550.2a2.572,2.572,0,0,1,2.569,2.569v1A2.572,2.572,0,0,1,550.2,256.8Z" transform="translate(-252.903 -238.051)" fill="#fff"/>
    <path id="Path_3852" data-name="Path 3852" d="M645.676,309.835H627.758a2.572,2.572,0,0,1-2.569-2.569v-1a2.572,2.572,0,0,1,2.569-2.569h17.918a2.572,2.572,0,0,1,2.569,2.569v1A2.572,2.572,0,0,1,645.676,309.835Z" transform="translate(-266.619 -245.67)" fill="#fff"/>
  </g>
</svg>
