<svg xmlns="http://www.w3.org/2000/svg" xmlns:xlink="http://www.w3.org/1999/xlink" width="500" height="500" viewBox="0 0 812 529.402">
  <defs>
    <linearGradient id="linear-gradient" x1="0.5" y1="1" x2="0.5" gradientUnits="objectBoundingBox">
      <stop offset="0" stop-color="gray" stop-opacity="0.251"/>
      <stop offset="0.54" stop-color="gray" stop-opacity="0.122"/>
      <stop offset="1" stop-color="gray" stop-opacity="0.102"/>
    </linearGradient>
    <linearGradient id="linear-gradient-2" x1="0.5" y1="1" x2="0.5" xlink:href="#linear-gradient"/>
  </defs>
  <g id="Group_413" data-name="Group 413" transform="translate(-908.717 -1776.124)">
    <g id="undraw_security_o890" transform="translate(908.717 1776.124)">
      <path id="Path_3853" data-name="Path 3853" d="M664.715,335.217c-14.228,29.351-43.118,48.977-73.058,61.919-40.307,17.43-84.694,24.344-128.471,21.42q-11.508-.766-22.946-2.447a289.4,289.4,0,0,1-76.721-22.341q-10.571-4.761-20.713-10.394A264.98,264.98,0,0,1,310.431,362.2q-3.872-2.956-7.636-6.062c-1.74-1.435-3.465-2.9-5.216-4.327a65.818,65.818,0,0,0-11.738-7.995,41.906,41.906,0,0,0-3.931-1.735c-13.43-5.109-28.917-3.181-42.9.8-10.635,3.031-21,7.181-31.626,10.142a104.952,104.952,0,0,1-14.41,3.063,76.688,76.688,0,0,1-32.376-2.843l-.894-.279q-2.249-.707-4.461-1.548l-.894-.343q-2.142-.825-4.193-1.773l-.894-.407q-2.142-1-4.193-2.1c-.493-.257-.98-.536-1.462-.8a87.646,87.646,0,0,1-20.97-16.327c-.177-.177-.343-.359-.536-.535-.851-.921-1.687-1.858-2.5-2.817-.3-.353-.6-.707-.894-1.071q-1.44-1.756-2.779-3.593c-.134-.177-.262-.359-.391-.535a77.428,77.428,0,0,1-9.028-16.327c-.075-.177-.145-.359-.209-.535q-1.071-2.758-1.955-5.607c-.241-.793-.471-1.607-.675-2.4-.07-.236-.134-.477-.193-.712-2.956-11.636-3.293-23.733-3.293-35.76v-4.2c.086-19.455.386-39.241,3.256-58.428a2.436,2.436,0,0,1,.059-.4,182.473,182.473,0,0,1,3.914-19.181,141.5,141.5,0,0,1,6.592-19.439c6.6-15.529,16.2-29.661,26.866-42.759,26.855-32.96,62.075-60.629,103.3-70.985,44.419-11.154,93.787-.466,129.617,28.06,10.924,8.7,20.74,18.994,33.008,25.661,10.71,5.8,23.246,8.209,34.716,3.641,9.478-3.775,15.647-5.649,26.293-5.076a220.388,220.388,0,0,1,64.452,13.5c.835.305,1.671.621,2.5.937,53.93,20.633,100.288,61.625,124.385,114.3q.958,2.088,1.858,4.209C675.371,263.177,680.566,302.509,664.715,335.217Z" transform="translate(137.567 -40.043)" fill="#264653" opacity="0.1"/>
      <path id="Path_3914" data-name="Path 3914" d="M664.715,335.217c-14.228,29.351-43.118,48.977-73.058,61.919-40.307,17.43-84.694,24.344-128.471,21.42q-11.508-.766-22.946-2.447a289.4,289.4,0,0,1-76.721-22.341q-10.571-4.761-20.713-10.394A264.98,264.98,0,0,1,310.431,362.2q-3.872-2.956-7.636-6.062c-1.74-1.435-3.465-2.9-5.216-4.327a65.818,65.818,0,0,0-11.738-7.995,41.906,41.906,0,0,0-3.931-1.735c-13.43-5.109-28.917-3.181-42.9.8-10.635,3.031-21,7.181-31.626,10.142a104.952,104.952,0,0,1-14.41,3.063,76.688,76.688,0,0,1-32.376-2.843l-.894-.279q-2.249-.707-4.461-1.548l-.894-.343q-2.142-.825-4.193-1.773l-.894-.407q-2.142-1-4.193-2.1c-.493-.257-.98-.536-1.462-.8a87.646,87.646,0,0,1-20.97-16.327c-.177-.177-.343-.359-.536-.535-.851-.921-1.687-1.858-2.5-2.817-.3-.353-.6-.707-.894-1.071q-1.44-1.756-2.779-3.593c-.134-.177-.262-.359-.391-.535a77.428,77.428,0,0,1-9.028-16.327c-.075-.177-.145-.359-.209-.535q-1.071-2.758-1.955-5.607c-.241-.793-.471-1.607-.675-2.4-.07-.236-.134-.477-.193-.712-2.956-11.636-3.293-23.733-3.293-35.76v-4.2c.086-19.455.386-39.241,3.256-58.428a2.436,2.436,0,0,1,.059-.4,182.473,182.473,0,0,1,3.914-19.181,141.5,141.5,0,0,1,6.592-19.439c6.6-15.529,16.2-29.661,26.866-42.759,26.855-32.96,62.075-60.629,103.3-70.985,44.419-11.154,93.787-.466,129.617,28.06,10.924,8.7,20.74,18.994,33.008,25.661,10.71,5.8,23.246,8.209,34.716,3.641,9.478-3.775,15.647-5.649,26.293-5.076a220.388,220.388,0,0,1,64.452,13.5c.835.305,1.671.621,2.5.937,53.93,20.633,100.288,61.625,124.385,114.3q.958,2.088,1.858,4.209C675.371,263.177,680.566,302.509,664.715,335.217Z" transform="translate(-100.19 110.196)" fill="#264653" opacity="0.1"/>
      <ellipse id="Ellipse_248" data-name="Ellipse 248" cx="83.821" cy="8.14" rx="83.821" ry="8.14" transform="translate(603.238 422.778)" fill="#264653" opacity="0.1"/>
      <ellipse id="Ellipse_256" data-name="Ellipse 256" cx="83.821" cy="8.14" rx="83.821" ry="8.14" transform="translate(287.444 488.416)" fill="#264653" opacity="0.1"/>
      <ellipse id="Ellipse_257" data-name="Ellipse 257" cx="83.821" cy="8.14" rx="83.821" ry="8.14" transform="translate(15.41 352.763)" fill="#264653" opacity="0.1"/>
      <rect id="Rectangle_12" data-name="Rectangle 12" width="508.898" height="288.274" rx="12.49" transform="translate(260.74 57.698)" fill="url(#linear-gradient)"/>
      <rect id="Rectangle_13" data-name="Rectangle 13" width="507.339" height="283.261" rx="12.49" transform="translate(261.549 61.752)" fill="#fff"/>
      <rect id="Rectangle_14" data-name="Rectangle 14" width="507.339" height="283.261" rx="12.49" transform="translate(261.549 61.752)" fill="#fff"/>
      <path id="Path_3854" data-name="Path 3854" d="M649.384,149.29H147.2a2.576,2.576,0,0,0-2.576,2.576v10.887H651.938V151.866a2.576,2.576,0,0,0-2.554-2.576Z" transform="translate(116.929 -90.789)" fill="#5a5773"/>
      <g id="buttons" transform="translate(268.2 61.752)">
        <circle id="Ellipse_249" data-name="Ellipse 249" cx="3.481" cy="3.481" r="3.481" fill="#fff"/>
        <circle id="Ellipse_250" data-name="Ellipse 250" cx="3.481" cy="3.481" r="3.481" transform="translate(9.371)" fill="#fff"/>
        <circle id="Ellipse_251" data-name="Ellipse 251" cx="3.481" cy="3.481" r="3.481" transform="translate(18.742)" fill="#fff"/>
      </g>
      <rect id="Rectangle_16" data-name="Rectangle 16" width="136.15" height="11.556" transform="translate(303.334 97.282)" fill="#264653" opacity="0.2"/>
      <rect id="Rectangle_17" data-name="Rectangle 17" width="423.77" height="177.763" transform="translate(303.334 143.618)" fill="#5a5773" opacity="0.1"/>
      <path id="Path_3855" data-name="Path 3855" d="M612.678,292.19h-7.256V278.1a28.979,28.979,0,1,0-57.957-.391V292.19h-7.24a12.113,12.113,0,0,0-12.075,12.075v57.951a12.113,12.113,0,0,0,12.075,12.075h72.453a12.107,12.107,0,0,0,12.07-12.075V304.265a12.108,12.108,0,0,0-12.07-12.076Zm-32,37.672v20.756a4.332,4.332,0,0,1-4.016,4.348,4.236,4.236,0,0,1-4.434-4.23V329.851a9.639,9.639,0,1,1,8.45,0Zm16.3-37.672H555.915V277.7a20.526,20.526,0,0,1,41.051,0Z" transform="translate(-61.222 -136.978)" opacity="0.1"/>
      <path id="Path_3856" data-name="Path 3856" d="M612.678,290.189h-7.256V276.1a28.979,28.979,0,1,0-57.957-.391v14.485h-7.24a12.113,12.113,0,0,0-12.075,12.075v57.951a12.113,12.113,0,0,0,12.075,12.076h72.453a12.108,12.108,0,0,0,12.07-12.075V302.265a12.108,12.108,0,0,0-12.07-12.075Zm-32,37.672v20.756a4.332,4.332,0,0,1-4.016,4.348,4.236,4.236,0,0,1-4.434-4.23V327.851a9.639,9.639,0,1,1,8.45,0Zm16.3-37.672H555.915V275.7a20.526,20.526,0,0,1,41.051,0Z" transform="translate(-61.222 -136.049)" fill="#264653"/>
      <rect id="Rectangle_18" data-name="Rectangle 18" width="42.893" height="10.126" transform="translate(684.211 126.509)" fill="#5a5773" opacity="0.1"/>
      <path id="Path_3857" data-name="Path 3857" d="M951.186,589.185a15.246,15.246,0,0,0-1.435-4.075l-6.426-9.6h.037s-1.012-4.819,0-7.186-3.609-8.188-3.609-8.188a3.454,3.454,0,0,1,.905-3.261c1.467-1.8-.905-7.068-.905-7.068s-1.124-11-1.237-12.686-1.017-11-1.017-11l-2.142-19.755-3.813-52.355-.07-.98c.471-.23.723-.375.723-.375l-.76-28.949.659-.594c5.751-5.205,19.015-17.254,18.882-17.516s-1.606-20.119-1.778-25.088a29.9,29.9,0,0,0-2.281-10.271c-.332-.659-1.291-5-1.687-6.838-.107-.5-.177-.819-.177-.819s-3.888-7.411-3.55-10.779,1.012-5.891-7.277-7.069c0,0-6.961-1.039-11.106-3.872a31.6,31.6,0,0,0-7.957-3.984s-2.324-4.284-3.941-2.833a22.481,22.481,0,0,1-1.526-4.771l-.048-.3a15.781,15.781,0,0,0,6.233-8.921c.054-.2.1-.412.145-.616a1.737,1.737,0,0,0,.5.091c1.408,0,2.276-1.569,3.593-2.067.536-.209,1.194-.241,1.607-.664a1.569,1.569,0,0,0,.353-1.183,2.42,2.42,0,0,0,0-.439c0-.052,0-.1,0-.155v.054c-.359-1.949-1.869-3.679-1.7-5.66.161-1.864,1.8-3.5,1.665-5.318a2.88,2.88,0,0,0-.038-.428v.064a4.584,4.584,0,0,0-1.071-1.9,6.081,6.081,0,0,0-2.206-1.853c-.744-.327-1.606-.4-2.3-.793-2.046-1.114-2.04-4.016-3.256-6a5.307,5.307,0,0,0-4.964-2.458c-1.521.15-2.9.959-4.4,1.221a11.509,11.509,0,0,1-6.1-1.071,16.791,16.791,0,0,0-6.019-1.607c-2.094,0-4.359,1.071-4.991,3.047-.338,1.071-.171,2.222-.428,3.309-.461,1.917-2.142,3.288-3.882,4.241-1.071.594-2.345,1.274-2.677,2.4v-.086a2.037,2.037,0,0,0-.053.273,2,2,0,0,0,0,.359,6.752,6.752,0,0,0,.68,2.238,6.174,6.174,0,0,1-.032,4.316c-.4,1.017-1.071,1.912-1.456,2.924a5.756,5.756,0,0,0-.354,1.467v-.086a5.889,5.889,0,0,0,0,.685,4.819,4.819,0,0,0,.536,2.249,4.037,4.037,0,0,0,2.4,2.019c1.071.246,1.74-.8,2.87-.536a4.521,4.521,0,0,1,.594.187c.037.241.075.482.118.718a15.738,15.738,0,0,0,5.43,9.194,3.473,3.473,0,0,0,.059.391h0a35.937,35.937,0,0,1,.444,6.458s-1.687-2.469-4,2.3c0,0-6.035,3.481-8.118,3.877s-9.478,2.972-9.478,2.972a6.523,6.523,0,0,1-3.834,1.237c-2.308,0-4.225,5.05-3.947,7.8s-.166,4.771-2.313,4.884-.975,4.466-.958,4.541l-.2.937c-.418,1.917-1.328,6.03-1.649,6.672a29.99,29.99,0,0,0-2.286,10.271c-.166,4.969-1.607,24.751-1.773,25.088-.112.22,8.975,8.525,15.363,14.33l.926.835-2.94,27.46a7.331,7.331,0,0,0,3.02,5.355c0,.321,0,.648-.032.985-.128,3.213-.386,7.1-.9,8.118-.9,1.8-.675,11.449-.675,11.449s-.9,19.642-2.03,21.779a14.86,14.86,0,0,0-1.017,7.5c.337.878-1.13,24.467-1.13,24.467l-1.125,10.555s.337,10.1-.68,10.324-1.58,7.186-1.58,7.186-3.6,4.937-2.029,6.731-.23,2.586-.4,3.031-3.438,2.142-1.071,8.418a1.84,1.84,0,0,0,.075.182c-2.217,3.079-9.243,13.013-8.814,14.523a3.98,3.98,0,0,0,1.874,2.249c1.655.991,4.493,1.451,9.007,0,7.5-2.415,6.962-4.156,6.962-4.156a3.181,3.181,0,0,1,3.159-3.031c3.1-.225,5.414-3.085,5.414-3.085l-.364-1.355-.5-1.874c.059-.536.439-1.473,2.142-1.992,2.6-.787,1.917-5.725,1.917-5.725s-.225-5.162.9-5.837.68-9.205.68-9.205a63.271,63.271,0,0,1,3.042-10.33c1.8-4.155,3.952-28.842,3.952-28.842s1.462-12.124,2.817-15.6,2.6-13.243,2.6-13.243,8.348-16.167,8.456-19.76c0,0,1.071-3.368,2.142.337s4.081,12.573,4.081,12.573l2.929,10.887,3.5,16.274,2.26,13.7s-.343,5.162.535,6.961,2.142,5.944,1.467,6.731,1.349,4.493,1.917,5.275,0,17.4,0,17.4,2.592,14.143,6.313,16.6a4.549,4.549,0,0,0,.825.428c-.053,1.531-.107,3.583-.038,4.653a1.785,1.785,0,0,0,.118.7c.337.45,4.171,3.481,4.964,3.481s3.6,1.965,3.722,2.919,8.241,4.991,9.393,5.109,6.731,1.119,7.5-.45a2.6,2.6,0,0,0,.155-1.451ZM931.229,386.917l.578.5s.594,4.632,1.017,6.019a11.621,11.621,0,0,1-.086,4.086,9.4,9.4,0,0,0,.594,2.945c.5,1.012-1.017,3.213-1.017,3.213h-1.355l-.423-17.339Zm-40.285-51.772v-.1a.335.335,0,0,0-.016.1Zm-20.8,66.75a1.955,1.955,0,0,1-.086-1.43,4.277,4.277,0,0,0,.284-.793,12.256,12.256,0,0,0,.311-2.142.151.151,0,0,0,0-.027,11.331,11.331,0,0,1-.08-4.059c.4-1.317,1.012-6.019,1.012-6.019l.385-.327.894-.776a6.363,6.363,0,0,1,.064-.766c.188,4.07.337,8.568.1,8.793-.45.444-2.088,4.819-1.692,4.991a20.516,20.516,0,0,1-.348,4.166A8.534,8.534,0,0,1,870.139,401.895Z" transform="translate(-209.485 -155.815)" fill="url(#linear-gradient-2)"/>
      <path id="Path_3858" data-name="Path 3858" d="M949.338,368.014v6.662l-13.666,6.87s-13.57-8.209-10.223-11.476c2.142-2.067,1.73-7.743,1.151-11.647h0c-.337-2.271-.728-3.936-.728-3.936s24.376-6.961,20.691-1.676a8.313,8.313,0,0,0-.916,6.319A28.7,28.7,0,0,0,949.338,368.014Z" transform="translate(-245.523 -184.405)" fill="#c37098"/>
      <path id="Path_3859" data-name="Path 3859" d="M880.622,468.074l-1.762,21.7s-2.64-2.394-6.057-5.51c-6.335-5.778-15.331-14.041-15.224-14.26.166-.337,1.606-20.022,1.762-24.97a29.874,29.874,0,0,1,2.26-10.217,63.543,63.543,0,0,0,1.606-6.645c.129-.594.209-.98.209-.98L866.372,426s12.316,13.741,12.316,13.992-.841,10.806-.841,10.806l-.873.76-.38.327s-.589,4.611-1.007,5.992a10.757,10.757,0,0,0,.08,4.038h0a12.468,12.468,0,0,1-.305,2.142,4.472,4.472,0,0,1-.284.787,1.965,1.965,0,0,0,.086,1.424,8.62,8.62,0,0,0,.921,1.762Z" transform="translate(-214.243 -219.322)" fill="#3f3d56"/>
      <path id="Path_3860" data-name="Path 3860" d="M1020.026,470.016c.129.262-13.007,12.252-18.7,17.43l-2.581,2.34L997,468.088h4.525s1.51-2.179,1.007-3.186a9.316,9.316,0,0,1-.584-2.929,11.674,11.674,0,0,0,.08-4.064c-.418-1.387-1.007-5.992-1.007-5.992l-.573-.493-.68-.594s-.841-10.555-.841-10.806,12.316-13.992,12.316-13.992l2.934,1.173s.064.316.172.819c.4,1.826,1.344,6.148,1.671,6.806a29.876,29.876,0,0,1,2.26,10.217C1018.42,449.993,1019.855,469.678,1020.026,470.016Z" transform="translate(-279.005 -219.336)" fill="#3f3d56"/>
      <path id="Path_3861" data-name="Path 3861" d="M1017.974,836.266c-.787,1.564-6.313.535-7.454.45s-9.195-4.139-9.307-5.087-2.9-2.9-3.684-2.9-4.578-3.02-4.916-3.465a1.711,1.711,0,0,1-.113-.7c-.118-1.837.113-6.565.113-6.565l16.2.894,7.872,11.84a15.269,15.269,0,0,1,1.425,4.054,2.678,2.678,0,0,1-.134,1.478Z" transform="translate(-276.9 -401.407)" fill="#3f3d56"/>
      <path id="Path_3862" data-name="Path 3862" d="M1017.974,836.266c-.787,1.564-6.313.535-7.454.45s-9.195-4.139-9.307-5.087-2.9-2.9-3.684-2.9-4.578-3.02-4.916-3.465a1.711,1.711,0,0,1-.113-.7c-.118-1.837.113-6.565.113-6.565l16.2.894,7.872,11.84a15.269,15.269,0,0,1,1.425,4.054,2.678,2.678,0,0,1-.134,1.478Z" transform="translate(-276.9 -401.407)" opacity="0.1"/>
      <path id="Path_3863" data-name="Path 3863" d="M1018,841.961c-.787,1.564-6.313.536-7.454.45s-9.194-4.139-9.307-5.087-2.9-2.9-3.684-2.9-4.578-3.02-4.916-3.465a1.71,1.71,0,0,1-.113-.7l5.248,3.32s3.352,2.142,4.247,3.411,7.941,3.909,8.525,3.963c.434.043,5.06-.846,7.588-.471A2.676,2.676,0,0,1,1018,841.961Z" transform="translate(-276.927 -407.102)" opacity="0.1"/>
      <path id="Path_3864" data-name="Path 3864" d="M874.416,827s-2.292,2.849-5.355,3.068a3.154,3.154,0,0,0-3.127,3.015s.536,1.735-6.87,4.139c-4.471,1.44-7.283.985-8.921,0a3.983,3.983,0,0,1-1.858-2.238c-.5-1.783,9.382-15.358,9.382-15.358l9-.536,6.426,2.9.985,3.679Z" transform="translate(-209.917 -401.914)" fill="#3f3d56"/>
      <path id="Path_3865" data-name="Path 3865" d="M874.416,827s-2.292,2.849-5.355,3.068a3.154,3.154,0,0,0-3.127,3.015s.536,1.735-6.87,4.139c-4.471,1.44-7.283.985-8.921,0a3.983,3.983,0,0,1-1.858-2.238c-.5-1.783,9.382-15.358,9.382-15.358l9-.536,6.426,2.9.985,3.679Z" transform="translate(-209.917 -401.914)" opacity="0.1"/>
      <path id="Path_3866" data-name="Path 3866" d="M876.044,832.689s-2.292,2.849-5.355,3.068a3.154,3.154,0,0,0-3.127,3.015s.536,1.735-6.87,4.139c-4.471,1.441-7.283.985-8.921,0,4.214-.439,13.527-3.1,14.458-4.022,1.119-1.119,2.517-4.193,3.465-4.247.659-.043,4.005-2.056,6.014-3.3Z" transform="translate(-211.545 -407.604)" fill="none"/>
      <path id="Path_3867" data-name="Path 3867" d="M876.044,832.689s-2.292,2.849-5.355,3.068a3.154,3.154,0,0,0-3.127,3.015s.536,1.735-6.87,4.139c-4.471,1.441-7.283.985-8.921,0,4.214-.439,13.527-3.1,14.458-4.022,1.119-1.119,2.517-4.193,3.465-4.247.659-.043,4.005-2.056,6.014-3.3Z" transform="translate(-211.545 -407.604)" opacity="0.1"/>
      <path id="Path_3868" data-name="Path 3868" d="M950.138,700.025c-1.007,2.345,0,7.149,0,7.149s-14.994.782-18.657-1.676-6.255-16.536-6.255-16.536.536-16.531,0-17.313-2.57-4.466-1.9-5.248-.536-4.916-1.451-6.7-.535-6.924-.535-6.924L919.1,639.139l-3.459-16.193-2.94-10.838s-3.015-8.825-4.038-12.509-2.1-.337-2.1-.337c-.107,3.577-8.375,19.663-8.375,19.663s-1.232,9.719-2.57,13.179-2.8,15.529-2.8,15.529-2.142,24.574-3.909,28.708a63.318,63.318,0,0,0-2.983,10.276s.45,8.493-.669,9.162-.937,5.81-.937,5.81.669,4.911-1.9,5.7-2.142,2.458-2.142,2.458-14.3,2.345-16.643-3.915.894-7.925,1.071-8.375,1.96-1.226.4-3.02,2.008-6.7,2.008-6.7.562-6.924,1.564-7.149.675-10.276.675-10.276l1.114-10.5s1.457-23.46,1.119-24.354a14.877,14.877,0,0,1,1.007-7.5c1.119-2.142,2.008-21.677,2.008-21.677s-.225-9.6.669-11.39c.535-1.012.76-4.905.889-8.081.1-2.426.118-4.434.118-4.434l12.509-4.691,16.065-5.135,13.516,6.48,19.776,3.8.246,3.411,3.775,52.109L944.3,658s.894,9.27,1.007,10.946,1.226,12.627,1.226,12.627,2.345,5.248.894,7.036a3.392,3.392,0,0,0-.894,3.213S951.144,697.679,950.138,700.025Z" transform="translate(-216.661 -287.395)" fill="#3f3d56"/>
      <path id="Path_3869" data-name="Path 3869" d="M947.412,352.813a8.312,8.312,0,0,0-.916,6.319,15.712,15.712,0,0,1-19.048-.712h0c-.337-2.271-.728-3.936-.728-3.936S951.1,347.533,947.412,352.813Z" transform="translate(-246.36 -184.406)" opacity="0.1"/>
      <path id="Path_3870" data-name="Path 3870" d="M948.78,328.16a15.615,15.615,0,1,1-4.573-11.117A15.69,15.69,0,0,1,948.78,328.16Z" transform="translate(-242.03 -166.586)" fill="#c37098"/>
      <path id="Path_3871" data-name="Path 3871" d="M921.649,350.174l-5.141,91.543-27.926-5.864-5.532-36.7,5.478-49.266,4.123.53,7.272.926,7.2.444,7.807-.868Z" transform="translate(-211.632 -162.527)" opacity="0.1"/>
      <path id="Path_3872" data-name="Path 3872" d="M921.649,351.428l-5.141,91.543-27.926-5.864-5.532-36.7,5.478-49.26,4.123.525,7.272.926,7.2.445,7.807-.868Z" transform="translate(-211.632 -163.112)" fill="#264653"/>
      <path id="Path_3873" data-name="Path 3873" d="M939.23,396.3l10.057.337-2.827,3.957s.2,7.995,1.542,10.287.948,37.7.948,37.7l-2.677,5.082-4.578-5.7.059-46.749Z" transform="translate(-252.171 -205.526)" fill="#3f3d56"/>
      <path id="Path_3874" data-name="Path 3874" d="M939.23,396.3l10.057.337-2.827,3.957s.2,7.995,1.542,10.287.948,37.7.948,37.7l-2.677,5.082-4.578-5.7.059-46.749Z" transform="translate(-252.171 -205.526)" opacity="0.1"/>
      <path id="Path_3875" data-name="Path 3875" d="M933.532,336.86l-9.382,10.389,5.36,5.585,8.884-8.659Z" transform="translate(-230.723 -156.474)" opacity="0.1"/>
      <path id="Path_3876" data-name="Path 3876" d="M933.532,335.61,924.15,346l5.36,5.585,8.884-8.659Z" transform="translate(-230.723 -155.894)" fill="#264653"/>
      <path id="Path_3877" data-name="Path 3877" d="M907.734,347.084l-9.5-9.494-.894,4.969,4.359,10.892Z" transform="translate(-218.27 -156.814)" opacity="0.1"/>
      <path id="Path_3878" data-name="Path 3878" d="M908.359,345.834l-9.494-9.494-.894,4.969,4.359,10.892Z" transform="translate(-218.563 -156.233)" fill="#264653"/>
      <path id="Path_3879" data-name="Path 3879" d="M950.033,586.267a46.354,46.354,0,0,1-14.458,4.182c-9.216,1.173-15.246-10.554-15.246-10.554l-3.518,4.578c-1.119,4.862-18.153,6.089-25.077,4.247a11.083,11.083,0,0,1-3.973-1.88c.1-2.426.118-4.434.118-4.434l12.509-4.691,16.065-5.135,13.516,6.479,19.776,3.8Z" transform="translate(-228.263 -287.409)" opacity="0.1"/>
      <path id="Path_3880" data-name="Path 3880" d="M948.609,391.474l-5.135,91.538-27.932-5.864L910,440.456l5.473-49.266,4.123.535a50.065,50.065,0,0,1-.605,5.355c-.669,3.133,3.465,25.361,3.465,25.361s7.856,24.927,11.39,21.334,8.568-22.566,8.568-22.566c3.411-7.036.059-26.775-.193-27.171a7.975,7.975,0,0,1-.321-1.794Z" transform="translate(-238.593 -203.152)" opacity="0.1"/>
      <path id="Path_3881" data-name="Path 3881" d="M1001.086,514.975l.236,8.97-2.581,2.34L997,504.57h3.855Z" transform="translate(-279.005 -255.818)" opacity="0.1"/>
      <path id="Path_3882" data-name="Path 3882" d="M891.018,493.1h0a12.445,12.445,0,0,1-.305,2.142c0-.2,0-.311-.043-.327C890.509,494.873,890.7,494.053,891.018,493.1Z" transform="translate(-229.587 -250.49)" opacity="0.1"/>
      <path id="Path_3883" data-name="Path 3883" d="M893.828,503.042l-1.762,21.7s-2.64-2.394-6.057-5.51l.407-3.845s1.44-9.446,1.965-14.1a8.616,8.616,0,0,0,.921,1.762Z" transform="translate(-227.45 -254.29)" opacity="0.1"/>
      <path id="Path_3884" data-name="Path 3884" d="M900.589,375.908s-1.671-2.458-3.963,2.286c0,0-5.976,3.465-8.032,3.856s-9.371,2.961-9.371,2.961a6.468,6.468,0,0,1-3.8,1.226c-2.292,0-4.193,5.028-3.914,7.765s-.166,4.75-2.287,4.862-.953,4.52-.953,4.52l14.132,16.2s.894,14.914.45,15.363-2.067,4.819-1.676,4.969-2.142,16.643-2.142,16.643l-3.406,32.007s0,5.355,6.929,7.2,23.974.626,25.072-4.236l3.518-4.584s6.03,11.733,15.246,10.56a44.319,44.319,0,0,0,15.085-4.525l-1.007-38.357-.669-27.648,14.389-23.642s-3.855-7.374-3.518-10.71,1-5.864-7.208-7.036c0,0-6.924-1.034-11-3.856a31.456,31.456,0,0,0-7.872-3.963s-2.3-4.284-3.9-2.817c0,0,1.606,6.056,1.473,6.961a23.036,23.036,0,0,0,.5,5.419c.252.423,3.6,20.135.193,27.171,0,0-5.007,18.973-8.568,22.566s-11.39-21.334-11.39-21.334-4.134-22.234-3.465-25.361S900.589,375.908,900.589,375.908Z" transform="translate(-219.061 -195.469)" fill="#3f3d56"/>
      <circle id="Ellipse_252" data-name="Ellipse 252" cx="2.458" cy="2.458" r="2.458" transform="translate(691.022 248.752)" fill="#3f3d56"/>
      <circle id="Ellipse_253" data-name="Ellipse 253" cx="2.458" cy="2.458" r="2.458" transform="translate(691.022 260.34)" fill="#3f3d56"/>
      <circle id="Ellipse_254" data-name="Ellipse 254" cx="2.458" cy="2.458" r="2.458" transform="translate(691.022 248.752)" opacity="0.1"/>
      <circle id="Ellipse_255" data-name="Ellipse 255" cx="2.458" cy="2.458" r="2.458" transform="translate(691.022 260.34)" opacity="0.1"/>
      <path id="Path_3885" data-name="Path 3885" d="M992.47,804.34s10.089.782,11.09,1.564S992.47,804.34,992.47,804.34Z" transform="translate(-276.901 -395.062)" stroke="#264653" stroke-miterlimit="10" stroke-width="1" opacity="0.1"/>
      <path id="Path_3886" data-name="Path 3886" d="M880.3,789.53s2.142,2.677,1.232,3.909S880.3,789.53,880.3,789.53Z" transform="translate(-224.797 -388.183)" stroke="#264653" stroke-miterlimit="10" stroke-width="1" opacity="0.1"/>
      <path id="Path_3887" data-name="Path 3887" d="M885.1,806.3s3.909-2.57,5.473-.862S885.1,806.3,885.1,806.3Z" transform="translate(-227.027 -395.302)" stroke="#264653" stroke-miterlimit="10" stroke-width="1" opacity="0.1"/>
      <path id="Path_3888" data-name="Path 3888" d="M948.789,328.165a15.61,15.61,0,0,1-.5,3.968,1.783,1.783,0,0,1-1.039-1.746c.069-.637.493-1.221.4-1.853-.134-.975-1.312-1.371-1.933-2.142-.766-.932-.6-2.287-.536-3.491s-.241-2.677-1.371-3.09c-.337-.123-.707-.134-1.033-.273-.889-.375-1.162-1.478-1.757-2.238-1.189-1.532-3.55-1.5-5.355-.771a25.453,25.453,0,0,1-2.41,1.007,3.149,3.149,0,0,1-2.522-.187c-.353-.225-.637-.535-1-.76-1.21-.728-2.8,0-3.845.937s-1.89,2.2-3.213,2.769c-.594.268-1.328.428-1.606,1.007a2.106,2.106,0,0,0-.171,1,29.952,29.952,0,0,1-.187,6.238c-.279,1.312-1.2,2.8-2.533,2.64a2.5,2.5,0,0,1-.487-.123,15.69,15.69,0,1,1,31.112-2.9Z" transform="translate(-242.039 -166.591)" opacity="0.1"/>
      <path id="Path_3889" data-name="Path 3889" d="M911.559,320.664c.4.091.782.3,1.194.353,1.334.161,2.255-1.328,2.533-2.64a28.85,28.85,0,0,0,.193-6.239,2.042,2.042,0,0,1,.166-1c.305-.578,1.039-.739,1.607-1.007,1.3-.578,2.142-1.81,3.213-2.768s2.629-1.665,3.839-.937c.359.214.648.535,1,.76a3.213,3.213,0,0,0,2.527.187c.83-.246,1.607-.68,2.4-1.007,1.789-.728,4.155-.755,5.355.766.594.766.868,1.864,1.757,2.238.327.139.7.155,1.034.278,1.13.423,1.419,1.885,1.371,3.09s-.209,2.56.536,3.491c.621.76,1.8,1.157,1.933,2.142.086.632-.332,1.221-.4,1.853a1.778,1.778,0,0,0,1.676,1.9c1.392,0,2.254-1.558,3.556-2.056a4.225,4.225,0,0,0,1.606-.664,1.772,1.772,0,0,0,.332-1.451c-.262-2.051-1.906-3.834-1.729-5.89.166-1.971,1.992-3.69,1.606-5.628a4.561,4.561,0,0,0-1.071-1.912,6.189,6.189,0,0,0-2.185-1.847,22.476,22.476,0,0,1-2.286-.787c-2.024-1.108-2.019-4-3.213-5.971a5.243,5.243,0,0,0-4.884-2.431c-1.5.15-2.87.948-4.359,1.216a11.3,11.3,0,0,1-6.041-1.071,16.52,16.52,0,0,0-5.96-1.607c-2.072,0-4.316,1.071-4.948,3.031-.332,1.071-.166,2.217-.423,3.293-.45,1.912-2.142,3.272-3.845,4.22-1.172.653-2.581,1.4-2.72,2.736a5.64,5.64,0,0,0,.669,2.426,6.174,6.174,0,0,1-.032,4.284c-.391,1.012-1.044,1.9-1.441,2.908a5.221,5.221,0,0,0,.139,4.284,4,4,0,0,0,2.447,2.008C909.771,321.462,910.435,320.417,911.559,320.664Z" transform="translate(-236.612 -157.087)" fill="#3f3d56"/>
      <g id="Group_411" data-name="Group 411" transform="translate(669.122 147.628)" opacity="0.1">
        <path id="Path_3890" data-name="Path 3890" d="M915.285,336.882c-.278,1.312-1.2,2.8-2.538,2.64-.412-.054-.787-.262-1.194-.353-1.119-.246-1.783.8-2.838.536a4.006,4.006,0,0,1-2.452-2.008,4.637,4.637,0,0,1-.5-1.751,4.889,4.889,0,0,0,.5,2.758,4.006,4.006,0,0,0,2.452,2.008c1.071.246,1.719-.8,2.838-.535a12.129,12.129,0,0,0,1.194.348c1.333.166,2.26-1.323,2.538-2.635a15.49,15.49,0,0,0,.257-3.518A13.217,13.217,0,0,1,915.285,336.882Z" transform="translate(-905.733 -324.387)"/>
        <path id="Path_3891" data-name="Path 3891" d="M908.973,320.289a6.165,6.165,0,0,0-.353-2.586A13.682,13.682,0,0,1,908,316.01a2.42,2.42,0,0,0-.053.273,5.739,5.739,0,0,0,.669,2.426A6.141,6.141,0,0,1,908.973,320.289Z" transform="translate(-906.758 -315.859)"/>
        <path id="Path_3892" data-name="Path 3892" d="M984.857,318.73c-.252,1.521-1.483,2.951-1.606,4.552a3.8,3.8,0,0,0,0,.825C983.518,322.237,985.173,320.583,984.857,318.73Z" transform="translate(-941.73 -317.122)"/>
        <path id="Path_3893" data-name="Path 3893" d="M980.236,339.83a1.259,1.259,0,0,1-.305.6c-.4.423-1.071.455-1.607.664-1.3.5-2.142,2.072-3.556,2.056a1.794,1.794,0,0,1-1.607-1.242,2.772,2.772,0,0,0-.075.353,1.778,1.778,0,0,0,1.676,1.89c1.4,0,2.255-1.558,3.556-2.051.535-.209,1.189-.241,1.606-.664a1.773,1.773,0,0,0,.332-1.451C980.252,339.921,980.241,339.878,980.236,339.83Z" transform="translate(-937.017 -326.923)"/>
        <path id="Path_3894" data-name="Path 3894" d="M971.7,335.618c-.134-.975-1.312-1.371-1.933-2.142a2.936,2.936,0,0,1-.589-1.756,3.954,3.954,0,0,0,.589,2.763c.616.75,1.553,1.071,1.853,1.842A1.714,1.714,0,0,0,971.7,335.618Z" transform="translate(-935.197 -323.156)"/>
        <path id="Path_3895" data-name="Path 3895" d="M948.16,322.583c.043-1.2-.246-2.677-1.376-3.09-.332-.123-.7-.139-1.028-.273-.889-.375-1.167-1.478-1.757-2.238-1.194-1.526-3.556-1.5-5.355-.771-.8.327-1.569.76-2.4,1.007a3.149,3.149,0,0,1-2.522-.187c-.353-.225-.643-.535-1-.76-1.216-.728-2.8,0-3.845.937s-1.891,2.19-3.213,2.769c-.6.268-1.328.428-1.639,1.007a2.1,2.1,0,0,0-.166,1v.627a1.521,1.521,0,0,1,.155-.621c.311-.578,1.039-.739,1.639-1.007,1.3-.578,2.142-1.81,3.213-2.769s2.629-1.665,3.845-.937c.359.214.648.536,1,.755a3.127,3.127,0,0,0,2.522.187,24.727,24.727,0,0,0,2.4-1c1.794-.728,4.156-.76,5.355.766.589.76.867,1.864,1.756,2.238.327.139.7.155,1.028.278a2.57,2.57,0,0,1,1.36,2.388Z" transform="translate(-914.147 -315.727)"/>
      </g>
      <g id="Group_412" data-name="Group 412" transform="translate(676.76 155.883)" opacity="0.1">
        <path id="Path_3896" data-name="Path 3896" d="M920,335.351a4.107,4.107,0,0,1,3.1-3.84,12.852,12.852,0,0,1,7.218.327c5.082,1.681-.643,7.733-.643,7.733s-3.807,3.748-7.358,1.13a5.563,5.563,0,0,1-2.072-3.213A8.192,8.192,0,0,1,920,335.351Z" transform="translate(-919.997 -331.144)"/>
        <path id="Path_3897" data-name="Path 3897" d="M961.4,335.351a4.107,4.107,0,0,0-3.1-3.84,12.852,12.852,0,0,0-7.213.327c-5.082,1.681.643,7.733.643,7.733s3.8,3.748,7.358,1.13a5.564,5.564,0,0,0,2.072-3.213A8.208,8.208,0,0,0,961.4,335.351Z" transform="translate(-933.461 -331.144)"/>
        <path id="Path_3898" data-name="Path 3898" d="M910.5,291.438v.252h9.28v-.3Z" transform="translate(-901.143 -291.237)"/>
        <path id="Path_3899" data-name="Path 3899" d="M942.777,335.251h.295V334.4a2.438,2.438,0,0,1,2.506,0v.76h.535v-.5h-.262s.107-1.033-1.639-.868c0,0-1.4-.134-1.371.755h-.321Z" transform="translate(-930.459 -332.367)"/>
      </g>
      <path id="Path_3900" data-name="Path 3900" d="M920,334.7a4.107,4.107,0,0,1,3.1-3.84,12.921,12.921,0,0,1,7.218.327c5.082,1.687-.643,7.733-.643,7.733s-3.807,3.748-7.358,1.13a5.531,5.531,0,0,1-2.072-3.213A8.145,8.145,0,0,1,920,334.7Z" transform="translate(-243.237 -174.961)" fill="#264653"/>
      <path id="Path_3901" data-name="Path 3901" d="M961.4,334.7a4.107,4.107,0,0,0-3.1-3.84,12.9,12.9,0,0,0-7.213.327c-5.082,1.687.643,7.733.643,7.733s3.8,3.748,7.358,1.13a5.532,5.532,0,0,0,2.072-3.213A8.14,8.14,0,0,0,961.4,334.7Z" transform="translate(-256.701 -174.961)" fill="#264653"/>
      <path id="Path_3902" data-name="Path 3902" d="M910.5,290.808v.257h9.28v-.305Z" transform="translate(-224.383 -135.061)" fill="#264653"/>
      <path id="Path_3903" data-name="Path 3903" d="M942.777,334.622h.295v-.851a2.453,2.453,0,0,1,2.506,0v.766h.535v-.5h-.262s.107-1.028-1.639-.867c0,0-1.4-.129-1.371.755h-.321Z" transform="translate(-253.699 -176.192)" fill="#264653"/>
    </g>
  </g>
</svg>
