<svg xmlns="http://www.w3.org/2000/svg" width="550" height="325" viewBox="0 0 895 495.639">
  <g id="Group_2" data-name="Group 2" transform="translate(-885 -260.361)">
    <ellipse id="Ellipse_8" data-name="Ellipse 8" cx="41.5" cy="41" rx="41.5" ry="41" transform="translate(954 674)" fill="rgba(42,157,143,0.62)"/>
    <circle id="Ellipse_7" data-name="Ellipse 7" cx="194" cy="194" r="194" transform="translate(1392 368)" fill="#f4a261"/>
    <ellipse id="Ellipse_6" data-name="Ellipse 6" cx="179.5" cy="180" rx="179.5" ry="180" transform="translate(885 268)" fill="#e9c46a"/>
    <g id="Election" transform="translate(946.291 260.361)">
      <path id="Path_198" data-name="Path 198" d="M927.116,586.907c-11.6,13.076-12.016,32.124-12.016,32.124s18.378-2.153,29.973-15.229,12.016-32.124,12.016-32.124S938.711,573.831,927.116,586.907Z" transform="translate(-397.657 -250.703)" fill="#3f3d56"/>
      <path id="Path_199" data-name="Path 199" d="M930.679,583.936c-3.509,17.337-18.257,28.835-18.257,28.835s-9.06-16.61-5.552-33.947,18.257-28.835,18.257-28.835S934.187,566.6,930.679,583.936Z" transform="translate(-394.669 -243.97)" fill="#264653"/>
      <path id="Path_200" data-name="Path 200" d="M575.783,233.581V440.253L508.9,497.163H166.746V280.507l99.836-46.926Z" transform="translate(-54.833 -72.509)" fill="#3f3d56"/>
      <path id="Path_201" data-name="Path 201" d="M575.783,233.581v.828l-24.009,16.554L508.9,280.507H166.746l99.836-46.926Z" transform="translate(-54.833 -72.509)" opacity="0.1"/>
      <path id="Path_202" data-name="Path 202" d="M744.724,233.581V440.253l-66.881,56.91.485-217.156,42.387-29.044,23.622-17.382Z" transform="translate(-223.774 -72.509)" opacity="0.1"/>
      <path id="Path_203" data-name="Path 203" d="M540.2,270.8H331.8l15.509-8.986H546.984Z" transform="translate(-109.392 -81.273)" fill="#2f2e41"/>
      <path id="Path_204" data-name="Path 204" d="M1034.946,738.332s4.04,17.4.367,18.159-21.669.513-26.077,1.269-13.589-.512-13.589-3.917,9.549-5.675,9.549-5.675,13.589-7.566,13.956-7.944S1034.946,738.332,1034.946,738.332Z" transform="translate(-424.282 -302.436)" fill="#2f2e41"/>
      <path id="Path_205" data-name="Path 205" d="M1039.256,588.806s-1.1,12.863-1.1,14,1.1,18.916,0,19.672.735,6.053.735,7.945,5.876,33.292,4.407,45.4,2.2,10.971,1.1,12.106-1.1,1.135-1.1,3.4-11.753,4.161-11.753,4.161l-12.853-83.607,6.611-24.969Z" transform="translate(-431.898 -255.433)" fill="#575a89"/>
      <path id="Path_206" data-name="Path 206" d="M1039.256,588.806s-1.1,12.863-1.1,14,1.1,18.916,0,19.672.735,6.053.735,7.945,5.876,33.292,4.407,45.4,2.2,10.971,1.1,12.106-1.1,1.135-1.1,3.4-11.753,4.161-11.753,4.161l-12.853-83.607,6.611-24.969Z" transform="translate(-431.898 -255.433)" opacity="0.1"/>
      <path id="Path_207" data-name="Path 207" d="M1027.085,745.142s3.673,13.619,0,14.376-21.669-.867-26.076-.11-13.589.867-13.589-2.538,9.549-5.675,9.549-5.675,13.589-7.566,13.956-7.945S1027.085,745.142,1027.085,745.142Z" transform="translate(-421.561 -303.95)" fill="#2f2e41"/>
      <path id="Path_208" data-name="Path 208" d="M1036.4,567.713s4.407,10.971-.734,16.646-11.018,17.024-11.018,17.781,10.284,76.041,8.815,80.959-1.1,7.944-.735,8.7-3.673,4.918-8.08,4.918-11.018-3.4-11.753-6.431,1.1-29.13.734-34.048a58.446,58.446,0,0,0-2.938-13.619c-.735-1.513-4.775-3.027-5.509-7.566s-6.611-62.422-4.775-64.313S1036.4,567.713,1036.4,567.713Z" transform="translate(-425.739 -249.472)" fill="#575a89"/>
      <ellipse id="Ellipse_4" data-name="Ellipse 4" cx="12.487" cy="12.863" rx="12.487" ry="12.863" transform="translate(570.267 205.503)" fill="#ffb9b9"/>
      <path id="Path_209" data-name="Path 209" d="M1015.836,431.413s-2.571,14-.735,15.511-13.956,3.783-13.956,3.783-1.836-18.537-2.2-20.429S1015.836,431.413,1015.836,431.413Z" transform="translate(-425.368 -206.617)" fill="#ffb9b9"/>
      <path id="Path_210" data-name="Path 210" d="M995.489,453.975s4.407-13.241,22.4-9.458c0,0,3.306,1.135,2.2,2.27s-2.2,1.135-.735,2.27,3.305,0,2.2,1.135,9.917,7.945,9.182,20.807,2.571,31.022,0,34.048,1.836,16.268,1.1,18.916,4.407,6.053,2.2,7.188-41.869,7.944-42.971,0-.367-2.27-1.469-4.161-1.469-5.3-.734-9.458,2.571-14.376,1.836-18.159,0-35.561,2.2-39.345A19.966,19.966,0,0,0,995.489,453.975Z" transform="translate(-421.917 -211.018)" fill="#264653"/>
      <path id="Path_211" data-name="Path 211" d="M1006.469,592.06s5.509,21.564-1.469,21.564-6.611-22.32-6.611-22.32Z" transform="translate(-425.186 -256.795)" fill="#ffb9b9"/>
      <path id="Path_212" data-name="Path 212" d="M1004.43,414.852c0,1.1,1.543,1.793,3.933,1.952h0a19.414,19.414,0,0,0,3.041-.06c1.528-.144,2.16,1.335,2.42,3.288.426,3.219-.169,7.733.518,8.44.948.976,7.856,0,10.016-2.217a2.072,2.072,0,0,0,.635-1.188,6.378,6.378,0,0,1,1.844-3.53c1.274-1.434,3.089-3.023,5.134-5.55,3.673-4.54,0-4.918-1.1-8.323s-2.938-4.54-2.938-6.81-8.447-4.162-15.425-3.783-5.509,9.458-5.509,9.458-.415,1.1-.911,2.512a40.356,40.356,0,0,0-1.631,5.455,2.876,2.876,0,0,0-.029.356Z" transform="translate(-427.184 -196.486)" fill="#2f2e41"/>
      <path id="Path_213" data-name="Path 213" d="M1003.987,466.765s12.487-.757,13.589,18.159.735,36.7.735,37.075-5.142,36.318-9.916,36.318-8.447-.757-9.549-2.648,2.938-29.13,2.938-29.13,1.836-28.752-1.1-37.831S997.379,467.9,1003.987,466.765Z" transform="translate(-425.275 -218.135)" opacity="0.1"/>
      <path id="Path_214" data-name="Path 214" d="M1001.247,464.022s12.487-.757,13.589,18.159.735,36.7.735,37.075-5.142,36.318-9.916,36.318-8.447-.757-9.549-2.648,2.938-29.13,2.938-29.13,1.836-28.752-1.1-37.831S994.636,465.157,1001.247,464.022Z" transform="translate(-424.37 -217.283)" fill="#264653"/>
      <path id="Path_215" data-name="Path 215" d="M689.493,190.512s-5.442-15.883-9.372-10.9S686.167,193,686.167,193Z" transform="translate(-319.682 -128.697)" fill="#a0616a"/>
      <path id="Path_216" data-name="Path 216" d="M717.584,173.273l-3.274,1.25s-1.564,7.159-.959,8.4.907.311,0,2.8-3.628,9.031-3.93,9.966-17.535-5.917-17.535-9.343c0,0-3.628,4.36-5.442,5.294,0,0,19.954,14.948,22.675,16.817s4.233.934,6.651-1.246,12.7-20.243,12.7-20.243Z" transform="translate(-322.075 -127.029)" fill="#575a89"/>
      <path id="Path_217" data-name="Path 217" d="M704.484,332.7s.3,3.426.907,3.737,5.14,8.1,0,9.654-8.163.934-9.372,1.557-22.373,1.869-22.675-1.557,10.279-4.049,10.279-4.049,9.675-6.54,11.186-9.966S704.484,332.7,704.484,332.7Z" transform="translate(-317.743 -175.897)" fill="#2f2e41"/>
      <path id="Path_218" data-name="Path 218" d="M801.257,342.628s7.256,12.768,5.442,14.325-19.48,7.232-22.07,7.474c-3.326.311-5.745-2.491-3.023-4.048s8.465-8.1,8.465-10.277V344.5Z" transform="translate(-353.142 -179.601)" fill="#2f2e41"/>
      <path id="Path_219" data-name="Path 219" d="M782.519,221.6s6.349,8.1-3.628,21.177l-16.628,21.8s10.28,16.817,10.582,25.537,2.419,6.851,3.023,10.588,3.326,1.868,1.209,4.671-9.977,5.294-12.4,3.114a7.842,7.842,0,0,1-2.419-6.228c0-1.246-4.232-8.408-4.535-10.588s-11.489-19.931-11.489-19.931-3.628-10.588.6-16.505,7.03-14.309,7.03-14.309-12.472,15.555-21.239,19.292c0,0-3.326.623-2.721,2.18s0,2.491-.907,4.048-7.256,19.62-9.372,24.291-1.209,7.474-3.628,9.031-13.3.311-13.3-1.246,1.512-5.606,2.419-7.786,8.163-27.405,7.558-31.765.3-10.277,4.837-12.768,27.513-22.734,28.722-22.734S782.519,221.6,782.519,221.6Z" transform="translate(-327.449 -142.03)" fill="#2f2e41"/>
      <ellipse id="Ellipse_5" data-name="Ellipse 5" cx="12.698" cy="13.08" rx="12.698" ry="13.08" transform="translate(381.601 4.513)" fill="#a0616a"/>
      <path id="Path_220" data-name="Path 220" d="M740.414,133.531s3.93,7.163,8.768,8.1-12.7,15.26-12.7,15.26-4.233-13.7-7.861-14.325S740.414,133.531,740.414,133.531Z" transform="translate(-335.835 -114.693)" fill="#a0616a"/>
      <path id="Path_221" data-name="Path 221" d="M727.992,165.685c0,4.049,11.791,15.571,11.791,15.571l11.186,9.654s.3,3.426,1.512,3.737,2.721.311,1.512,2.18-4.233,5.917-1.512,6.54a21.6,21.6,0,0,0,2.476.243c.726.044,1.578.084,2.537.121,2.237.081,5.037.134,8.069.112q1.293,0,2.63-.031c11.432-.234,24.674-1.588,23.591-6.051-1.814-7.474-.6-9.966-4.535-14.014s-10.279-18.063-10.279-18.063-12.7-22.111-23.28-22.111l-2.2-.595A4.965,4.965,0,0,0,746,145.152c-2.122,3.329-5.469,8.331-7.425,9.944-3.023,2.491-3.5.7-3.5.7S727.992,161.636,727.992,165.685Z" transform="translate(-335.809 -117.572)" fill="#575a89"/>
      <path id="Path_222" data-name="Path 222" d="M765.665,244.628s-8.768,14.014-3.326,16.505S770.8,246.5,770.8,246.5Z" transform="translate(-346.574 -149.18)" fill="#a0616a"/>
      <path id="Path_223" data-name="Path 223" d="M732.724,122.328c-.487-.063-.641-.7-.723-1.2-.439-2.671-2.372-5.2-4.969-5.636a6.84,6.84,0,0,0-2.961.246,11.1,11.1,0,0,0-3.8,1.926,6.244,6.244,0,0,1-1.9,1.228c-.476.144-2.5,1.071-2.972,1.227-1.039.345-1.9,1.465-2.97,1.243-1.024-.212-1.413-1.486-1.578-2.549-.375-2.421.97-6.032,2.307-8.06a8.286,8.286,0,0,1,4.449-3,31.149,31.149,0,0,1,6.171-1.263,19.389,19.389,0,0,1,8.457.373,8.208,8.208,0,0,1,5.677,5.982c.105.6.125,1.216.254,1.811.315,1.453,1.248,2.674,1.792,4.053a8.018,8.018,0,0,1-.231,6.327c-.754,1.562-2.065,3.062-1.782,4.782l-2.333-1.895a1.769,1.769,0,0,1-.779-2.043l.339-3.009a2.72,2.72,0,0,0-.151-1.627C733.988,119.384,733.537,122.433,732.724,122.328Z" transform="translate(-330.123 -106.212)" fill="#2f2e41"/>
      <path id="Path_224" data-name="Path 224" d="M771.471,193.7l-2.848,12.2c2.872.106,6.672.162,10.7.081,1.016-3.139,1.986-6.412,2.73-9.477,2.721-11.211-1.814-28.34-4.233-36.436s-8.465-10.277-8.465-10.277a27.3,27.3,0,0,0-6.954,3.737C758.471,156.329,771.471,193.7,771.471,193.7Z" transform="translate(-346.938 -119.74)" opacity="0.1"/>
      <path id="Path_225" data-name="Path 225" d="M770.549,195.89l-2.966,12.7c.726.044,1.578.084,2.537.121,2.237.081,5.037.134,8.069.112,1.091-3.335,2.146-6.854,2.942-10.131,2.721-11.211-1.814-28.34-4.233-36.436s-7.709.779-7.709.779,2.116-5.294-1.814-2.491S770.549,195.89,770.549,195.89Z" transform="translate(-348.435 -122.552)" opacity="0.1"/>
      <path id="Path_226" data-name="Path 226" d="M767.548,148.886s6.047,2.18,8.465,10.277,6.954,25.225,4.233,36.436-8.465,25.225-8.465,25.225-5.744-4.36-7.861-3.426l5.744-24.6s-13-37.371-9.07-40.174a27.3,27.3,0,0,1,6.954-3.737Z" transform="translate(-346.341 -119.459)" fill="#575a89"/>
      <path id="Path_227" data-name="Path 227" d="M525.13,188.374,441.483,8.828,301.62,77.963l51.438,110.411Z" transform="translate(-99.415 -2.74)" fill="#f2f2f2"/>
      <path id="Path_230" data-name="Path 230" d="M.06.966,82.921,0l-.06,5.239L0,6.205Z" transform="translate(239.005 112.44) rotate(-25.635)" fill="#3f3d56"/>
      <path id="Path_231" data-name="Path 231" d="M.06.966,82.921,0l-.06,5.239L0,6.205Z" transform="translate(258.673 154.659) rotate(-25.635)" fill="#3f3d56"/>
      <path id="Path_232" data-name="Path 232" d="M.24.24,20.812,0l-.24,20.957L0,21.2Z" transform="translate(328.179 60.729) rotate(-25.635)" fill="#3f3d56"/>
      <path id="Path_233" data-name="Path 233" d="M.24.24,20.812,0l-.24,20.957L0,21.2Z" transform="translate(347.847 102.947) rotate(-25.635)" fill="#3f3d56"/>
      <path id="Path_228" data-name="Path 228" d="M510.22,55.924l-7.6,22.261-10.239-3.707-1.4,4.106L505.2,83.729l9.009-26.362Z" transform="translate(-162.009 -17.36)" fill="#57b894"/>
      <path id="Path_229" data-name="Path 229" d="M539.6,117.146,532,139.407,521.765,135.7l-1.4,4.106,14.212,5.145,9.01-26.362Z" transform="translate(-171.72 -36.365)" fill="#57b894"/>
      <g id="woman" transform="translate(0 205.299)">
        <path id="Path_234" data-name="Path 234" d="M.237.237,38.931,0l-.237,39.754L0,39.991Z" transform="translate(46.427 178.848) rotate(167.942)" fill="#f2f2f2"/>
        <path id="right_hand" data-name="right hand" d="M204.495,591.492s-13.881,10.213-9.254,14.3,13.881-12.255,13.881-12.255Z" transform="translate(-159.399 -462.153)" fill="#ffb9b9"/>
        <path id="left_leg" data-name="left leg" d="M294.584,613.728s-2.644,34.043-3.3,38.808-1.322,47.659-2.644,52.425-2.644,16.34-2.644,16.34H278.06s.661-21.106-1.322-29.276-1.322-30.638-1.322-30.638-3.966-40.17-1.983-45.617S294.584,613.728,294.584,613.728Z" transform="translate(-185.373 -468.73)" fill="#ffb9b9"/>
        <path id="left_shoe" data-name="left shoe" d="M285.262,767.239s3.3,2.042,3.3,3.4-.661,4.766,0,6.128,5.288,6.809,2.644,8.17-14.542,0-14.542,0,.661-9.532,1.322-10.213-.661-7.489-.661-7.489Z" transform="translate(-186.626 -516.709)" fill="#2f2e41"/>
        <path id="right_leg" data-name="right leg" d="M228.1,612.931s-.84,34.14-.668,38.951-3.542,47.539-2.713,52.422.964,16.536.964,16.536l7.888.858s1.494-21.061,4.3-28.972S242.3,662.4,242.3,662.4s8.037-39.52,6.621-45.151S228.1,612.931,228.1,612.931Z" transform="translate(-169.414 -468.767)" fill="#ffb9b9"/>
        <path id="right_shoe" data-name="right shoe" d="M225.328,766.842s-3.495,1.674-3.634,3.028.172,4.811-.624,6.094-5.952,6.2-3.462,7.839,14.461,1.572,14.461,1.572.314-9.551-.274-10.3,1.421-7.376,1.421-7.376Z" transform="translate(-166.881 -516.586)" fill="#2f2e41"/>
        <path id="pants" d="M269.607,540.15s5.288.681,7.271,12.255,9.254,40.851,3.3,42.894-23.8,6.128-24.456,4.766-1.983-4.766-1.983-4.766,1.983,6.128-.661,6.128-28.422-4.085-27.761-6.128,1.983-17.021,1.983-17.021,3.966-25.191,7.932-29.277a11.35,11.35,0,0,0,3.3-8.851Z" transform="translate(-169.649 -446.216)" fill="#2f2e41"/>
        <path id="left_hand" data-name="left hand" d="M301.279,531.92s-8.593-2.042-9.915.681,3.3,6.809,5.288,6.809,5.288-2.043,5.288-2.043Z" transform="translate(-191.407 -443.433)" fill="#ffb9b9"/>
        <ellipse id="head" cx="11.898" cy="12.255" rx="11.898" ry="12.255" transform="translate(80.128 6.104)" fill="#ffb9b9"/>
        <path id="neck" d="M265.9,440.525s-1.983,9.532-.661,9.532-9.915,6.128-9.915,6.128l-8.593-1.362-2.644-4.085s13.881-9.532,13.881-14.979S265.9,440.525,265.9,440.525Z" transform="translate(-175.856 -413.314)" fill="#ffb9b9"/>
        <path id="upper_body" data-name="upper body" d="M253.1,456.6a9.587,9.587,0,0,1,2.644-1.362h5.288c.661,0,9.254,2.042,9.254,2.042l5.288,30.638s-9.254,15.659-2.644,27.915c0,0-1.983-1.362-11.237-.681s-25.778,2.723-26.439,2.723-.661-5.447,0-6.809-.661-.681-.661-4.085-1.983-9.532-1.983-9.532l-9.254-34.723s11.9-6.808,13.881-6.128,7.932,2.723,9.254,2.043A59.825,59.825,0,0,1,253.1,456.6Z" transform="translate(-169.003 -419.857)" fill="#264653"/>
        <path id="left_arm" data-name="left arm" d="M290.492,458.862l1.983-.681s3.966-.681,8.593,3.4,21.813,16.34,21.813,16.34,6.61,5.447,4.627,11.574-5.288,21.106-15.2,20.426c0,0-5.949,8.17-9.254,6.808s-5.949-6.808-3.966-7.489,7.271-7.489,7.271-7.489l-6.61-12.936h-1.983l-7.271-4.085Z" transform="translate(-191.195 -420.758)" fill="#264653"/>
        <path id="right_arm" data-name="right arm" d="M223.006,465.112l-5.288.681s-4.627,2.042-3.966,10.894-3.966,49.021-1.983,53.787c0,0-6.61,23.149-5.288,23.83s9.254,4.766,8.593,2.042,7.271-21.787,7.271-21.787,9.254-10.213,5.288-24.511V498.473Z" transform="translate(-163.368 -422.922)" fill="#264653"/>
        <path id="hair" d="M277.71,434.138l-8.4,1.886-1.08-4.262.415,4.411-13.556,3.042-.6-2.353.229,2.435-8.682,1.948-1.857-18.365c-1.909-7.536,5.059-15.568,12.376-17.535l3.246-.873c5.373-1.445,15.141-.131,16.543,5.4C273.89,419.528,269.7,430.106,277.71,434.138Z" transform="translate(-175.782 -403.93)" fill="#2f2e41"/>
      </g>
    </g>
  </g>
</svg>
