<svg xmlns="http://www.w3.org/2000/svg" xmlns:xlink="http://www.w3.org/1999/xlink" width="500" height="500" viewBox="0 0 675 600">
  <defs>
    <filter id="Large_Comfy_Pillow" x="71.467" y="278.144" width="578.618" height="285.603" filterUnits="userSpaceOnUse">
      <feOffset dy="5" input="SourceAlpha"/>
      <feGaussianBlur stdDeviation="10" result="blur"/>
      <feFlood flood-opacity="0.2"/>
      <feComposite operator="in" in2="blur"/>
      <feComposite in="SourceGraphic"/>
    </filter>
    <filter id="Thighs_" x="170.946" y="304.994" width="369.054" height="155.08" filterUnits="userSpaceOnUse">
      <feOffset dy="5" input="SourceAlpha"/>
      <feGaussianBlur stdDeviation="10" result="blur-2"/>
      <feFlood flood-opacity="0.161"/>
      <feComposite operator="in" in2="blur-2"/>
      <feComposite in="SourceGraphic"/>
    </filter>
  </defs>
  <g id="Group_455" data-name="Group 455" transform="translate(-1106 -1164)">
    <g id="Ellipse_212" data-name="Ellipse 212" transform="translate(1167 1164)" fill="rgba(247,245,154,0.97)" stroke="#707070" stroke-width="1">
      <circle cx="300" cy="300" r="300" stroke="none"/>
      <circle cx="300" cy="300" r="299.5" fill="none"/>
    </g>
    <g id="Ellipse_211" data-name="Ellipse 211" transform="translate(1492 1343)" fill="#f0fbc3" stroke="#707070" stroke-width="1">
      <ellipse cx="144.5" cy="144" rx="144.5" ry="144" stroke="none"/>
      <ellipse cx="144.5" cy="144" rx="144" ry="143.5" fill="none"/>
    </g>
    <g id="Rectangle_10" data-name="Rectangle 10" transform="translate(1106 1354)" fill="#a291dc" stroke="#707070" stroke-width="1">
      <rect width="245" height="176" rx="88" stroke="none"/>
      <rect x="0.5" y="0.5" width="244" height="175" rx="87.5" fill="none"/>
    </g>
    <g transform="matrix(1, 0, 0, 1, 1106, 1164)" filter="url(#Large_Comfy_Pillow)">
      <path id="Large_Comfy_Pillow-2" data-name="Large Comfy Pillow" d="M255.836,13.447C345.343.739,359.784-45.475,399.257-47.92,455.037-51.376,514.6-.48,510.792,68.066,504.3,184.84,341.561,137.2,255.836,137.2S43.3,263.912-2.889,68.066,255.836,13.447,255.836,13.447Z" transform="translate(109.12 351.23)" fill="#583a15"/>
    </g>
    <g id="Character_Design_7" data-name="Character Design 7" transform="translate(1306.946 1382.367)">
      <path id="Top_Back_" data-name="Top (Back)" d="M7845.249-10275.432l17.543,3.618,17.918-3.618-17.918,26.239Z" transform="translate(-7708.245 10277.421)" fill="#173eff"/>
      <g id="Group_396" data-name="Group 396" transform="translate(98.708 1.412)">
        <path id="Torso" d="M22.4,2.073,63.494-6.876l40.9,8.949c13.657,0,17.525,3.624,17.525,17.281,0,0-4.256,3.806-5.569,14.989-.487,4.153,2.541,8.509,1.052,16.736s-5.439,12-7.009,16.171a136.333,136.333,0,0,0-6,19.727v31.357c24.728,41.375,13.657,52.447,0,52.447H22.4c-13.657,0-24.728-11.071,0-52.447V89.106a205.092,205.092,0,0,0-5.337-21.857c-1.421-4.737-5.551-11.212-6.428-16.171-.994-5.624,2.162-12.084,2.173-16.736.016-7.962-2.173-11.795-2.173-11.795S8.744,2.073,22.4,2.073Z" transform="translate(-7.719 6.876)" fill="#ffc89a"/>
      </g>
      <g id="Left_arm" data-name="Left arm" transform="translate(181.566 9.169)">
        <path id="Path_3508" data-name="Path 3508" d="M9.761,1.163,71.283,0a9.761,9.761,0,1,1,0,19.522L9.761,20.685a9.761,9.761,0,1,1,0-19.522Z" transform="translate(22.757 0) rotate(39)" fill="#8a602a"/>
        <path id="Path_3509" data-name="Path 3509" d="M10.335,1.163,75.478,0c5.708,0,10.336,4.37,10.336,9.761s-4.627,9.761-10.336,9.761L10.336,20.685C4.627,20.685,0,16.315,0,10.924S4.627,1.163,10.335,1.163Z" transform="matrix(0.891, -0.454, 0.454, 0.891, 0, 79.836)" fill="#8a602a"/>
      </g>
      <g id="Right_arm" data-name="Right arm" transform="translate(41.006 9.169)">
        <path id="Path_3508-2" data-name="Path 3508" d="M9.761,19.522l61.522,1.163a9.761,9.761,0,1,0,0-19.522L9.761,0a9.761,9.761,0,1,0,0,19.522Z" transform="translate(76.113 16.076) rotate(141)" fill="#8a602a"/>
        <path id="Path_3509-2" data-name="Path 3509" d="M10.335,19.522l65.143,1.163c5.708,0,10.335-4.37,10.336-9.761S81.186,1.163,75.478,1.163L10.336,0C4.627,0,0,4.37,0,9.761S4.627,19.522,10.335,19.522Z" transform="matrix(-0.891, -0.454, 0.454, -0.891, 76.461, 98.266)" fill="#8a602a"/>
      </g>
      <g id="Top" transform="translate(34.867 0)">
        <path id="Top-2" data-name="Top" d="M7875.25-10270.638s-31.746-8.938-56.4,8.253-48.7,40.989-48.181,54.982,10.5,28.708,25.85,37,31.038,8.085,40.317,17.736-3.7,9.138-3.7,9.138l58.9,28.211,54.446-28.211s-13.5.516-5.207-9.138,22.417-9.446,38.875-17.736,26.03-21.212,25.578-37-25.021-37.787-50.185-54.982-50.075-8.253-50.075-8.253-6.246,29.627-13.8,29.627S7881.2-10255.646,7875.25-10270.638Z" transform="translate(-7770.665 10272.961)" fill="#e9c46a"/>
        <path id="Right_Arm_Indicator_" data-name="Right Arm Indicator " d="M9.424,0S.1,3.512,0,9.6c-.032,1.882,5.677,5.733,13.742,10.247,17.514,9.8,46.169,22.561,46.169,22.561" transform="matrix(0.996, -0.087, 0.087, 0.996, 52.183, 56.219)" fill="none" stroke="#a8b7ff" stroke-width="1"/>
        <path id="Left_arm_Indicator_" data-name="Left arm Indicator " d="M9.424,42.411S.1,38.9,0,32.809,59.912,0,59.912,0" transform="matrix(-0.996, -0.087, 0.087, -0.996, 180.845, 98.469)" fill="none" stroke="#a8b7ff" stroke-width="1"/>
      </g>
      <g id="Leg" transform="translate(0 111.628)">
        <g transform="matrix(1, 0, 0, 1, -200.95, -329.99)" filter="url(#Thighs_)">
          <path id="Thighs_2" data-name="Thighs " d="M45.761.041C82.484-2.465,148.4,32.376,148.4,32.376S216.007-2.465,253.294.041,304.054,19,304.054,42.4,290.58,86.57,253.294,93.843,148.4,71.49,148.4,71.49,82.484,101.116,45.761,93.843-5,65.791-5,42.4,9.037,2.546,45.761.041Z" transform="translate(205.95 330.08)" fill="#d4d4d4"/>
        </g>
        <g id="Left_Leg" data-name="Left Leg" transform="translate(157.986 32.718)">
          <g id="Left_Leg_Indicator" data-name="Left Leg Indicator" transform="translate(0 0)">
            <path id="Path" d="M7959.407-10157.788a295.454,295.454,0,0,0-54.008,3.5c-28.287,4.627-59.135,15.026-59.135,15.026" transform="translate(-7846.264 10165.9)" fill="none" stroke="#727272" stroke-linecap="round" stroke-width="1"/>
            <path id="Path-2" data-name="Path" d="M0,8.346s4.778-1,7.54-3.085A10.221,10.221,0,0,0,11.048,0" transform="matrix(0.978, 0.208, -0.208, 0.978, 103.713, 0)" fill="none" stroke="#727272" stroke-linecap="round" stroke-width="1"/>
          </g>
        </g>
        <g id="Right_Leg" data-name="Right Leg" transform="translate(41.052 32.718)">
          <g id="Shoe" transform="translate(112.156 25.544)">
            <path id="Shoe-2" data-name="Shoe" d="M9.166,0c13.76,0,24.915,3.563,24.915,7.958S22.926,15.916,9.166,15.917c-3.027,0-5.971-.125-8.554-1.468s3.849-2.564,3.849-5.992c0-2.769-4.93-5.177-3.994-7.086C.626.8,4.074,0,9.166,0Z" transform="matrix(0.891, 0.454, -0.454, 0.891, 7.226, 0)" fill="#5e79ff"/>
            <path id="Feet" d="M3.582,0c5.534,0,8.353,2.485,8.353,6.88s-3.067,6.956-8.6,6.956A9.1,9.1,0,0,1,0,12.51s3.78-1.672,3.78-5.1C3.78,4.642.14.815.14.815A10.108,10.108,0,0,1,3.582,0Z" transform="matrix(0.891, 0.454, -0.454, 0.891, 7.034, 1.009)" fill="#927248"/>
          </g>
          <g id="Righ_leg_Indicator_" data-name="Righ leg Indicator " transform="translate(0 0)">
            <path id="Path-3" data-name="Path" d="M7864.418-10157.743a269.456,269.456,0,0,1,54.967,3.012c28.709,4.749,62.61,16.312,62.61,16.312" transform="translate(-7863.042 10165.856)" fill="none" stroke="#727272" stroke-linecap="round" stroke-width="1"/>
            <path id="Path-4" data-name="Path" d="M0,0S4.779,1,7.541,3.085a10.217,10.217,0,0,1,3.507,5.261" transform="matrix(-0.978, 0.208, -0.208, -0.978, 12.542, 8.163)" fill="none" stroke="#727272" stroke-linecap="round" stroke-width="1"/>
            <path id="Path-5" data-name="Path" d="M7.088.065s-4.157-.581-5.9,1.742S.13,9.357.13,9.357" transform="translate(120.444 36.67) rotate(172)" fill="none" stroke="#727272" stroke-linecap="round" stroke-width="1"/>
          </g>
        </g>
      </g>
      <g id="Laptop" transform="translate(102.006 82.337)">
        <rect id="Screen" width="109.566" height="59.141" transform="translate(0 0)" fill="#373737"/>
        <rect id="Body" width="109.566" height="6.225" transform="translate(0 57.896)" fill="#232323"/>
      </g>
    </g>
    <g id="Head_2" data-name="Head 2" transform="translate(1417.532 1279.703)">
      <path id="Hair" d="M51.056,3.205c35.872,0,44.927,21.977,44.927,51.2v51.9s-35.394,3.99-44.927,3.875c-11.255-.136-46.822-3.875-46.822-3.875v-51.9C4.234,25.182,15.185,3.205,51.056,3.205Z" transform="translate(-4.235 -3.205)" fill="#1c1c1c"/>
      <g id="Neck" transform="translate(32.58 72.349)">
        <path id="Neck-2" data-name="Neck" d="M0,0H25.846V37.11H0Z" transform="translate(0 2.3)" fill="#ffc89a"/>
        <ellipse id="Shadow_" data-name="Shadow " cx="12.5" cy="14" rx="12.5" ry="14" transform="translate(0.888 -0.051)" fill="#febd87"/>
      </g>
      <g id="Ears" transform="translate(10.909 52.937)">
        <circle id="Ellipse_209" data-name="Ellipse 209" cx="5" cy="5" r="5" transform="translate(-0.442 0.36)" fill="#fcc08e"/>
        <ellipse id="Ellipse_210" data-name="Ellipse 210" cx="5.5" cy="5" rx="5.5" ry="5" transform="translate(59.558 0.36)" fill="#fcc08e"/>
      </g>
      <g id="Face" transform="translate(15.189 5.033)" fill="#ffc89a">
        <path d="M 31.28488540649414 91.90973663330078 C 22.94675636291504 91.90973663330078 15.24869632720947 87.34410858154297 9.608785629272461 79.05389404296875 C 6.766315937042236 74.87570190429688 4.544305801391602 69.91195678710938 3.004476070404053 64.30055999755859 C 1.394886016845703 58.43497085571289 0.5787560343742371 52.02035140991211 0.5787560343742371 45.23487091064453 C 0.5787560343742371 39.59706115722656 1.83284604549408 37.99549865722656 2.244946002960205 37.46921157836914 C 2.822600126266479 36.73150253295898 4.987177848815918 32.85643005371094 5.971748828887939 31.07748985290527 L 6.655295848846436 32.62870025634766 L 6.760126113891602 32.86658096313477 L 7.015056133270264 32.91741943359375 C 7.167356014251709 32.94779968261719 22.33019638061523 35.96022033691406 29.69748687744141 36.44067001342773 C 29.71240615844727 36.4416618347168 29.72797584533691 36.44216918945313 29.74360656738281 36.44218063354492 C 30.11128616333008 36.44221115112305 30.39772605895996 36.17375183105469 30.70097541809082 35.88951873779297 C 30.81125450134277 35.78616333007813 30.98334121704102 35.6248779296875 31.09144020080566 35.55793380737305 C 31.14995765686035 35.61277770996094 31.23052787780762 35.70540237426758 31.28890609741211 35.77252197265625 C 31.54783630371094 36.07020950317383 31.9024658203125 36.47790908813477 32.44790649414063 36.47790908813477 C 32.45760726928711 36.47790908813477 32.46714782714844 36.47777938842773 32.47692489624023 36.47750854492188 C 40.69937515258789 36.25408935546875 56.9449348449707 32.95030212402344 57.10806655883789 32.91695022583008 L 57.33506774902344 32.87055206298828 L 57.44641494750977 32.6673698425293 L 58.33630752563477 31.04350852966309 C 59.7166633605957 33.91668701171875 61.08871841430664 36.87051391601563 61.17797470092773 37.25748062133789 C 61.22904586791992 37.52912139892578 61.37197494506836 37.66996002197266 61.46655654907227 37.76316070556641 C 61.65225601196289 37.94614028930664 62.21735763549805 38.50299072265625 62.21735763549805 45.23487091064453 C 62.21735763549805 52.01396942138672 61.38947677612305 58.42803955078125 59.7567253112793 64.29889678955078 C 58.19742584228516 69.90564727783203 55.94952774047852 74.86930084228516 53.07546615600586 79.05197143554688 C 47.37809753417969 87.34342956542969 39.63939666748047 91.90973663330078 31.28488540649414 91.90973663330078 Z" stroke="none"/>
        <path d="M 58.30619049072266 32.13887023925781 L 57.8848876953125 32.90765380859375 L 57.66219711303711 33.31401062011719 L 57.20819473266602 33.40681457519531 C 56.54034423828125 33.54332733154297 40.75674438476563 36.75271606445313 32.490478515625 36.97732543945313 C 32.47612762451172 36.97772216796875 32.4621467590332 36.97791290283203 32.44790649414063 36.97791290283203 C 31.78470230102539 36.97791290283203 31.3389720916748 36.57394409179688 31.04546737670898 36.25194549560547 C 31.04460716247559 36.25275421142578 31.04374694824219 36.25355529785156 31.04289627075195 36.25435638427734 C 30.69889450073242 36.57675170898438 30.30898666381836 36.94217681884766 29.74365615844727 36.94217681884766 C 29.7167854309082 36.94217681884766 29.68996429443359 36.94127655029297 29.66494750976563 36.93960571289063 C 22.26461791992188 36.45700073242188 7.540447235107422 33.53204345703125 6.917266845703125 33.40776062011719 L 6.407386779785156 33.30608367919922 L 6.197746276855469 32.83031463623047 L 5.920387268066406 32.20088195800781 C 4.822898864746094 34.17141723632813 3.157428741455078 37.11489868164063 2.638614654541016 37.7774658203125 C 2.2528076171875 38.27016448974609 1.078754425048828 39.76952362060547 1.078754425048828 45.23487091064453 C 1.078754425048828 51.97565460205078 1.888885498046875 58.34576416015625 3.486644744873047 64.16824340820313 C 5.011886596679688 69.7264404296875 7.21075439453125 74.64007568359375 10.02218627929688 78.77264404296875 C 15.56613540649414 86.92179870605469 23.11736679077148 91.40973663330078 31.28488540649414 91.40973663330078 C 39.46973419189453 91.40973663330078 47.06209564208984 86.92043304443359 52.66336822509766 78.768798828125 C 55.50607681274414 74.63177490234375 57.73054504394531 69.71832275390625 59.27500534057617 64.16493225097656 C 60.89563751220703 58.33768463134766 61.71735763549805 51.96869659423828 61.71735763549805 45.23487091064453 C 61.71735763549805 42.30129241943359 61.60865783691406 40.2047119140625 61.39426422119141 39.00336456298828 C 61.30670547485352 38.51266479492188 61.21294784545898 38.21522521972656 61.11560440063477 38.11930084228516 C 61.00478744506836 38.01010894775391 60.77680969238281 37.78543853759766 60.69126129150391 37.37363433837891 C 60.5638427734375 36.94918823242188 59.48997497558594 34.62110900878906 58.30619049072266 32.13887023925781 M 6.021827697753906 29.951171875 L 7.112834930419922 32.42707061767578 C 7.112834930419922 32.42707061767578 22.31041717529297 35.45786285400391 29.73002624511719 35.94172668457031 C 29.73452758789063 35.94202423095703 29.73908615112305 35.94216918945313 29.74365615844727 35.94216918945313 C 30.10313415527344 35.94216918945313 30.67215347290039 35.03328704833984 31.11904144287109 35.033203125 C 31.12051010131836 35.033203125 31.12191963195801 35.03321838378906 31.12338638305664 35.03323364257813 C 31.53493309020996 35.03867340087891 31.86488342285156 35.97791290283203 32.44790267944336 35.97791290283203 C 32.45296478271484 35.97791290283203 32.45793914794922 35.97784423828125 32.46303558349609 35.97770690917969 C 40.73720550537109 35.75287628173828 57.0079345703125 32.42707061767578 57.0079345703125 32.42707061767578 L 58.3647575378418 29.951171875 C 58.3647575378418 29.951171875 61.55106735229492 36.53697204589844 61.66851425170898 37.16094207763672 C 61.78597640991211 37.784912109375 62.71735763549805 36.60890197753906 62.71735763549805 45.23487091064453 C 62.71735763549805 73.26907348632813 48.58203506469727 92.40973663330078 31.28488540649414 92.40973663330078 C 13.98770523071289 92.40973663330078 0.07875442504882813 73.26907348632813 0.07875442504882813 45.23487091064453 C 0.07875442504882813 39.96791076660156 1.129085540771484 38.08323669433594 1.851276397705078 37.16094207763672 C 2.573467254638672 36.23865509033203 6.021827697753906 29.951171875 6.021827697753906 29.951171875 Z" stroke="none" fill="#ffc492"/>
      </g>
      <path id="Mouth" d="M10.418,4.506c5.754,0,10.418-3.347,10.418,0s-4.664,8.2-10.418,8.2S0,7.853,0,4.506,4.664,4.506,10.418,4.506Z" transform="translate(35.364 73.777)" fill="#fff"/>
      <path id="Nose" d="M7859.264-10300.434c0,.662,1.735,3.168,3.469,3.168s3.472-2.506,3.472-3.168-3.472.536-3.472.536S7859.264-10301.089,7859.264-10300.434Z" transform="translate(-7817.975 10369.404)" fill="#febd87"/>
      <g id="Eyes" transform="translate(30.321 56.173)">
        <ellipse id="Right_eye" data-name="Right eye" cx="2" cy="3" rx="2" ry="3" transform="translate(0.147 0.125)"/>
        <ellipse id="Left_Eye" data-name="Left Eye" cx="1.5" cy="3" rx="1.5" ry="3" transform="translate(28.147 0.125)"/>
      </g>
      <g id="Eyebrows" transform="translate(22.225 51.682)">
        <path id="Right_Eyebrow" data-name="Right Eyebrow" d="M28.074,38.1a7.675,7.675,0,0,1,4.444-1.183,18.457,18.457,0,0,1,3.706.529l3.358.654" transform="translate(-28.074 -36.919)" fill="none" stroke="#000" stroke-linecap="round" stroke-width="2"/>
        <path id="Left_Eyebrow" data-name="Left Eyebrow" d="M39.582,38.1a7.675,7.675,0,0,0-4.444-1.183,18.457,18.457,0,0,0-3.706.529l-3.358.654" transform="translate(6.337 -36.919)" fill="none" stroke="#000" stroke-linecap="round" stroke-width="2"/>
      </g>
    </g>
  </g>
</svg>
