<svg xmlns="http://www.w3.org/2000/svg" width="650" height="300" viewBox="0 0 812 368.436">
  <defs>
    <style>
      .cls-1 {
        fill: #a0616a;
      }

      .cls-2 {
        fill: #2f2e41;
      }

      .cls-3 {
        fill: #ccc;
      }

      .cls-4 {
        fill: #264653;
      }

      .cls-5 {
        opacity: 0.1;
      }

      .cls-6 {
        fill: #fff;
      }

      .cls-7 {
        fill: #e6e6e6;
      }

      .cls-8 {
        fill: #3f3d56;
      }

      .cls-9 {
        fill: #ffb8b8;
      }

      .cls-10 {
        opacity: 0.2;
      }

      .cls-11 {
        fill: #ff6584;
      }

      .cls-12 {
        fill: #ffd037;
      }

      .cls-13 {
        fill: #a8a8a8;
      }
    </style>
  </defs>
  <g id="Group_449" data-name="Group 449" transform="translate(-140 -634.365)">
    <g id="undraw_election_day_w842" transform="translate(633.979 794.413)">
      <path id="Path_704" data-name="Path 704" class="cls-1" d="M579.936,363.3a5.4,5.4,0,0,0-.551.65l-25.485-.9-2.915-5.467-8.825,3.321,4.22,10.181a4.114,4.114,0,0,0,4.249,2.514l28.84-3.166a5.4,5.4,0,1,0,.468-7.13Z" transform="translate(-449.519 -300.023)"/>
      <ellipse id="Ellipse_286" data-name="Ellipse 286" class="cls-2" cx="14.881" cy="14.881" rx="14.881" ry="14.881" transform="translate(66.729 6.952)"/>
      <ellipse id="Ellipse_287" data-name="Ellipse 287" class="cls-2" cx="6.158" cy="4.618" rx="6.158" ry="4.618" transform="translate(59.111 11.632) rotate(-45)"/>
      <ellipse id="Ellipse_288" data-name="Ellipse 288" class="cls-2" cx="4.618" cy="6.158" rx="4.618" ry="6.158" transform="translate(83.981 8.494) rotate(-66.869)"/>
      <path id="Path_3952" data-name="Path 3952" class="cls-3" d="M545.078,349.084l-11.42,5.107a2.477,2.477,0,0,1-3.4-1.592l-3.368-12.008a6.879,6.879,0,1,1,12.575-5.579l6.685,10.481a2.477,2.477,0,0,1-1.077,3.592Z" transform="translate(-441.816 -287.069)"/>
      <path id="Path_3953" data-name="Path 3953" class="cls-1" d="M453.78,410.579a5.524,5.524,0,0,0,3.828-7.556l20.364-46.007-11.649-2.934-16.354,46.146a5.554,5.554,0,0,0,3.811,10.351Z" transform="translate(-403.26 -298.322)"/>
      <path id="Path_3954" data-name="Path 3954" class="cls-1" d="M87.453,355.447l5.924,2.157,11.138-21.822L95.772,332.6Z" transform="translate(-42.484 -159.797)"/>
      <path id="Path_3955" data-name="Path 3955" class="cls-2" d="M0,0H19.813V7.655H7.655A7.655,7.655,0,0,1,0,0H0Z" transform="matrix(-0.94, -0.342, 0.342, -0.94, 60.316, 207.468)"/>
      <path id="Path_3956" data-name="Path 3956" class="cls-4" d="M467.937,543.721a2.455,2.455,0,0,1-1.051-.236l-6.808-3.225a2.467,2.467,0,0,1-1.27-3.08l19.213-53.2a2.477,2.477,0,0,1,4.453-.433l10.162,16.937a2.479,2.479,0,0,1,.027,2.5L470.1,542.475a2.489,2.489,0,0,1-2.16,1.245Z" transform="translate(-408.955 -360.628)"/>
      <ellipse id="Ellipse_289" data-name="Ellipse 289" class="cls-1" cx="12.63" cy="12.63" rx="12.63" ry="12.63" transform="translate(69.453 12.756)"/>
      <path id="Path_3957" data-name="Path 3957" class="cls-3" d="M523.265,368.151,500.9,362,489.01,338.214a7.5,7.5,0,0,1,6.7-10.847h17.791a7.485,7.485,0,0,1,5,1.914c4.773,4.275,14.8,16.6,4.854,38.655Z" transform="translate(-423.316 -285.344)"/>
      <path id="Path_3958" data-name="Path 3958" class="cls-3" d="M489.883,353.816l-11.33-5.3a2.477,2.477,0,0,1-1.015-3.611l6.886-10.4a6.879,6.879,0,1,1,12.443,5.869l-3.56,11.91a2.477,2.477,0,0,1-3.423,1.533Z" transform="translate(-417.927 -286.894)"/>
      <path id="Path_3959" data-name="Path 3959" class="cls-1" d="M166.59,365.657h6.3l3-24.316h-9.3Z" transform="translate(-80.927 -164.043)"/>
      <path id="Path_3960" data-name="Path 3960" class="cls-2" d="M0,0H19.813V7.655H7.655A7.655,7.655,0,0,1,0,0H0Z" transform="translate(104.124 207.468) rotate(179.997)"/>
      <path id="Path_3961" data-name="Path 3961" class="cls-4" d="M511.2,507.846a2.464,2.464,0,0,1-2.416-1.961c-1.812-8.538-11.223-52.27-18.569-74.8-7.474-22.919,5.254-33.358,7.882-35.218a1.935,1.935,0,0,0,.644-.778l1.909-4.2a2.486,2.486,0,0,1,2.261-1.453h.015c14.31.085,19.12,4.6,20.524,6.532a2.448,2.448,0,0,1,.387,2.019l-9.054,37.355a1.928,1.928,0,0,0-.037.708l9.008,67.824a2.477,2.477,0,0,1-2.171,2.787l-10.093,1.164A2.515,2.515,0,0,1,511.2,507.846Z" transform="translate(-423.159 -315.498)"/>
      <path id="Path_3962" data-name="Path 3962" class="cls-2" d="M495.82,273.173a17.177,17.177,0,0,0,9.817,3.034,10.527,10.527,0,0,1-4.172,1.716,34.638,34.638,0,0,0,14.148.08,9.157,9.157,0,0,0,2.962-1.017,3.748,3.748,0,0,0,1.828-2.445c.31-1.773-1.071-3.384-2.507-4.47a18.5,18.5,0,0,0-15.542-3.106,8.511,8.511,0,0,0-4.6,2.6,4.193,4.193,0,0,0-.387,4.979Z" transform="translate(-427.008 -255.731)"/>
      <path id="Path_3963" data-name="Path 3963" class="cls-3" d="M349.876,307.116v48.2l-12.5-.361H273.41v-39.32l18.664-8.516Z" transform="translate(-132.819 -147.417)"/>
      <path id="Path_3964" data-name="Path 3964" class="cls-5" d="M349.876,307.116v.15l-4.489,3-8.014,5.362H273.41l18.664-8.516Z" transform="translate(-132.819 -147.417)"/>
      <path id="Path_3965" data-name="Path 3965" class="cls-5" d="M410.3,307.116v48.2l-12.5-.361.09-39.411,7.923-5.271,4.416-3.154Z" transform="translate(-193.248 -147.417)"/>
      <path id="Path_3966" data-name="Path 3966" class="cls-6" d="M352.54,315.618H313.582l2.9-1.631h37.327Z" transform="translate(-152.334 -150.755)"/>
      <path id="Path_717" data-name="Path 717" class="cls-7" d="M606.251,649.931H362.514a.514.514,0,1,1,0-1.028H606.251a.514.514,0,0,1,0,1.028Z" transform="translate(-362 -441.542)"/>
      <path id="Path_3967" data-name="Path 3967" class="cls-8" d="M666.852,333.75H624.687a4.633,4.633,0,0,1-4.628-4.628V283.357a4.633,4.633,0,0,1,4.628-4.628h42.165a4.633,4.633,0,0,1,4.628,4.628v45.765A4.633,4.633,0,0,1,666.852,333.75Zm-42.165-53.992a3.6,3.6,0,0,0-3.6,3.6v45.765a3.6,3.6,0,0,0,3.6,3.6h42.165a3.6,3.6,0,0,0,3.6-3.6V283.357a3.6,3.6,0,0,0-3.6-3.6Z" transform="translate(-487.362 -261.716)"/>
      <path id="Path_3968" data-name="Path 3968" class="cls-4" d="M639.5,307.471h-4.114a2.316,2.316,0,0,1-2.314-2.314v-4.114a2.316,2.316,0,0,1,2.314-2.314H639.5a2.317,2.317,0,0,1,2.314,2.314v4.114a2.316,2.316,0,0,1-2.314,2.314Z" transform="translate(-493.685 -271.432)"/>
      <path id="Path_3969" data-name="Path 3969" class="cls-3" d="M639.5,332.471h-4.114a2.316,2.316,0,0,1-2.314-2.314v-4.114a2.316,2.316,0,0,1,2.314-2.314H639.5a2.316,2.316,0,0,1,2.314,2.314v4.114A2.316,2.316,0,0,1,639.5,332.471Z" transform="translate(-493.685 -283.576)"/>
      <path id="Path_3970" data-name="Path 3970" class="cls-4" d="M684.443,307.332H665.238a1.544,1.544,0,0,1-1.543-1.543v-.655a1.544,1.544,0,0,1,1.543-1.543h19.205a1.544,1.544,0,0,1,1.543,1.543v.655a1.544,1.544,0,0,1-1.543,1.543Z" transform="translate(-508.56 -273.794)"/>
      <path id="Path_3971" data-name="Path 3971" class="cls-3" d="M684.443,332.332H665.238a1.544,1.544,0,0,1-1.543-1.543v-.655a1.544,1.544,0,0,1,1.543-1.543h19.205a1.544,1.544,0,0,1,1.543,1.543v.655a1.544,1.544,0,0,1-1.543,1.543Z" transform="translate(-508.56 -285.939)"/>
      <path id="Path_3972" data-name="Path 3972" class="cls-3" d="M639.5,357.471h-4.114a2.317,2.317,0,0,1-2.314-2.314v-4.114a2.316,2.316,0,0,1,2.314-2.314H639.5a2.317,2.317,0,0,1,2.314,2.314v4.114A2.317,2.317,0,0,1,639.5,357.471Z" transform="translate(-493.685 -295.721)"/>
      <path id="Path_3973" data-name="Path 3973" class="cls-3" d="M684.443,357.332H665.238a1.544,1.544,0,0,1-1.543-1.543v-.655a1.544,1.544,0,0,1,1.543-1.543h19.205a1.544,1.544,0,0,1,1.543,1.543v.655a1.544,1.544,0,0,1-1.543,1.543Z" transform="translate(-508.56 -298.084)"/>
    </g>
    <g id="Group_444" data-name="Group 444" transform="translate(429.889 794.413)">
      <path id="Path_4066" data-name="Path 4066" class="cls-9" d="M701.948,686.29,696,675.76l8.4-3.546.77,1.038c1.925,2.594,3.643,8.075,5.981,10.206" transform="translate(-625.668 -495.739)"/>
      <path id="Path_4067" data-name="Path 4067" class="cls-2" d="M644.317,700.777l.29,9.145a3.216,3.216,0,0,0,3.165,3.2l6.558-.069h7.4s13.784-.354,14.456-6.028c.224-1.891-1.307-3.152-3.449-3.992a51.78,51.78,0,0,1-14.273-8.419,3.551,3.551,0,0,0-3.686-.578l-8.537,3.632A3.249,3.249,0,0,0,644.317,700.777Z" transform="translate(-570.888 -508.563)"/>
      <ellipse id="Ellipse_299" data-name="Ellipse 299" class="cls-6" cx="0.672" cy="0.709" rx="0.672" ry="0.709" transform="translate(88.155 189)"/>
      <ellipse id="Ellipse_300" data-name="Ellipse 300" class="cls-6" cx="0.672" cy="0.709" rx="0.672" ry="0.709" transform="translate(85.996 186.527)"/>
      <path id="Path_4068" data-name="Path 4068" class="cls-9" d="M864.1,655.227l2.854-11.882,8.32,3.761-.151,1.308c-.378,3.27-2.837,8.427-2.613,11.677" transform="translate(-854.275 -478.552)"/>
      <path id="Path_4069" data-name="Path 4069" class="cls-2" d="M857.633,668.827l-5.8,6.545a3.66,3.66,0,0,0,.1,4.919l4.543,4.7,5.23,5.516s9.984,10.029,14.263,6.519c1.426-1.17,1.189-3.2.238-5.4a57.67,57.67,0,0,1-4.46-16.707,3.7,3.7,0,0,0-2.111-3l-8.585-3.85A2.934,2.934,0,0,0,857.633,668.827Z" transform="translate(-850.929 -493.117)"/>
      <ellipse id="Ellipse_301" data-name="Ellipse 301" class="cls-6" cx="0.672" cy="0.709" rx="0.672" ry="0.709" transform="translate(18.586 184.73)"/>
      <ellipse id="Ellipse_302" data-name="Ellipse 302" class="cls-6" cx="0.672" cy="0.709" rx="0.672" ry="0.709" transform="translate(18.717 181.37)"/>
      <path id="Path_4070" data-name="Path 4070" class="cls-9" d="M775.237,296.883l-3.7,10.992-9.749-6.028s5.043-6.382,4.707-9.928Z" transform="translate(-714.992 -269.329)"/>
      <ellipse id="Ellipse_303" data-name="Ellipse 303" class="cls-9" cx="9.413" cy="9.928" rx="9.413" ry="9.928" transform="translate(49.657 9.294)"/>
      <path id="Path_4071" data-name="Path 4071" class="cls-4" d="M751.407,312.949l1.972.581s4.079-.227,6.1,2.964,3.509,2.462,3.509,2.462l8.257,13.139a20.415,20.415,0,0,1,1.681,11.346c-1.009,6.028-4.37,14.538-4.37,14.538s-21.516,2.127-22.188,1.064,0-8.155,0-8.155l-2.69-31.557s3.026-5.319,4.707-5.319A5.422,5.422,0,0,0,751.407,312.949Z" transform="translate(-705.953 -281.849)"/>
      <path id="Path_4072" data-name="Path 4072" class="cls-2" d="M739.471,421.475s5.715-.355,8.068.355,16.473,0,16.473,0l4.034,26.593,13.111,75.169-14.12,5.673-16.809-42.194-2.017,6.028-25.55,29.43-13.448-6.382,22.188-39,7.06-27.3s-4.37-15.6,1.681-25.175Z" transform="translate(-700.741 -346.407)"/>
      <path id="Path_4117" data-name="Path 4117" class="cls-10" d="M.642,39.585l.676.011L.676.011,0,0Z" transform="matrix(-0.944, -0.33, 0.33, -0.944, 49.803, 140.781)"/>
      <path id="Path_4073" data-name="Path 4073" class="cls-2" d="M800.447,239.643c.536-2.234,2.325-3.684,4-3.238.019.005.036.013.055.019a2.431,2.431,0,0,0-.6-.252c-1.672-.446-3.462,1-4,3.238-.53,2.209.367,4.355,2,4.834C800.622,243.494,799.98,241.592,800.447,239.643Z" transform="translate(-758.818 -236.091)"/>
      <path id="Path_4074" data-name="Path 4074" class="cls-2" d="M799.474,245.751c-1.687-1.464-2.167-3.79-1.071-5.2.012-.016.027-.029.04-.045a2.563,2.563,0,0,0-.472.466c-1.1,1.405-.616,3.731,1.071,5.2,1.668,1.448,3.891,1.508,5,.152A3.7,3.7,0,0,1,799.474,245.751Z" transform="translate(-757.45 -238.722)"/>
      <path id="Path_4118" data-name="Path 4118" class="cls-2" d="M3.345,8.036c1.793.042,3.2-1.722,3.149-3.941S4.943.043,3.15,0-.052,1.723,0,3.942,1.552,7.994,3.345,8.036Z" transform="matrix(-0.532, -0.847, 0.847, -0.532, 42.715, 10.387)"/>
      <path id="Path_4075" data-name="Path 4075" class="cls-4" d="M798.729,252.331a4.451,4.451,0,0,0-2.5.773,4.859,4.859,0,0,0-1.591,1.718,4.451,4.451,0,0,0,2.5-.773A4.859,4.859,0,0,0,798.729,252.331Z" transform="translate(-751.087 -245.76)"/>
      <path id="Path_4076" data-name="Path 4076" class="cls-2" d="M772.353,247.948h0c1.428,0,1.877,1.337,1.605,2.739a44.23,44.23,0,0,0,1.758,23.5h-8.637l-1.617-4.036-.626,4.036H753.527v-4.071C749.721,253.628,757.792,245.582,772.353,247.948Z" transform="translate(-711.939 -242.908)"/>
      <path id="Path_4077" data-name="Path 4077" class="cls-2" d="M745.027,249.421h.868a6.641,6.641,0,0,1,6.458,6.811v2.408l-5.635-.725-.417-1.757-.392,1.653-7.34-.944v-.635A6.642,6.642,0,0,1,745.027,249.421Z" transform="translate(-683.197 -244.027)"/>
      <path id="Path_4078" data-name="Path 4078" class="cls-10" d="M622.324,201.363l3.362,26.238,3.526.194Z" transform="translate(-574.725 -152.079)"/>
      <path id="Path_4079" data-name="Path 4079" class="cls-9" d="M754.494,435.957l6.68,21.135S775.09,473.53,767.3,473.53s-11.689-14.677-11.689-14.677l-9.463-21.135Z" transform="translate(-703.419 -355.082)"/>
      <path id="Path_4080" data-name="Path 4080" class="cls-4" d="M787.752,317.117s-4.528-2.067-7.276,3.137-1.63,25.043-1.073,27.978,4.453,21.135,4.453,21.135l13.359-2.935s1.113-8.219-2.227-7.632Z" transform="translate(-743.634 -284.089)"/>
    </g>
    <g id="Group_447" data-name="Group 447" transform="translate(140 675.076)">
      <path id="Path_4083" data-name="Path 4083" class="cls-7" d="M285.273,347.856a64.475,64.475,0,1,0-123.758,25.383c-.063-.07-.128-.138-.191-.209A64.531,64.531,0,0,0,173.067,391.2l.044.048c.4.432.794.861,1.2,1.282a64.28,64.28,0,0,0,45.475,19.787L217.61,530.653h6.731l-1.362-78.1,9.736-5.126L231.23,444.6l-8.314,4.377-.64-36.668A64.474,64.474,0,0,0,285.273,347.856Z" transform="translate(-156.321 -206.557)"/>
      <ellipse id="Ellipse_306" data-name="Ellipse 306" class="cls-4" cx="84.507" cy="84.507" rx="84.507" ry="84.507" transform="translate(35.764 0)"/>
      <path id="Path_4084" data-name="Path 4084" class="cls-10" d="M252.078,183.922a84.513,84.513,0,0,0,140.813,89.439,84.514,84.514,0,1,1-140.813-89.439Z" transform="translate(-194.204 -155.859)"/>
      <path id="Path_4085" data-name="Path 4085" class="cls-8" d="M241.449,187.616h.232l4.179,239.59h-8.822Z" transform="translate(-120.945 -103.109)"/>
      <rect id="Rectangle_52" data-name="Rectangle 52" class="cls-8" width="4.179" height="15.787" transform="translate(133.943 211.313) rotate(62.234)"/>
    </g>
    <g id="Group_448" data-name="Group 448" transform="translate(186.679 972.089)">
      <path id="Path_4087" data-name="Path 4087" class="cls-8" d="M223.083,779.567s.536-11.227,11.52-9.922" transform="translate(-165.267 -757.888)"/>
      <ellipse id="Ellipse_308" data-name="Ellipse 308" class="cls-4" cx="5.497" cy="5.497" rx="5.497" ry="5.497" transform="translate(49.215 0)"/>
      <rect id="Rectangle_54" data-name="Rectangle 54" class="cls-8" width="1.552" height="10.863" transform="translate(53.818 14.755)"/>
      <path id="Path_4088" data-name="Path 4088" class="cls-8" d="M327.514,780.468s.536-11.227,11.52-9.922" transform="translate(-179.695 -758.013)"/>
      <ellipse id="Ellipse_309" data-name="Ellipse 309" class="cls-4" cx="5.497" cy="5.497" rx="5.497" ry="5.497" transform="translate(139.218 0.776)"/>
      <rect id="Rectangle_55" data-name="Rectangle 55" class="cls-8" width="1.552" height="10.863" transform="translate(143.821 15.53)"/>
      <path id="Path_4108" data-name="Path 4108" class="cls-8" d="M283.289,786.1s.536-11.227,11.52-9.922" transform="translate(-173.585 -758.79)"/>
      <path id="Path_4113" data-name="Path 4113" class="cls-8" d="M435.605,786.1s-.536-11.227-11.52-9.922" transform="translate(-193.036 -758.79)"/>
      <path id="Path_4114" data-name="Path 4114" class="cls-8" d="M252.85,786.1s-.536-11.227-11.52-9.922" transform="translate(-167.788 -758.79)"/>
      <rect id="Rectangle_56" data-name="Rectangle 56" class="cls-8" width="765.321" height="1.724" transform="translate(0 25.838)"/>
    </g>
    <ellipse id="Ellipse_305" data-name="Ellipse 305" class="cls-11" cx="47.549" cy="47.548" rx="47.549" ry="47.548" transform="translate(787.999 634.365)"/>
    <path id="Path_4042" data-name="Path 4042" class="cls-4" d="M990.448,109.055s-42.262-2.565-37.283,27.052c0,0-1,5.236,3.755,7.615,0,0,.075-2.2,4.337-1.451a19.785,19.785,0,0,0,4.588.221,9.578,9.578,0,0,0,5.607-2.3h0s11.882-4.9,16.5-24.326c0,0,3.419-4.237,3.283-5.326l-7.133,3.047s2.44,5.145.5,9.422c0,0-.231-9.237-1.6-9.036-.281.045-3.71,1.782-3.71,1.782s4.2,8.966,1.029,15.476c0,0,1.2-11.044-2.334-14.829l-5.02,2.932s4.9,9.257,1.581,16.812c0,0,.853-11.586-2.635-16.1l-4.548,3.549s4.6,9.126,1.8,15.391c0,0-.366-13.488-2.786-14.507,0,0-3.976,3.514-4.583,4.95,0,0,3.153,6.626,1.195,10.12,0,0-1.2-8.986-2.184-9.036,0,0-3.966,5.954-4.377,10.04,0,0,.171-6.074,3.419-10.607a11.934,11.934,0,0,0-6.074,3.147s.617-4.212,7.028-4.578c0,0,3.273-4.518,4.151-4.794,0,0-6.4-.532-10.281,1.185,0,0,3.419-3.971,11.455-2.164l4.518-3.665s-8.428-1.155-12,.12c0,0,4.111-3.514,13.207-.954l4.889-2.927s-7.183-1.546-11.46-1c0,0,4.518-2.435,12.891.206l3.514-1.571s-5.261-1.034-6.8-1.195-1.626-.592-1.626-.592a18.267,18.267,0,0,1,9.889,1.1S990.579,109.5,990.448,109.055Z" transform="translate(-585.24 855.698)"/>
    <path id="Path_4045" data-name="Path 4045" class="cls-4" d="M295.72,617s5.5,7.18-2.53,18-14.65,20-12,26.76c0,0,12.12-20.14,22-20.42S306.57,629.14,295.72,617Z" transform="translate(330.76 319.698)"/>
    <path id="Path_4046" data-name="Path 4046" class="cls-5" d="M295.72,617a8.632,8.632,0,0,1,1.12,2.25c9.62,11.3,14.75,21.85,5.5,22.12-8.61.24-18.94,15.64-21.42,19.53a9.244,9.244,0,0,0,.29.89s12.12-20.14,22-20.42S306.57,629.14,295.72,617Z" transform="translate(330.76 319.698)"/>
    <path id="Path_4049" data-name="Path 4049" class="cls-4" d="M266.71,617s-5.5,7.18,2.53,18,14.65,20,12,26.76c0,0-12.11-20.14-22-20.42S255.86,629.14,266.71,617Z" transform="translate(330.76 319.698)"/>
    <path id="Path_4050" data-name="Path 4050" class="cls-5" d="M266.71,617a8.819,8.819,0,0,0-1.13,2.25c-9.62,11.3-14.74,21.85-5.5,22.12,8.62.24,18.95,15.64,21.43,19.53a7.16,7.16,0,0,1-.3.89s-12.11-20.14-22-20.42S255.86,629.14,266.71,617Z" transform="translate(330.76 319.698)"/>
    <path id="Path_4051" data-name="Path 4051" class="cls-12" d="M256.49,626.18c0,2.53.29,4.58.64,4.58s.63-2,.63-4.58-.35-1.34-.7-1.34S256.49,623.65,256.49,626.18Z" transform="translate(330.76 319.698)"/>
    <path id="Path_4052" data-name="Path 4052" class="cls-12" d="M253,629.2c2.22,1.21,4.15,1.94,4.32,1.64s-1.5-1.54-3.72-2.75-1.34-.33-1.51,0S250.77,628,253,629.2Z" transform="translate(330.76 319.698)"/>
    <path id="Path_4053" data-name="Path 4053" class="cls-13" d="M258.24,660.88s15.36-.47,20-3.77,23.63-7.23,24.77-1.94,23.09,26.29,5.75,26.43-40.3-2.7-44.92-5.52S258.24,660.88,258.24,660.88Z" transform="translate(330.76 319.698)"/>
    <path id="Path_4089" data-name="Path 4089" class="cls-8" d="M601.634,192.736l10.38-8.3c-8.063-.89-11.377,3.508-12.732,6.989-6.3-2.616-13.157.812-13.157.812l20.768,7.539a15.715,15.715,0,0,0-5.257-7.039Z" transform="translate(-167.886 482.604)"/>
    <path id="Path_4090" data-name="Path 4090" class="cls-8" d="M792.277,297.942l-11.569-9.253c8.988-.992,12.681,3.91,14.192,7.79,7.022-2.916,14.665.905,14.665.905l-23.148,8.4A17.518,17.518,0,0,1,792.277,297.942Z" transform="translate(-104.708 452.712)"/>
    <path id="Path_4091" data-name="Path 4091" class="cls-8" d="M586.346,385.93l10.38-8.3c-8.063-.89-11.377,3.508-12.732,6.989-6.3-2.616-13.157.812-13.157.812l20.768,7.539A15.716,15.716,0,0,0,586.346,385.93Z" transform="translate(-165 446.134)"/>
  </g>
</svg>
