<svg xmlns="http://www.w3.org/2000/svg" width="200" height="48" viewBox="0 0 251.42 61.42">
  <g id="Group_1" data-name="Group 1" transform="translate(-103.58 -287.58)">
    <g id="nodes" transform="translate(103.58 287.58)">
      <path id="Path_1" data-name="Path 1" d="M57.821,37.05V24.37a4.557,4.557,0,1,0-3.408-8.3L45.348,7.007a4.557,4.557,0,1,0-6.429,1.3l-4.061,9.837-6.913-6.913,7.18-2.984a.96.96,0,1,0-.737-1.772L26.477,9.765,23.741,7.029a4.557,4.557,0,1,0-7.67-.022L7.007,16.072A4.557,4.557,0,1,0,5.382,24.4L8.006,30.71,5.382,37.024a4.557,4.557,0,1,0,1.625,8.324l9.064,9.064a4.557,4.557,0,1,0,8.3,3.409H37.05a4.559,4.559,0,1,0,0-1.919H24.724L53.117,44.1a4.557,4.557,0,1,0,4.7-7.052ZM52.377,20.727l-2.656,1.1L44.225,8.6l8.823,8.823a4.53,4.53,0,0,0-.671,3.306Zm.734,1.774A4.57,4.57,0,0,0,55.9,24.37V36.7L50.457,23.6Zm1.007,14.905L43.274,26.561l5.41-2.233ZM59.5,19.914a2.639,2.639,0,1,1-2.639-2.639A2.642,2.642,0,0,1,59.5,19.914ZM41.507,1.919a2.639,2.639,0,1,1-2.639,2.639A2.642,2.642,0,0,1,41.507,1.919Zm-.813,7.124a4.5,4.5,0,0,0,1.637,0l5.616,13.515L41.8,25.092l-5.476-5.476Zm-.811,16.842-7.4,3.057,3.057-7.4ZM19.09,9.041a4.532,4.532,0,0,0,3.294-.655l2.176,2.176-7.376,3.065Zm-4.419,5.63L8.6,17.2l8.6-8.6ZM19.914,1.919a2.639,2.639,0,1,1-2.639,2.639A2.642,2.642,0,0,1,19.914,1.919ZM1.919,19.914a2.639,2.639,0,1,1,2.639,2.639A2.642,2.642,0,0,1,1.919,19.914Zm5.235,3.744A4.549,4.549,0,0,0,9.041,19.09l4.586-1.906L9.045,28.209Zm1.891,9.553,1.917,4.613-2.654,1.1a4.6,4.6,0,0,0-1.155-1.158Zm0,7.482L11.7,39.6l5.5,13.225L8.372,44a4.531,4.531,0,0,0,.671-3.306Zm-7.124.813a2.639,2.639,0,1,1,2.639,2.639A2.642,2.642,0,0,1,1.919,41.507ZM19.914,59.5a2.639,2.639,0,1,1,2.639-2.639A2.642,2.642,0,0,1,19.914,59.5Zm21.593-5.278a2.639,2.639,0,1,1-2.639,2.639A2.642,2.642,0,0,1,41.507,54.222Zm-17.849.044a4.549,4.549,0,0,0-4.568-1.887L13.473,38.864l3.74-1.544a.96.96,0,0,0-.732-1.774l-3.744,1.546L10.085,30.71,16.14,16.14l9.888-4.109,8.037,8.037-4.09,9.907L23.45,32.669a.96.96,0,0,0,.732,1.774l4.759-1.965L22.1,49.062a.96.96,0,1,0,1.774.732l7.575-18.349,9.907-4.09L53.033,39.036a4.531,4.531,0,0,0-.655,3.294Zm33.2-10.121A2.639,2.639,0,1,1,59.5,41.507,2.642,2.642,0,0,1,56.862,44.146Z" fill="#202020"/>
      <path id="Path_2" data-name="Path 2" d="M162,283.785a.96.96,0,1,0,1.252.524A.96.96,0,0,0,162,283.785Z" transform="translate(-142.028 -249.679)" fill="#202020"/>
    </g>
    <text id="BlockVote" transform="translate(172 332)" fill="#202020" font-size="40" font-family="Roboto-Medium, Roboto" font-weight="500" opacity="0.9"><tspan x="0" y="0">BlockVote</tspan></text>
  </g>
</svg>
