<svg id="Group_399" data-name="Group 399" xmlns="http://www.w3.org/2000/svg" width="150" height="150" viewBox="0 0 176 176">
  <circle id="Ellipse_213" data-name="Ellipse 213" cx="88" cy="88" r="88" fill="rgba(255,255,255,0.9)" opacity="0.6"/>
  <path id="iconmonstr-shield-1-thin" d="M46,0C29.894,13.693,19.8,14.333,3,14.333V69.445c0,21.992,15.3,27.73,43,45.222,27.7-17.491,43-23.23,43-45.222V14.333C72.2,14.333,62.106,13.693,46,0Zm0,6.173c14.056,11.037,24.462,12.685,38.222,12.9V69.445c0,18.59-12.6,23.617-38.222,39.579C20.319,93.019,7.778,87.935,7.778,69.445V19.078C21.538,18.858,31.944,17.21,46,6.173ZM69.889,43.148,41.26,74.791,23.716,56.01l3.349-3.263L41.437,67.959,66.411,39.875l3.478,3.273Z" transform="translate(42 31)" fill="#312c2b" fill-rule="evenodd"/>
</svg>
