<svg id="Group_397" data-name="Group 397" xmlns="http://www.w3.org/2000/svg" width="150" height="150" viewBox="0 0 176 176">
  <circle id="Ellipse_215" data-name="Ellipse 215" cx="88" cy="88" r="88" fill="rgba(255,255,255,0.9)" opacity="0.6"/>
  <g id="User_Lock_Privacy" data-name="User Lock Privacy" transform="translate(30 21)">
    <g id="Outline">
      <path id="Path_3556" data-name="Path 3556" d="M65.917,440A1.917,1.917,0,0,0,64,441.917v13.417a1.917,1.917,0,0,0,3.833,0V441.917A1.917,1.917,0,0,0,65.917,440Z" transform="translate(-48.667 -334.583)"/>
      <path id="Path_3557" data-name="Path 3557" d="M161.984,28.393a1.917,1.917,0,1,0-1.514-.74,1.9,1.9,0,0,0,1.514.74Z" transform="translate(-121.717 -18.675)"/>
      <path id="Path_3558" data-name="Path 3558" d="M78.427,64.438A26.306,26.306,0,0,0,82.3,57.385a8.775,8.775,0,0,0,7.108-6.543l1.093-4.37a6.557,6.557,0,0,0-4.088-7.736l.539-2.635a30.654,30.654,0,0,0,.488-3.3v-.011c.086-.93.132-1.86.132-2.786a29.648,29.648,0,0,0-2.317-11.519A30.012,30.012,0,0,0,57.5,0h0A29.932,29.932,0,0,0,46.158,2.2,1.917,1.917,0,1,0,47.6,5.755a26.275,26.275,0,0,1,35.95,21.1,20.147,20.147,0,0,0-8.488-3.833l-.747-.124-7.346,4.9a17.078,17.078,0,0,1-18.942,0l-7.346-4.9-.747.124a20.12,20.12,0,0,0-8.488,3.833A26,26,0,0,1,36.454,14.4a1.918,1.918,0,0,0-.393-2.681,1.894,1.894,0,0,0-1.143-.381,1.929,1.929,0,0,0-1.538.771,30.1,30.1,0,0,0-4.387,8.354,29.694,29.694,0,0,0-1.572,9.538,30.508,30.508,0,0,0,.623,6.1l.539,2.635a6.486,6.486,0,0,0-2.4,1.552A6.58,6.58,0,0,0,24.8,42.366a6.494,6.494,0,0,0-.5,2.508,6.561,6.561,0,0,0,.2,1.6l1.093,4.37A8.776,8.776,0,0,0,32.7,57.386a26.376,26.376,0,0,0,9.469,12.45V77.3a1.917,1.917,0,0,1-1.574,1.886L15.738,83.705A19.158,19.158,0,0,0,0,102.563V120.75a1.917,1.917,0,0,0,3.833,0V102.563a15.326,15.326,0,0,1,12.59-15.086l22.142-4.025A19.161,19.161,0,0,0,57.5,99.666a1.917,1.917,0,1,0,0-3.833A15.333,15.333,0,0,1,42.321,82.664,5.746,5.746,0,0,0,46,77.3V72.11a26.39,26.39,0,0,0,32.428-7.672ZM57.5,70.916H57.5a22.437,22.437,0,0,1-21.548-15.9l-.414-1.344-1.418-.007a4.944,4.944,0,0,1-4.806-3.754l-1.092-4.37a2.716,2.716,0,0,1,2.635-3.376H33.2l-1.4-6.838c-.166-.811-.292-1.629-.382-2.449,1.833-3.915,6.639-5.462,8.447-5.918L45.9,30.987a20.912,20.912,0,0,0,23.2,0l6.037-4.025c1.811.455,6.614,2,8.447,5.916-.09.82-.216,1.639-.382,2.451l-1.4,6.821,0,.015h2.35a2.716,2.716,0,0,1,2.635,3.378l-1.092,4.368a4.944,4.944,0,0,1-4.807,3.755H79.479l-.426,1.351A22.438,22.438,0,0,1,57.5,70.916Z" transform="translate(0 0)"/>
      <path id="Path_3559" data-name="Path 3559" d="M350,277.08v-8A21.1,21.1,0,0,0,323.881,248.6a1.917,1.917,0,0,0,.46,3.777,1.851,1.851,0,0,0,.458-.055,17.257,17.257,0,0,1,21.368,16.756v7.667h-3.833v-7.667a13.417,13.417,0,1,0-26.833,0v7.667h-3.833v-7.667a17.259,17.259,0,0,1,2.362-8.723,1.917,1.917,0,1,0-3.3-1.941,21.069,21.069,0,0,0-2.892,10.664v8A5.759,5.759,0,0,0,304,282.5v23a5.757,5.757,0,0,0,5.75,5.75h38.333a5.757,5.757,0,0,0,5.75-5.75v-23A5.759,5.759,0,0,0,350,277.08Zm-30.667-8a9.583,9.583,0,1,1,19.167,0v7.667H319.333ZM350,305.5a1.919,1.919,0,0,1-1.917,1.917H309.75a1.919,1.919,0,0,1-1.917-1.917v-23a1.919,1.919,0,0,1,1.917-1.917h38.333A1.919,1.919,0,0,1,350,282.5Z" transform="translate(-231.167 -188.583)"/>
      <path id="Path_3560" data-name="Path 3560" d="M354.086,263.87a1.917,1.917,0,1,0,1.538.769A1.917,1.917,0,0,0,354.086,263.87Z" transform="translate(-267.797 -200.651)"/>
      <path id="Path_3561" data-name="Path 3561" d="M386.716,400a6.708,6.708,0,0,0-1.917,13.136v4.114a1.917,1.917,0,0,0,3.833,0v-4.114A6.708,6.708,0,0,0,386.716,400Zm0,9.583a2.875,2.875,0,1,1,2.875-2.875A2.875,2.875,0,0,1,386.716,409.583Z" transform="translate(-288.966 -304.167)"/>
    </g>
  </g>
</svg>
