<svg xmlns="http://www.w3.org/2000/svg" width="150" height="150" viewBox="0 0 176 176">
  <g id="Group_398" data-name="Group 398" transform="translate(0.074)">
    <circle id="Ellipse_214" data-name="Ellipse 214" cx="88" cy="88" r="88" transform="translate(-0.074)" fill="rgba(255,255,255,0.9)" opacity="0.6"/>
    <g id="fast-time" transform="translate(11.482 29)">
      <path id="Path_3539" data-name="Path 3539" d="M33.606,138.678H57.168a2.234,2.234,0,0,0,0-4.468H33.606a2.234,2.234,0,0,0,0,4.468Z" transform="translate(-22.027 -113.156)"/>
      <path id="Path_3540" data-name="Path 3540" d="M88.054,185.317H78.746a2.234,2.234,0,0,0,0,4.468h9.308a2.234,2.234,0,0,0,0-4.468Z" transform="translate(-53.721 -149.039)"/>
      <path id="Path_3541" data-name="Path 3541" d="M2.234,226.8H25.026a2.234,2.234,0,0,0,0-4.468H2.234a2.234,2.234,0,1,0,0,4.468Z" transform="translate(0 -175.024)"/>
      <path id="Path_3542" data-name="Path 3542" d="M59.4,365.023a2.234,2.234,0,0,0-2.234-2.234H33.606a2.234,2.234,0,1,0,0,4.468H57.168A2.234,2.234,0,0,0,59.4,365.023Z" transform="translate(-22.027 -273.645)"/>
      <path id="Path_3543" data-name="Path 3543" d="M88.054,311.683H78.746a2.234,2.234,0,0,0,0,4.468h9.308a2.234,2.234,0,0,0,0-4.468Z" transform="translate(-53.721 -237.763)"/>
      <path id="Path_3544" data-name="Path 3544" d="M27.26,276.907a2.234,2.234,0,0,0-2.234-2.234H2.234a2.234,2.234,0,1,0,0,4.468H25.026A2.234,2.234,0,0,0,27.26,276.907Z" transform="translate(0 -211.777)"/>
      <path id="Path_3545" data-name="Path 3545" d="M314.263,147.26a2.234,2.234,0,0,0,2.234-2.234v-3.41a2.234,2.234,0,1,0-4.468,0v3.41A2.234,2.234,0,0,0,314.263,147.26Z" transform="translate(-219.082 -116.787)"/>
      <path id="Path_3546" data-name="Path 3546" d="M387.317,172a2.235,2.235,0,0,0-3.16,0l-2.411,2.411a2.234,2.234,0,1,0,3.16,3.16l2.411-2.411A2.235,2.235,0,0,0,387.317,172Z" transform="translate(-267.572 -139.227)"/>
      <path id="Path_3547" data-name="Path 3547" d="M411.933,248.5a2.234,2.234,0,0,0,0,4.468h3.41a2.234,2.234,0,1,0,0-4.468Z" transform="translate(-287.658 -193.401)"/>
      <path id="Path_3548" data-name="Path 3548" d="M384.905,318.217a2.234,2.234,0,1,0-3.16,3.16l2.411,2.411a2.234,2.234,0,0,0,3.16-3.16Z" transform="translate(-267.572 -241.891)"/>
      <path id="Path_3549" data-name="Path 3549" d="M312.029,348.4v3.41a2.234,2.234,0,0,0,4.468,0V348.4a2.234,2.234,0,0,0-4.468,0Z" transform="translate(-219.082 -261.977)"/>
      <path id="Path_3550" data-name="Path 3550" d="M237.936,318.217l-2.411,2.411a2.234,2.234,0,0,0,3.159,3.16l2.411-2.411a2.234,2.234,0,1,0-3.159-3.16Z" transform="translate(-164.907 -241.891)"/>
      <path id="Path_3551" data-name="Path 3551" d="M205.145,248.5a2.234,2.234,0,1,0,0,4.468h3.41a2.234,2.234,0,0,0,0-4.468Z" transform="translate(-142.468 -193.401)"/>
      <path id="Path_3552" data-name="Path 3552" d="M241.1,174.407,238.685,172a2.234,2.234,0,0,0-3.159,3.16l2.411,2.411a2.234,2.234,0,0,0,3.159-3.16Z" transform="translate(-164.908 -139.227)"/>
      <path id="Path_3553" data-name="Path 3553" d="M326.277,206.371a2.234,2.234,0,0,0-2.234-2.234H316.5V187.55a2.234,2.234,0,0,0-4.468,0v18.821a2.234,2.234,0,0,0,2.234,2.234h9.779A2.234,2.234,0,0,0,326.277,206.371Z" transform="translate(-219.082 -149.038)"/>
      <path id="Path_3554" data-name="Path 3554" d="M256.9,150.642A2.234,2.234,0,0,0,259,148.277a44.511,44.511,0,1,0-.411,9.4,2.234,2.234,0,0,0-4.419-.663,40.1,40.1,0,1,1,.37-8.465,2.236,2.236,0,0,0,2.365,2.094Z" transform="translate(-119.358 -93.677)"/>
      <path id="Path_3555" data-name="Path 3555" d="M167.978,63.529a57.311,57.311,0,0,0-22.644,4.679H105.915a2.234,2.234,0,0,0,0,4.468h31.013a57.272,57.272,0,0,0-11.457,9.712,2.234,2.234,0,0,0,3.312,3,52.758,52.758,0,1,1-5.239,6.823,2.234,2.234,0,0,0-3.753-2.425,57.318,57.318,0,0,0,17.151,79.263H105.915a2.234,2.234,0,1,0,0,4.468H145.3A57.332,57.332,0,1,0,167.978,63.529Z" transform="translate(-72.796 -63.529)"/>
    </g>
  </g>
</svg>
