<svg xmlns="http://www.w3.org/2000/svg" width="400" height="400" viewBox="0 0 674.343 676.361">
  <g id="undraw_Access_account_re_8spm" transform="translate(0 -0.001)">
    <path id="Path_1" data-name="Path 1" d="M292.425,701.449l-5.939-23.423a304.15,304.15,0,0,0-32.269-11.578l-.75,10.886-3.04-11.993c-13.6-3.887-22.851-5.6-22.851-5.6s12.494,47.521,38.707,83.85l30.541,5.365L273.1,752.38a123.062,123.062,0,0,0,10.61,11.246c38.129,35.392,80.6,51.63,94.855,36.268s-5.093-56.5-43.221-91.892c-11.82-10.972-26.669-19.776-41.533-26.708Z" transform="translate(-227.576 -131.673)" fill="#2a9d8f"/>
    <path id="Path_2" data-name="Path 2" d="M356.909,670.469l7.024-23.121A304.128,304.128,0,0,0,342.3,620.758l-6.269,8.931,3.6-11.838c-9.634-10.354-16.669-16.6-16.669-16.6s-13.865,47.139-10.208,91.787l23.371,20.379-22.083-9.336a123.058,123.058,0,0,0,3.272,15.114c14.346,50.006,42.308,85.858,62.453,80.078s24.848-51,10.5-101.008c-4.447-15.5-12.608-30.715-21.749-44.33Z" transform="translate(-235.58 -126.137)" fill="#2a9d8f"/>
    <path id="Path_22" data-name="Path 22" d="M712.175,236.692h-3.7V135.2a58.741,58.741,0,0,0-58.741-58.741H434.7A58.741,58.741,0,0,0,375.962,135.2V691.989A58.741,58.741,0,0,0,434.7,750.73H649.729a58.741,58.741,0,0,0,58.741-58.74V308.934h3.7Z" transform="translate(-241.622 -76.461)" fill="#264653"/>
    <path id="Path_23" data-name="Path 23" d="M653.793,93.335H625.728a20.841,20.841,0,0,1-19.3,28.712H483.244a20.841,20.841,0,0,1-19.3-28.712H437.733A43.868,43.868,0,0,0,393.865,137.2V693.18a43.868,43.868,0,0,0,43.867,43.868H653.793a43.867,43.867,0,0,0,43.867-43.867h0V137.2a43.867,43.867,0,0,0-43.867-43.867Z" transform="translate(-243.316 -78.059)" fill="#fff"/>
    <path id="Path_6" data-name="Path 6" d="M528.92,335.65A22.125,22.125,0,0,1,540,316.479a22.136,22.136,0,1,0,0,38.339A22.121,22.121,0,0,1,528.92,335.65Z" transform="translate(-254.006 -98.9)" fill="#ccc"/>
    <path id="Path_7" data-name="Path 7" d="M559.657,335.65a22.124,22.124,0,0,1,11.076-19.172,22.136,22.136,0,1,0,0,38.339,22.121,22.121,0,0,1-11.072-19.167Z" transform="translate(-256.915 -98.9)" fill="#ccc"/>
    <circle id="Ellipse_1" data-name="Ellipse 1" cx="22.136" cy="22.136" r="22.136" transform="translate(307.802 214.613)" fill="#264653"/>
    <path id="Path_8" data-name="Path 8" d="M618.9,399.874H489.888a4.638,4.638,0,0,1-4.633-4.633V266.23a4.638,4.638,0,0,1,4.633-4.633H618.9a4.638,4.638,0,0,1,4.633,4.633V395.241A4.638,4.638,0,0,1,618.9,399.874ZM489.888,263.451a2.782,2.782,0,0,0-2.779,2.779V395.242a2.782,2.782,0,0,0,2.779,2.779H618.9a2.782,2.782,0,0,0,2.779-2.779V266.231a2.782,2.782,0,0,0-2.779-2.779Z" transform="translate(-251.967 -93.986)"/>
    <rect id="Rectangle_1" data-name="Rectangle 1" width="197.864" height="1.853" transform="translate(197.874 404.781)" fill="#303030"/>
    <circle id="Ellipse_2" data-name="Ellipse 2" cx="6.249" cy="6.249" r="6.249" transform="translate(197.874 380.713)" fill="#264653"/>
    <rect id="Rectangle_2" data-name="Rectangle 2" width="197.864" height="1.853" transform="translate(197.874 467.264)" fill="#1a1a1a"/>
    <circle id="Ellipse_3" data-name="Ellipse 3" cx="6.249" cy="6.249" r="6.249" transform="translate(197.874 443.197)" fill="#264653"/>
    <path id="Path_3919" data-name="Path 3919" d="M653.726,668.029H591.2a4.078,4.078,0,0,1-4.074-4.074V642.038a4.078,4.078,0,0,1,4.074-4.074h62.531a4.078,4.078,0,0,1,4.074,4.074v21.916a4.079,4.079,0,0,1-4.074,4.074Z" transform="translate(-261.61 -129.612)" fill="#264653"/>
    <circle id="Ellipse_7" data-name="Ellipse 7" cx="6.249" cy="6.249" r="6.249" transform="translate(218.256 380.713)" fill="#264653"/>
    <circle id="Ellipse_8" data-name="Ellipse 8" cx="6.249" cy="6.249" r="6.249" transform="translate(238.639 380.713)" fill="#264653"/>
    <circle id="Ellipse_9" data-name="Ellipse 9" cx="6.249" cy="6.249" r="6.249" transform="translate(218.256 443.197)" fill="#264653"/>
    <circle id="Ellipse_10" data-name="Ellipse 10" cx="6.249" cy="6.249" r="6.249" transform="translate(238.639 443.197)" fill="#264653"/>
    <path id="Path_88" data-name="Path 88" d="M901.416,823.308H251.393c-1.392,0-2.519-.494-2.519-1.1s1.127-1.1,2.519-1.1H901.416c1.391,0,2.519.494,2.519,1.1S902.807,823.308,901.416,823.308Z" transform="translate(-229.592 -146.947)" fill="#3f3d56" opacity="0.56"/>
    <path id="Path_3920" data-name="Path 3920" d="M790.888,563.057a9.121,9.121,0,0,1,1.277.713l40.607-17.331,1.449-10.7,16.225-.1-.958,24.533-53.6,14.174a9.626,9.626,0,0,1-.405,1.094,9.266,9.266,0,1,1-4.6-12.387Z" transform="translate(-279.661 -119.926)" fill="#ffb8b8"/>
    <path id="Path_3921" data-name="Path 3921" d="M635.267,730.545h-11.1l-5.28-42.812h16.381Z" transform="translate(-58.582 -65.099)" fill="#ffb8b8"/>
    <path id="Path_3922" data-name="Path 3922" d="M614.554,731.518H635.96V745H601.076A13.478,13.478,0,0,1,614.554,731.518Z" transform="translate(-56.896 -69.243)" fill="#2f2e41"/>
    <path id="Path_3923" data-name="Path 3923" d="M682.517,727.1l-11.046,1.088L662.018,686.1l16.3-1.606Z" transform="translate(-62.665 -64.793)" fill="#ffb8b8"/>
    <path id="Path_3924" data-name="Path 3924" d="M13.478,0H34.884V13.478H0A13.478,13.478,0,0,1,13.478,0Z" transform="translate(587.188 662.339) rotate(-5.625)" fill="#2f2e41"/>
    <circle id="Ellipse_263" data-name="Ellipse 263" cx="22.236" cy="22.236" r="22.236" transform="translate(557.539 325.935)" fill="#ffb8b8"/>
    <path id="Path_3925" data-name="Path 3925" d="M846.526,785.558a4.047,4.047,0,0,1-4-3.347C836.784,750.319,818,646.042,817.556,643.153a1.277,1.277,0,0,1-.014-.2v-7.775a1.346,1.346,0,0,1,.253-.789l2.481-3.475a1.338,1.338,0,0,1,1.035-.566c14.143-.663,60.463-2.606,62.7.189h0c2.247,2.81,1.453,11.323,1.271,13l.009.175L906.1,776.794a4.085,4.085,0,0,1-3.363,4.649l-13,2.141a4.094,4.094,0,0,1-4.55-2.8c-4.02-12.845-17.5-56.057-22.171-72.777a.452.452,0,0,0-.888.125c.233,15.939.8,56.605.992,70.65l.021,1.513a4.091,4.091,0,0,1-3.705,4.107l-12.533,1.139C846.779,785.553,846.651,785.558,846.526,785.558Z" transform="translate(-283.42 -128.77)" fill="#2f2e41"/>
    <path id="Path_99" data-name="Path 99" d="M849.161,495.038c-3.881,2.307-6.2,6.546-7.535,10.86a102.927,102.927,0,0,0-4.422,24.588L835.8,555.474l-17.432,66.244c15.109,12.784,23.824,9.879,44.163-.578s22.663,3.487,22.663,3.487l4.067-56.365,5.811-61.593a27.314,27.314,0,0,0-4.4-4.232,44.958,44.958,0,0,0-38.425-8.144Z" transform="translate(-283.498 -115.887)" fill="#264653"/>
    <path id="Path_3926" data-name="Path 3926" d="M844.79,577.409a9.508,9.508,0,0,1,1.359.637l40.151-20.1.666-10.887,16.562-1.142.888,24.818-53.656,17.743a9.5,9.5,0,1,1-5.969-11.074Z" transform="translate(-284.789 -120.899)" fill="#ffb8b8"/>
    <path id="Path_101" data-name="Path 101" d="M900.546,508.286c9.879,3.487,11.619,41.26,11.619,41.26-11.622-6.392-25.568,4.068-25.568,4.068s-2.905-9.879-6.392-22.663a22.207,22.207,0,0,1,4.648-20.919S890.667,504.8,900.546,508.286Z" transform="translate(-289.267 -117.223)" fill="#264653"/>
    <path id="Path_102" data-name="Path 102" d="M885.582,463.671c-2.77-2.217-6.55,1.812-6.55,1.812l-2.217-19.948s-13.853,1.659-22.718-.554-10.251,8.035-10.251,8.035a71.172,71.172,0,0,1-.277-12.467c.554-4.987,7.757-9.974,20.5-13.3s19.394,11.082,19.394,11.082C892.331,442.765,888.353,465.887,885.582,463.671Z" transform="translate(-285.87 -109.619)" fill="#2f2e41"/>
  </g>
</svg>
