<svg xmlns="http://www.w3.org/2000/svg" width="40" height="40" viewBox="0 0 62.002 62.002">
  <path id="Subtraction" d="M21759,21352a30.915,30.915,0,1,1,12.066-2.437A30.789,30.789,0,0,1,21759,21352Zm-18.791-19.246a19.418,19.418,0,0,0,11.773,3.717c13.584,0,21.7-11.033,21.7-21.7v-1.035a16.63,16.63,0,0,0,3.719-3.926,17.471,17.471,0,0,1-4.342,1.242,8.063,8.063,0,0,0,3.309-4.135,19.3,19.3,0,0,1-4.752,1.859,7.407,7.407,0,0,0-5.584-2.482,7.748,7.748,0,0,0-7.645,7.65,4.04,4.04,0,0,0,.207,1.65,21.323,21.323,0,0,1-15.705-8.061,7.935,7.935,0,0,0-1.033,3.928,8.172,8.172,0,0,0,3.3,6.408,6.993,6.993,0,0,1-3.512-1.033,7.519,7.519,0,0,0,6.2,7.438,6.322,6.322,0,0,1-2.068.207,3.532,3.532,0,0,1-1.449-.207,7.8,7.8,0,0,0,7.236,5.375,15.492,15.492,0,0,1-9.506,3.309A5.754,5.754,0,0,1,21740.209,21332.754Z" transform="translate(-21727.998 -21289.998)"/>
</svg>
