<svg xmlns="http://www.w3.org/2000/svg" width="40" height="40" viewBox="0 0 62 62">
  <path id="Subtraction" d="M21878,21352a30.906,30.906,0,1,1,12.066-2.437A30.765,30.765,0,0,1,21878,21352Zm.016-49.848a62.682,62.682,0,0,0-7.934.215,13.306,13.306,0,0,0-4.719.857,8.984,8.984,0,0,0-5.58,5.58,9.792,9.792,0,0,0-.857,4.719,62.682,62.682,0,0,0-.215,7.934,63.871,63.871,0,0,0,.215,7.939,13.246,13.246,0,0,0,.857,4.715,8.993,8.993,0,0,0,5.576,5.578,13.348,13.348,0,0,0,4.723.857,62.682,62.682,0,0,0,7.934.215,63.871,63.871,0,0,0,7.939-.215,13.246,13.246,0,0,0,4.715-.857,9,9,0,0,0,5.578-5.574,13.292,13.292,0,0,0,.859-4.719c0-.863.035-1.48.072-2.2l0-.008c.063-1.166.139-2.615.139-5.736a63.254,63.254,0,0,0-.213-7.934,13.292,13.292,0,0,0-.859-4.719,8.993,8.993,0,0,0-5.574-5.58,13.288,13.288,0,0,0-4.719-.857A63.871,63.871,0,0,0,21878.016,21302.154Zm0,35.178a59.729,59.729,0,0,1-7.719-.213,9.779,9.779,0,0,1-3.477-.586l-.125-.043-.045-.016a7.494,7.494,0,0,1-3.65-3.645c-.018-.055-.037-.113-.059-.174l0-.008a9.867,9.867,0,0,1-.58-3.465c0-.727-.029-1.266-.068-1.945l0-.016v-.02c-.061-1.086-.145-2.572-.145-5.744a59.245,59.245,0,0,1,.215-7.721,9.785,9.785,0,0,1,.586-3.475l.02-.059c.012-.039.025-.076.037-.111a7.7,7.7,0,0,1,1.5-2.15,3.639,3.639,0,0,1,2.15-1.5l.045-.016.123-.041a9.745,9.745,0,0,1,3.479-.588,138.8,138.8,0,0,1,15.439,0,9.75,9.75,0,0,1,3.477.586c.061.021.119.041.174.059a7.508,7.508,0,0,1,3.646,3.65c.012.037.025.076.039.117l.021.064a9.776,9.776,0,0,1,.582,3.463c0,.727.029,1.262.068,1.939l0,.021v.02c.061,1.084.145,2.568.145,5.74a59.265,59.265,0,0,1-.215,7.725,9.581,9.581,0,0,1-.582,3.461c-.008.025-.016.049-.023.072-.014.039-.025.076-.037.113a7.529,7.529,0,0,1-3.646,3.645c-.055.018-.113.037-.174.059a9.789,9.789,0,0,1-3.477.586c-.725,0-1.26.029-1.937.068l-.021,0C21882.7,21337.248,21881.225,21337.332,21878.016,21337.332Zm0-25.742a9.763,9.763,0,0,0-9.869,9.869,9.869,9.869,0,1,0,9.869-9.869Zm10.3-2.783a2.359,2.359,0,1,0,2.359,2.359A2.39,2.39,0,0,0,21888.314,21308.807Zm-10.3,19.086a6.315,6.315,0,1,1,4.584-1.848A6.408,6.408,0,0,1,21878.016,21327.893Z" transform="translate(-21847 -21290.002)"/>
</svg>
